{"glyphs":{"a":{"x_min":0,"x_max":400,"ha":400,"o":"m 154 516 q 183 513 200 481 q 200 503 197 512 q 192 523 199 524 q 206 526 220 522 q 233 519 250 508 q 266 498 280 484 q 294 471 302 453 q 311 435 309 417 q 308 407 299 378 q 290 348 278 309 q 267 270 256 228 q 244 185 236 148 q 229 112 228 87 q 228 62 240 60 q 252 56 270 82 q 289 107 310 146 q 331 186 352 232 q 373 279 389 318 q 393 329 399 331 q 405 333 410 329 q 416 325 420 316 q 423 308 421 296 q 408 253 389 202 q 370 151 345 106 q 320 61 292 30 q 264 -1 234 -3 q 215 -4 199 5 q 183 14 171 28 q 159 42 152 60 q 145 77 142 92 q 126 55 106 29 q 87 3 61 1 q 31 0 6 24 q -18 47 -32 90 q -45 134 -44 194 q -42 255 -21 329 q -9 368 6 403 q 22 438 44 464 q 66 490 93 504 q 120 519 154 516 z m 55 56 q 70 57 83 74 q 96 92 108 120 q 120 148 132 183 q 145 218 158 257 q 165 291 172 326 q 180 360 187 391 q 188 403 189 418 q 190 432 189 444 q 188 456 184 464 q 179 472 169 472 q 158 472 144 456 q 130 441 114 416 q 99 390 84 358 q 69 325 58 292 q 44 251 38 208 q 31 166 32 132 q 32 97 38 76 q 44 55 55 56 z"},"L":{"x_min":0,"x_max":1072,"ha":1072,"o":"m -14 1058 q -16 1067 -18 1080 q -20 1093 -20 1103 q -20 1113 -17 1116 q -14 1119 -8 1110 q 22 1039 64 1008 q 105 976 153 965 q 202 953 258 960 q 313 967 372 982 q 431 996 490 1012 q 550 1027 608 1032 q 659 1091 732 1124 q 804 1158 907 1156 q 961 1154 999 1136 q 1037 1118 1062 1090 q 1087 1062 1098 1028 q 1109 993 1108 959 q 1107 902 1082 854 q 1058 805 1020 771 q 982 737 936 722 q 889 706 841 716 q 790 728 770 756 q 749 783 750 816 q 751 848 769 878 q 787 909 811 926 q 781 950 748 958 q 715 966 679 961 q 648 910 626 846 q 604 781 585 709 q 566 637 548 561 q 531 485 511 411 q 491 337 467 268 q 443 198 410 140 q 466 126 516 113 q 567 100 612 92 q 658 83 700 80 q 741 78 778 84 q 801 88 840 98 q 878 109 919 134 q 960 160 998 204 q 1036 248 1059 318 q 1061 326 1068 328 q 1076 330 1082 327 q 1089 324 1093 314 q 1097 305 1092 290 q 1086 272 1078 248 q 1071 225 1066 213 q 1037 146 998 98 q 960 49 919 18 q 878 -14 837 -30 q 796 -46 760 -47 q 705 -49 656 -40 q 608 -30 560 -13 q 513 4 464 26 q 414 47 358 68 q 313 17 253 -12 q 193 -42 111 -39 q 64 -38 35 -19 q 6 0 -8 28 q -21 56 -20 88 q -20 120 -6 147 q 7 174 34 191 q 60 208 98 207 q 140 204 198 192 q 255 181 322 164 q 358 234 380 328 q 402 422 422 524 q 443 625 468 727 q 493 829 534 915 q 499 901 462 886 q 426 870 390 858 q 353 845 316 837 q 279 829 241 832 q 200 833 162 846 q 123 858 90 884 q 56 911 30 954 q 3 996 -14 1058 z m 876 898 q 876 897 875 896 q 875 889 872 883 q 869 880 863 880 q 857 880 852 881 q 845 881 839 876 q 833 871 828 866 q 804 838 800 820 q 797 803 804 793 q 811 783 824 778 q 838 773 847 772 q 875 768 902 785 q 929 802 952 830 q 974 859 989 895 q 1004 931 1007 963 q 1016 1035 980 1066 q 944 1096 879 1095 q 830 1093 792 1074 q 755 1056 725 1024 q 753 1017 780 1002 q 808 988 834 966 q 854 949 864 932 q 870 923 872 915 q 874 910 875 906 q 875 903 875 902 q 875 901 876 898 z m 104 23 q 162 19 205 38 q 248 58 280 96 q 226 116 180 128 q 134 140 102 140 q 70 140 48 124 q 25 107 21 86 q 17 65 36 46 q 55 27 104 23 z"},"3":{"x_min":0,"x_max":1219,"ha":1219,"o":"m 876 781 l 739 657 l 775 471 l 615 565 l 450 471 l 489 652 l 351 781 l 537 801 l 615 972 l 690 802 z m 682 576 l 639 834 l 586 834 l 541 576 l 564 562 l 583 576 l 592 634 l 631 634 l 642 576 l 663 562 z m 628 672 l 598 672 l 612 774 z m 610 21 l 631 21 l 624 39 q 622 42 622 44 q 622 46 619 49 q 619 45 616 39 z m 352 -5 l 352 3 l 363 3 l 363 -5 z m 844 -5 l 844 58 l 852 58 l 852 1 l 883 1 l 883 -5 z m 787 -5 l 787 58 l 832 58 l 832 49 l 795 49 l 795 30 l 829 30 l 829 22 l 795 22 l 795 1 l 832 1 l 832 -5 z m 565 -5 l 565 21 l 541 58 l 552 58 l 564 39 q 567 30 570 28 q 571 30 572 33 q 574 36 577 39 l 589 58 l 598 58 l 573 21 l 573 -5 z m 376 -5 l 376 58 l 400 58 q 403 58 406 56 q 408 55 409 55 q 415 54 417 49 q 420 46 420 40 q 420 36 417 34 q 415 28 411 28 q 415 27 420 22 q 423 16 423 13 q 423 10 422 8 q 421 7 421 6 q 420 0 415 0 q 414 -3 412 -3 q 411 -3 409 -5 l 400 -5 z m 205 -5 l 187 58 l 196 58 l 205 16 q 207 12 207 9 q 207 6 208 3 q 210 10 210 15 l 222 58 l 232 58 l 241 25 q 243 18 244 14 q 246 9 246 3 q 247 6 247 9 q 247 12 249 16 l 259 58 l 267 58 l 249 -5 l 241 -5 l 229 42 q 228 46 228 49 q 226 46 226 42 l 213 -5 z m 123 -5 l 105 58 l 115 58 l 123 16 q 123 9 127 3 q 129 10 129 15 l 141 58 l 150 58 l 160 25 q 162 18 162 14 q 163 9 163 3 q 166 6 166 9 q 166 12 168 16 l 177 58 l 186 58 l 168 -5 l 160 -5 l 148 42 q 147 46 147 49 q 144 46 144 42 l 130 -5 z m 384 30 l 397 30 q 403 30 405 33 q 409 33 409 34 q 411 36 411 40 q 411 45 409 46 l 408 46 q 406 46 406 47 q 406 48 405 48 q 403 49 396 49 l 384 49 z m 285 -5 l 268 58 l 277 58 l 286 16 q 288 12 288 9 q 288 6 291 3 q 291 9 292 11 q 292 13 292 15 l 304 58 l 313 58 l 324 25 q 325 18 326 14 q 327 9 327 3 q 330 6 330 9 q 330 12 331 16 l 342 58 l 349 58 l 331 -5 l 324 -5 l 312 42 q 310 46 310 49 q 307 46 307 42 l 294 -5 z m 664 28 l 682 28 q 685 28 688 29 q 690 30 693 30 q 696 30 696 34 q 697 36 697 40 q 697 45 694 48 q 693 49 684 49 l 664 49 z m 384 1 l 400 1 q 403 1 405 3 l 409 3 q 411 6 414 7 l 414 13 q 414 16 411 19 q 411 22 408 22 l 397 22 l 384 22 z m 435 -5 l 435 58 l 442 58 l 442 -5 z m 985 25 q 985 12 990 7 q 996 1 1006 1 q 1017 1 1021 7 q 1027 12 1027 27 q 1027 34 1026 39 q 1023 46 1018 48 q 1014 49 1006 49 q 997 49 993 45 q 985 39 985 25 z m 976 25 q 976 42 985 49 q 991 58 1006 58 q 1011 58 1014 56 q 1018 55 1021 54 q 1026 52 1028 49 q 1030 46 1033 42 q 1035 39 1035 27 q 1035 13 1032 9 q 1027 1 1021 -3 q 1015 -6 1006 -6 q 1002 -6 998 -6 q 994 -5 990 -3 q 987 0 984 3 q 982 6 981 9 q 979 13 978 17 q 976 21 976 25 z m 592 -5 l 616 58 l 625 58 l 651 -5 l 642 -5 l 634 13 l 609 13 l 600 -5 z m 459 -5 l 459 58 l 466 58 l 466 1 l 495 1 l 495 -5 z m 892 -5 l 892 3 l 903 3 l 903 -5 z m 748 19 l 748 27 l 774 27 l 774 3 q 768 -3 762 -5 q 759 -5 755 -6 q 751 -6 748 -6 q 739 -6 733 -3 q 729 0 726 2 q 723 4 721 9 q 720 13 718 17 q 717 21 717 25 q 717 31 718 34 q 720 37 721 42 q 724 51 732 54 q 735 55 740 56 q 744 58 748 58 q 756 58 760 55 q 766 54 768 49 q 772 45 774 40 l 766 39 q 766 40 762 45 q 762 48 756 49 l 748 49 l 739 49 q 735 48 732 45 q 732 43 727 39 q 727 36 726 33 q 726 30 726 27 q 726 16 729 13 q 735 4 736 3 q 741 1 748 1 q 754 1 759 3 q 762 6 764 6 q 765 6 766 7 l 766 19 z m 657 -5 l 657 58 l 684 58 q 688 58 691 56 q 694 55 697 55 q 702 54 703 49 q 706 46 706 40 q 706 33 702 28 q 700 27 696 26 q 693 25 688 22 q 691 22 692 22 q 693 21 694 21 q 696 18 696 16 q 697 13 700 10 l 712 -5 l 702 -5 l 693 7 q 690 10 689 12 q 688 15 687 16 q 687 19 686 19 q 684 19 682 21 l 681 21 q 679 21 679 22 q 679 22 678 22 l 675 22 l 664 22 l 664 -5 z m 505 -5 l 505 58 l 514 58 l 514 1 l 544 1 l 544 -5 z m 961 16 l 969 15 q 966 3 960 0 q 954 -6 943 -6 q 934 -6 928 -3 q 924 0 922 3 q 921 6 918 9 q 915 21 915 27 q 915 33 918 45 q 925 52 928 54 q 933 55 936 56 q 939 58 943 58 q 948 58 952 56 q 957 55 960 54 q 963 51 965 48 q 967 45 969 40 l 960 39 q 960 45 954 48 q 951 49 943 49 q 934 49 931 48 q 928 46 928 44 q 927 42 924 39 q 924 36 923 33 q 922 30 922 27 q 922 18 927 13 q 927 10 928 8 q 930 6 931 3 q 936 1 943 1 q 951 1 955 6 q 960 10 961 16 z m 1047 -5 l 1047 58 l 1059 58 l 1074 13 q 1074 10 1076 8 q 1077 6 1077 3 q 1077 4 1080 13 l 1093 58 l 1105 58 l 1105 -5 l 1098 -5 l 1098 46 l 1080 -5 l 1072 -5 l 1054 48 l 1054 -5 z m 610 21 l 631 21 l 624 39 q 622 42 622 44 q 622 46 619 49 q 619 45 616 39 z m 352 -5 l 352 3 l 363 3 l 363 -5 z m 844 -5 l 844 58 l 852 58 l 852 1 l 883 1 l 883 -5 z m 787 -5 l 787 58 l 832 58 l 832 49 l 795 49 l 795 30 l 829 30 l 829 22 l 795 22 l 795 1 l 832 1 l 832 -5 z m 565 -5 l 565 21 l 541 58 l 552 58 l 564 39 q 567 30 570 28 q 571 30 572 33 q 574 36 577 39 l 589 58 l 598 58 l 573 21 l 573 -5 z m 376 -5 l 376 58 l 400 58 q 403 58 406 56 q 408 55 409 55 q 415 54 417 49 q 420 46 420 40 q 420 36 417 34 q 415 28 411 28 q 415 27 420 22 q 423 16 423 13 q 423 10 422 8 q 421 7 421 6 q 420 0 415 0 q 414 -3 412 -3 q 411 -3 409 -5 l 400 -5 z m 205 -5 l 187 58 l 196 58 l 205 16 q 207 12 207 9 q 207 6 208 3 q 210 10 210 15 l 222 58 l 232 58 l 241 25 q 243 18 244 14 q 246 9 246 3 q 247 6 247 9 q 247 12 249 16 l 259 58 l 267 58 l 249 -5 l 241 -5 l 229 42 q 228 46 228 49 q 226 46 226 42 l 213 -5 z m 123 -5 l 105 58 l 115 58 l 123 16 q 123 9 127 3 q 129 10 129 15 l 141 58 l 150 58 l 160 25 q 162 18 162 14 q 163 9 163 3 q 166 6 166 9 q 166 12 168 16 l 177 58 l 186 58 l 168 -5 l 160 -5 l 148 42 q 147 46 147 49 q 144 46 144 42 l 130 -5 z m 384 30 l 397 30 q 403 30 405 33 q 409 33 409 34 q 411 36 411 40 q 411 45 409 46 l 408 46 q 406 46 406 47 q 406 48 405 48 q 403 49 396 49 l 384 49 z m 285 -5 l 268 58 l 277 58 l 286 16 q 288 12 288 9 q 288 6 291 3 q 291 9 292 11 q 292 13 292 15 l 304 58 l 313 58 l 324 25 q 325 18 326 14 q 327 9 327 3 q 330 6 330 9 q 330 12 331 16 l 342 58 l 349 58 l 331 -5 l 324 -5 l 312 42 q 310 46 310 49 q 307 46 307 42 l 294 -5 z m 664 28 l 682 28 q 685 28 688 29 q 690 30 693 30 q 696 30 696 34 q 697 36 697 40 q 697 45 694 48 q 693 49 684 49 l 664 49 z m 384 1 l 400 1 q 403 1 405 3 l 409 3 q 411 6 414 7 l 414 13 q 414 16 411 19 q 411 22 408 22 l 397 22 l 384 22 z m 435 -5 l 435 58 l 442 58 l 442 -5 z m 985 25 q 985 12 990 7 q 996 1 1006 1 q 1017 1 1021 7 q 1027 12 1027 27 q 1027 34 1026 39 q 1023 46 1018 48 q 1014 49 1006 49 q 997 49 993 45 q 985 39 985 25 z m 976 25 q 976 42 985 49 q 991 58 1006 58 q 1011 58 1014 56 q 1018 55 1021 54 q 1026 52 1028 49 q 1030 46 1033 42 q 1035 39 1035 27 q 1035 13 1032 9 q 1027 1 1021 -3 q 1015 -6 1006 -6 q 1002 -6 998 -6 q 994 -5 990 -3 q 987 0 984 3 q 982 6 981 9 q 979 13 978 17 q 976 21 976 25 z m 592 -5 l 616 58 l 625 58 l 651 -5 l 642 -5 l 634 13 l 609 13 l 600 -5 z m 459 -5 l 459 58 l 466 58 l 466 1 l 495 1 l 495 -5 z m 892 -5 l 892 3 l 903 3 l 903 -5 z m 748 19 l 748 27 l 774 27 l 774 3 q 768 -3 762 -5 q 759 -5 755 -6 q 751 -6 748 -6 q 739 -6 733 -3 q 729 0 726 2 q 723 4 721 9 q 720 13 718 17 q 717 21 717 25 q 717 31 718 34 q 720 37 721 42 q 724 51 732 54 q 735 55 740 56 q 744 58 748 58 q 756 58 760 55 q 766 54 768 49 q 772 45 774 40 l 766 39 q 766 40 762 45 q 762 48 756 49 l 748 49 l 739 49 q 735 48 732 45 q 732 43 727 39 q 727 36 726 33 q 726 30 726 27 q 726 16 729 13 q 735 4 736 3 q 741 1 748 1 q 754 1 759 3 q 762 6 764 6 q 765 6 766 7 l 766 19 z m 657 -5 l 657 58 l 684 58 q 688 58 691 56 q 694 55 697 55 q 702 54 703 49 q 706 46 706 40 q 706 33 702 28 q 700 27 696 26 q 693 25 688 22 q 691 22 692 22 q 693 21 694 21 q 696 18 696 16 q 697 13 700 10 l 712 -5 l 702 -5 l 693 7 q 690 10 689 12 q 688 15 687 16 q 687 19 686 19 q 684 19 682 21 l 681 21 q 679 21 679 22 q 679 22 678 22 l 675 22 l 664 22 l 664 -5 z m 505 -5 l 505 58 l 514 58 l 514 1 l 544 1 l 544 -5 z m 961 16 l 969 15 q 966 3 960 0 q 954 -6 943 -6 q 934 -6 928 -3 q 924 0 922 3 q 921 6 918 9 q 915 21 915 27 q 915 33 918 45 q 925 52 928 54 q 933 55 936 56 q 939 58 943 58 q 948 58 952 56 q 957 55 960 54 q 963 51 965 48 q 967 45 969 40 l 960 39 q 960 45 954 48 q 951 49 943 49 q 934 49 931 48 q 928 46 928 44 q 927 42 924 39 q 924 36 923 33 q 922 30 922 27 q 922 18 927 13 q 927 10 928 8 q 930 6 931 3 q 936 1 943 1 q 951 1 955 6 q 960 10 961 16 z m 1047 -5 l 1047 58 l 1059 58 l 1074 13 q 1074 10 1076 8 q 1077 6 1077 3 q 1077 4 1080 13 l 1093 58 l 1105 58 l 1105 -5 l 1098 -5 l 1098 46 l 1080 -5 l 1072 -5 l 1054 48 l 1054 -5 z m 610 21 l 631 21 l 624 39 q 622 42 622 44 q 622 46 619 49 q 619 45 616 39 z m 352 -5 l 352 3 l 363 3 l 363 -5 z m 844 -5 l 844 58 l 852 58 l 852 1 l 883 1 l 883 -5 z m 787 -5 l 787 58 l 832 58 l 832 49 l 795 49 l 795 30 l 829 30 l 829 22 l 795 22 l 795 1 l 832 1 l 832 -5 z m 565 -5 l 565 21 l 541 58 l 552 58 l 564 39 q 567 30 570 28 q 571 30 572 33 q 574 36 577 39 l 589 58 l 598 58 l 573 21 l 573 -5 z m 376 -5 l 376 58 l 400 58 q 403 58 406 56 q 408 55 409 55 q 415 54 417 49 q 420 46 420 40 q 420 36 417 34 q 415 28 411 28 q 415 27 420 22 q 423 16 423 13 q 423 10 422 8 q 421 7 421 6 q 420 0 415 0 q 414 -3 412 -3 q 411 -3 409 -5 l 400 -5 z m 205 -5 l 187 58 l 196 58 l 205 16 q 207 12 207 9 q 207 6 208 3 q 210 10 210 15 l 222 58 l 232 58 l 241 25 q 243 18 244 14 q 246 9 246 3 q 247 6 247 9 q 247 12 249 16 l 259 58 l 267 58 l 249 -5 l 241 -5 l 229 42 q 228 46 228 49 q 226 46 226 42 l 213 -5 z m 123 -5 l 105 58 l 115 58 l 123 16 q 123 9 127 3 q 129 10 129 15 l 141 58 l 150 58 l 160 25 q 162 18 162 14 q 163 9 163 3 q 166 6 166 9 q 166 12 168 16 l 177 58 l 186 58 l 168 -5 l 160 -5 l 148 42 q 147 46 147 49 q 144 46 144 42 l 130 -5 z m 384 30 l 397 30 q 403 30 405 33 q 409 33 409 34 q 411 36 411 40 q 411 45 409 46 l 408 46 q 406 46 406 47 q 406 48 405 48 q 403 49 396 49 l 384 49 z m 285 -5 l 268 58 l 277 58 l 286 16 q 288 12 288 9 q 288 6 291 3 q 291 9 292 11 q 292 13 292 15 l 304 58 l 313 58 l 324 25 q 325 18 326 14 q 327 9 327 3 q 330 6 330 9 q 330 12 331 16 l 342 58 l 349 58 l 331 -5 l 324 -5 l 312 42 q 310 46 310 49 q 307 46 307 42 l 294 -5 z m 664 28 l 682 28 q 685 28 688 29 q 690 30 693 30 q 696 30 696 34 q 697 36 697 40 q 697 45 694 48 q 693 49 684 49 l 664 49 z m 384 1 l 400 1 q 403 1 405 3 l 409 3 q 411 6 414 7 l 414 13 q 414 16 411 19 q 411 22 408 22 l 397 22 l 384 22 z m 435 -5 l 435 58 l 442 58 l 442 -5 z m 985 25 q 985 12 990 7 q 996 1 1006 1 q 1017 1 1021 7 q 1027 12 1027 27 q 1027 34 1026 39 q 1023 46 1018 48 q 1014 49 1006 49 q 997 49 993 45 q 985 39 985 25 z m 976 25 q 976 42 985 49 q 991 58 1006 58 q 1011 58 1014 56 q 1018 55 1021 54 q 1026 52 1028 49 q 1030 46 1033 42 q 1035 39 1035 27 q 1035 13 1032 9 q 1027 1 1021 -3 q 1015 -6 1006 -6 q 1002 -6 998 -6 q 994 -5 990 -3 q 987 0 984 3 q 982 6 981 9 q 979 13 978 17 q 976 21 976 25 z m 592 -5 l 616 58 l 625 58 l 651 -5 l 642 -5 l 634 13 l 609 13 l 600 -5 z m 459 -5 l 459 58 l 466 58 l 466 1 l 495 1 l 495 -5 z m 892 -5 l 892 3 l 903 3 l 903 -5 z m 748 19 l 748 27 l 774 27 l 774 3 q 768 -3 762 -5 q 759 -5 755 -6 q 751 -6 748 -6 q 739 -6 733 -3 q 729 0 726 2 q 723 4 721 9 q 720 13 718 17 q 717 21 717 25 q 717 31 718 34 q 720 37 721 42 q 724 51 732 54 q 735 55 740 56 q 744 58 748 58 q 756 58 760 55 q 766 54 768 49 q 772 45 774 40 l 766 39 q 766 40 762 45 q 762 48 756 49 l 748 49 l 739 49 q 735 48 732 45 q 732 43 727 39 q 727 36 726 33 q 726 30 726 27 q 726 16 729 13 q 735 4 736 3 q 741 1 748 1 q 754 1 759 3 q 762 6 764 6 q 765 6 766 7 l 766 19 z m 657 -5 l 657 58 l 684 58 q 688 58 691 56 q 694 55 697 55 q 702 54 703 49 q 706 46 706 40 q 706 33 702 28 q 700 27 696 26 q 693 25 688 22 q 691 22 692 22 q 693 21 694 21 q 696 18 696 16 q 697 13 700 10 l 712 -5 l 702 -5 l 693 7 q 690 10 689 12 q 688 15 687 16 q 687 19 686 19 q 684 19 682 21 l 681 21 q 679 21 679 22 q 679 22 678 22 l 675 22 l 664 22 l 664 -5 z m 505 -5 l 505 58 l 514 58 l 514 1 l 544 1 l 544 -5 z m 961 16 l 969 15 q 966 3 960 0 q 954 -6 943 -6 q 934 -6 928 -3 q 924 0 922 3 q 921 6 918 9 q 915 21 915 27 q 915 33 918 45 q 925 52 928 54 q 933 55 936 56 q 939 58 943 58 q 948 58 952 56 q 957 55 960 54 q 963 51 965 48 q 967 45 969 40 l 960 39 q 960 45 954 48 q 951 49 943 49 q 934 49 931 48 q 928 46 928 44 q 927 42 924 39 q 924 36 923 33 q 922 30 922 27 q 922 18 927 13 q 927 10 928 8 q 930 6 931 3 q 936 1 943 1 q 951 1 955 6 q 960 10 961 16 z m 1047 -5 l 1047 58 l 1059 58 l 1074 13 q 1074 10 1076 8 q 1077 6 1077 3 q 1077 4 1080 13 l 1093 58 l 1105 58 l 1105 -5 l 1098 -5 l 1098 46 l 1080 -5 l 1072 -5 l 1054 48 l 1054 -5 z m 175 111 l 187 106 q 184 93 174 84 q 162 75 148 75 q 135 75 123 81 q 111 90 109 99 q 103 109 103 124 q 103 141 109 151 q 114 162 124 166 q 135 172 148 172 q 165 172 171 165 q 181 162 186 145 l 174 144 q 168 156 163 157 q 157 163 148 163 q 136 163 130 157 q 121 151 118 144 q 117 138 117 124 q 117 111 121 105 q 124 94 130 91 q 138 85 147 85 q 159 85 166 93 q 169 96 172 100 q 174 105 175 111 z m 199 123 q 199 135 202 144 q 205 153 213 159 q 219 166 227 169 q 235 172 244 172 q 258 172 268 166 q 277 162 285 150 q 291 135 291 124 q 291 117 290 111 q 288 105 285 99 q 277 87 267 81 q 255 75 244 75 q 237 75 232 76 q 226 78 220 81 q 210 87 205 99 q 199 109 199 123 z m 213 123 q 213 105 220 94 q 231 85 244 85 q 259 85 267 97 q 277 108 277 124 q 277 130 276 134 q 274 139 273 144 q 270 154 261 157 q 256 163 244 163 q 232 163 222 153 q 213 145 213 123 z m 306 78 l 306 171 l 324 171 l 346 105 q 351 96 351 91 q 354 94 357 106 l 381 171 l 396 171 l 396 78 l 384 78 l 384 156 l 357 78 l 345 78 l 318 157 l 318 78 z m 417 78 l 417 171 l 453 171 l 466 171 q 474 171 478 166 q 480 165 486 157 q 487 154 488 151 q 489 148 489 144 q 489 135 481 124 q 474 117 453 117 l 429 117 l 429 78 z m 429 126 l 454 126 q 468 126 469 132 q 475 133 475 144 q 475 151 474 153 q 468 159 463 159 q 462 162 453 162 l 429 162 z m 505 78 l 505 171 l 517 171 l 517 87 l 564 87 l 564 78 z m 579 78 l 579 171 l 648 171 l 648 162 l 591 162 l 591 132 l 643 132 l 643 120 l 591 120 l 591 87 l 649 87 l 649 78 z m 690 78 l 690 162 l 658 162 l 658 171 l 735 171 l 735 162 l 703 162 l 703 78 z m 748 78 l 748 171 l 817 171 l 817 162 l 760 162 l 760 132 l 813 132 l 813 120 l 760 120 l 760 87 l 819 87 l 819 78 z m 870 106 l 882 108 q 882 100 885 97 q 888 91 895 88 q 898 87 909 87 q 912 87 916 87 q 919 87 922 88 q 927 88 930 94 q 931 97 931 103 q 931 108 930 111 q 928 112 926 113 q 924 114 921 117 q 919 117 904 120 q 897 123 892 124 q 888 124 885 126 q 879 129 876 136 q 873 138 872 141 q 871 144 871 147 q 871 156 877 162 q 879 165 882 166 q 885 168 889 171 q 892 172 907 172 q 918 172 924 169 q 928 166 931 164 q 934 163 936 159 q 942 154 942 145 l 930 144 q 927 156 922 157 q 918 162 907 162 q 892 162 889 157 q 885 153 885 147 q 885 142 889 139 q 889 139 907 132 q 915 130 920 128 q 925 127 928 126 q 933 124 935 122 q 937 120 940 117 q 943 112 943 103 q 943 93 940 88 q 934 82 928 79 q 924 78 920 76 q 915 75 909 75 q 903 75 897 76 q 891 78 888 79 q 880 81 873 91 q 870 97 870 106 z m 961 78 l 961 171 l 1029 171 l 1029 162 l 975 162 l 975 132 l 1027 132 l 1027 120 l 975 120 l 975 87 l 1032 87 l 1032 78 z m 1074 78 l 1074 162 l 1044 162 l 1044 171 l 1117 171 l 1117 162 l 1086 162 l 1086 78 z m 112 190 l 112 283 l 150 283 l 163 283 q 166 283 175 280 q 177 279 179 276 q 181 273 183 270 q 186 267 186 259 q 186 246 177 237 q 172 229 150 229 l 127 229 l 127 190 z m 127 241 l 150 241 q 163 241 168 244 q 174 250 174 256 q 174 259 172 262 q 171 265 169 268 q 165 273 162 273 q 160 274 150 274 l 127 274 z m 201 190 l 201 283 l 268 283 l 268 274 l 214 274 l 214 244 l 265 244 l 265 234 l 214 234 l 214 202 l 271 202 l 271 190 z m 288 190 l 288 283 l 331 283 q 345 283 351 282 q 358 279 361 274 q 364 262 364 259 q 364 249 358 243 q 352 237 337 234 q 340 231 342 231 q 343 231 345 229 q 352 222 355 216 l 372 190 l 357 190 l 343 210 q 342 214 340 217 q 337 220 336 223 q 333 225 332 227 q 331 229 330 229 q 327 231 324 231 q 322 234 316 234 l 303 234 l 303 190 z m 303 243 l 327 243 q 339 243 342 244 q 346 249 349 250 q 351 253 351 259 q 351 265 346 270 q 342 274 331 274 l 303 274 z m 381 222 l 391 222 q 391 219 392 216 q 394 213 396 210 q 397 208 400 206 q 402 204 405 204 q 414 201 420 201 q 423 201 426 201 q 429 201 430 202 q 439 205 441 208 q 441 210 442 212 q 442 214 442 216 q 442 222 441 223 q 436 226 430 229 q 429 231 425 231 q 421 231 415 234 q 402 235 396 240 q 388 246 385 249 q 384 253 384 261 q 384 264 384 268 q 385 271 388 274 q 390 280 400 283 q 403 286 417 286 q 429 286 435 283 q 444 279 447 273 q 453 264 453 259 l 441 256 q 438 267 433 270 q 427 276 417 276 q 405 276 400 270 q 396 267 396 261 q 396 255 400 253 q 402 250 417 247 q 430 241 439 241 q 442 238 445 236 q 448 234 450 231 q 454 226 454 217 q 454 210 450 204 q 447 199 444 197 q 442 195 439 192 q 427 189 420 189 q 409 189 397 192 q 393 195 390 197 q 387 199 384 204 q 382 208 382 212 q 381 216 381 222 z m 468 237 q 468 258 480 273 q 493 286 513 286 q 519 286 524 284 q 529 283 537 280 q 543 277 546 272 q 549 268 552 262 q 558 252 558 237 q 558 223 552 211 q 546 201 537 195 q 525 189 513 189 q 499 189 489 196 q 475 204 474 214 q 468 222 468 237 z m 480 237 q 480 219 489 210 q 498 201 513 201 q 528 201 537 210 q 544 220 544 237 q 544 243 544 249 q 543 255 540 259 q 535 267 531 270 q 523 276 513 276 q 505 276 500 274 q 496 271 489 267 q 480 258 480 237 z m 573 190 l 573 283 l 586 283 l 636 211 l 636 283 l 648 283 l 648 190 l 636 190 l 585 264 l 585 190 z m 658 190 l 694 283 l 708 283 l 747 190 l 732 190 l 721 220 l 682 220 l 670 190 z m 684 229 l 717 229 l 708 255 q 705 261 704 266 q 702 271 700 274 q 700 270 698 266 q 697 261 696 256 z m 754 190 l 754 283 l 768 283 l 768 202 l 814 202 l 814 190 z m 922 283 l 934 283 l 934 231 q 934 214 931 208 q 928 199 921 195 q 913 189 898 189 q 883 189 877 195 q 873 196 870 200 q 867 204 864 208 q 862 211 862 231 l 862 283 l 873 283 l 873 231 q 873 216 876 211 q 879 205 883 204 q 886 202 889 202 q 892 201 897 201 q 909 201 916 205 q 922 211 922 231 z m 951 222 l 963 222 q 963 219 964 216 q 966 213 967 210 q 969 208 971 206 q 973 204 976 204 q 985 201 990 201 q 1000 201 1005 202 q 1008 204 1012 208 q 1014 210 1014 216 q 1014 222 1012 223 q 1009 225 1008 226 q 1008 228 1005 229 q 1002 231 998 231 q 993 231 987 234 q 981 235 976 236 q 970 237 969 240 q 961 243 960 249 q 955 253 955 261 q 955 267 960 274 q 961 280 970 283 q 976 286 988 286 q 993 286 998 286 q 1003 286 1006 283 q 1015 279 1020 273 q 1021 270 1022 266 q 1024 262 1024 259 l 1012 256 q 1009 261 1008 264 q 1008 268 1005 270 q 1000 276 988 276 q 975 276 973 270 q 967 268 967 261 q 967 256 970 253 q 973 250 988 247 q 1005 241 1009 241 q 1014 238 1017 236 q 1020 234 1021 231 q 1026 228 1026 217 q 1026 208 1021 204 q 1018 199 1016 197 q 1014 195 1009 192 q 1000 189 993 189 q 985 189 980 190 q 975 190 970 192 q 967 195 964 197 q 960 199 957 204 q 954 208 952 212 q 951 216 951 222 z m 1044 190 l 1044 283 l 1111 283 l 1111 274 l 1057 274 l 1057 244 l 1107 244 l 1107 234 l 1057 234 l 1057 202 l 1113 202 l 1113 190 z m 307 388 q 307 403 285 406 q 282 406 278 407 q 273 408 267 408 l 258 397 l 234 372 q 228 364 222 358 q 217 352 210 348 q 219 345 232 343 q 235 343 240 343 q 246 343 250 345 q 273 346 285 357 q 307 375 307 388 z m 324 433 q 324 439 316 439 q 313 439 291 432 l 274 417 q 271 414 268 408 l 294 412 q 300 412 310 420 q 324 429 324 433 z m 343 460 q 343 457 339 457 q 336 457 335 458 q 334 459 331 459 q 316 456 297 436 q 300 439 304 440 q 307 442 310 444 q 321 445 330 444 q 336 444 336 436 l 336 430 q 328 417 294 409 q 321 406 321 391 q 321 373 292 354 q 282 348 270 344 q 259 340 247 339 q 228 334 217 336 q 208 336 198 340 q 189 334 181 334 l 178 334 q 169 337 163 339 l 168 339 q 180 339 187 345 l 187 346 q 177 340 165 340 q 148 340 139 349 q 124 360 124 381 q 124 387 126 392 q 127 397 130 405 q 141 427 166 444 q 174 451 182 454 q 190 456 198 457 q 214 457 220 451 q 213 456 205 456 q 196 456 186 450 q 171 444 169 441 q 154 433 139 415 q 126 394 126 379 q 126 372 128 368 q 129 363 132 358 q 138 349 148 346 q 153 345 156 344 q 159 343 162 343 q 168 343 172 344 q 177 346 183 349 q 166 361 166 382 q 169 402 190 417 l 187 412 q 184 412 181 406 q 172 397 172 387 q 172 367 195 354 q 207 361 207 363 q 210 367 213 370 q 216 373 219 376 q 222 379 222 384 q 223 388 226 393 l 226 391 q 226 384 225 379 l 243 400 q 289 453 319 462 q 306 466 298 466 q 279 465 256 453 q 229 439 229 420 q 229 414 234 409 q 235 408 235 406 q 226 412 226 421 q 226 438 246 454 q 270 472 297 469 q 306 469 324 463 l 330 463 q 337 463 342 460 z m 346 363 q 345 357 334 346 q 324 340 316 340 q 309 340 309 349 q 309 357 318 369 l 316 369 q 315 367 310 367 q 310 367 309 369 q 313 369 324 379 l 325 379 l 330 385 q 334 390 334 393 l 339 393 q 343 393 343 391 q 343 385 334 375 l 324 364 q 315 351 315 346 q 315 342 321 342 q 328 342 339 357 q 340 358 342 359 q 343 360 346 363 z m 354 405 q 348 396 339 396 q 334 396 328 400 l 333 400 q 343 400 346 411 l 346 414 l 354 411 q 355 409 354 405 z m 406 433 q 406 426 360 370 l 358 370 q 345 354 345 345 q 345 340 349 340 q 358 340 369 355 q 370 357 372 358 q 373 358 375 361 q 375 354 363 345 q 355 339 346 339 q 337 340 337 348 q 336 355 367 394 l 385 417 l 394 426 q 399 432 402 441 q 406 438 406 433 z m 432 433 q 432 427 384 370 q 369 352 369 345 q 369 340 375 340 q 381 340 394 355 l 400 361 q 399 354 387 345 q 379 339 370 339 q 361 340 361 348 q 361 357 391 394 l 409 417 l 418 426 q 426 435 427 441 q 432 438 432 433 z m 403 333 q 379 328 366 315 q 355 301 355 298 q 355 292 361 292 q 363 291 372 294 q 375 297 378 300 q 382 304 387 309 z m 447 430 q 444 409 427 393 q 427 391 426 391 q 426 391 426 390 q 421 384 416 378 q 411 373 406 366 q 403 363 403 360 q 402 363 405 369 q 396 355 396 348 q 396 343 400 343 q 402 343 408 346 q 430 364 439 397 l 439 393 l 439 388 q 442 385 442 381 q 442 378 435 366 l 423 346 l 409 328 q 414 331 426 337 l 424 336 q 421 333 416 329 q 411 325 406 318 l 394 303 l 388 295 q 379 286 369 283 q 360 283 355 289 q 346 292 352 303 q 354 304 356 307 q 357 310 360 313 l 361 315 l 351 313 q 376 331 393 333 q 394 333 396 334 q 397 334 399 334 l 400 334 l 403 334 l 412 348 q 406 342 402 341 q 397 340 394 340 q 387 340 387 348 q 387 366 418 394 l 421 396 l 436 411 q 439 417 442 422 q 445 426 447 430 z m 618 453 q 609 456 603 456 q 588 456 575 452 q 562 448 549 441 q 543 438 539 434 q 535 430 531 427 q 549 426 579 408 q 612 441 636 450 z m 649 447 q 643 445 636 443 q 630 441 622 433 q 618 430 600 412 l 589 402 l 604 393 q 607 397 613 404 q 619 411 627 420 z m 663 472 q 663 471 661 469 q 661 459 657 448 l 658 447 l 657 447 q 649 429 637 417 l 613 388 q 616 387 618 387 q 619 387 622 385 q 622 382 621 382 q 618 382 616 383 q 615 384 612 385 q 594 366 592 349 q 589 343 589 340 q 589 334 595 334 q 607 334 621 354 l 627 363 q 642 384 646 400 l 646 405 q 646 403 648 402 l 648 400 q 645 379 633 361 l 613 322 q 613 328 618 342 q 600 328 591 328 q 577 328 580 346 q 580 355 586 366 q 592 378 601 391 l 586 399 l 573 385 q 568 379 560 370 q 552 361 540 346 q 516 322 498 322 l 493 322 q 489 322 480 327 q 480 327 483 327 q 496 324 510 337 q 498 331 481 331 q 465 331 454 339 l 456 339 q 441 349 441 370 q 441 385 447 393 q 456 417 481 433 q 490 441 498 443 q 507 445 516 447 q 531 447 537 441 l 535 441 q 532 444 522 444 q 507 444 484 430 q 468 418 456 405 q 442 384 442 367 q 442 343 465 336 q 474 333 478 333 q 510 334 547 375 l 576 405 q 553 418 525 418 l 523 418 q 520 412 520 405 q 522 405 528 396 q 517 402 517 411 q 517 415 519 418 q 504 415 499 412 q 472 402 475 381 q 475 367 484 357 l 487 354 q 469 372 469 385 q 469 405 487 418 q 502 429 525 429 q 546 453 577 457 q 585 459 601 459 q 609 459 624 456 l 642 451 l 651 451 l 652 450 q 658 460 661 475 l 663 475 z m 682 375 q 682 370 681 367 q 673 360 668 354 q 663 348 658 340 l 660 340 l 661 340 q 660 339 658 339 q 657 339 657 337 q 649 337 649 340 q 649 346 663 360 q 673 373 673 376 q 675 381 669 385 q 651 360 637 354 l 631 351 l 628 352 q 634 352 648 367 q 661 379 666 387 q 666 388 665 388 q 664 388 664 390 q 664 391 675 400 q 675 402 676 402 l 678 400 q 678 399 670 388 q 682 384 682 375 z m 726 379 q 726 388 720 385 q 714 385 711 382 q 706 379 697 367 q 688 355 688 348 q 687 345 691 345 q 700 348 706 355 q 712 367 712 372 q 712 375 711 375 q 717 375 717 367 l 715 364 q 718 367 720 371 q 723 375 726 378 z m 754 393 q 748 393 741 385 q 735 378 729 369 q 723 360 715 348 q 708 333 702 324 q 696 316 694 313 q 675 289 664 289 q 655 288 651 295 q 651 303 651 303 q 651 310 657 316 q 654 315 649 315 q 664 330 682 334 q 684 334 684 335 q 685 336 688 336 l 690 334 q 661 325 655 307 q 654 304 654 300 q 654 298 655 297 q 655 295 657 295 q 669 294 685 318 l 696 333 l 702 342 q 697 340 694 340 q 682 340 682 352 q 682 366 702 384 q 711 393 718 393 q 729 393 729 381 l 730 381 l 738 390 q 745 397 751 397 q 756 397 759 393 z m 781 382 q 781 373 765 364 q 763 363 762 363 l 760 363 q 756 363 751 370 q 754 367 759 367 q 769 373 772 384 l 772 387 l 772 388 l 772 390 q 766 390 753 376 l 753 375 q 748 369 748 365 q 747 361 747 358 q 745 360 745 367 q 742 361 741 357 q 738 351 738 346 q 738 345 739 343 q 739 340 745 340 q 760 346 771 355 q 774 358 778 361 q 775 357 772 353 q 769 349 762 345 q 750 337 741 340 q 741 339 739 340 q 730 340 730 349 q 730 364 747 379 q 756 393 771 393 q 774 393 775 391 q 781 387 781 382 z m 841 433 q 841 427 793 370 q 780 354 780 345 q 780 340 784 340 q 793 340 804 355 q 805 357 806 358 q 808 358 810 361 q 810 354 798 345 q 790 339 780 339 q 772 342 772 348 q 772 360 801 394 l 819 417 l 828 426 q 837 435 837 441 q 841 438 841 433 z m 922 387 q 897 396 895 415 q 888 411 880 407 q 873 403 868 399 q 840 372 840 349 q 840 340 844 339 l 847 339 l 850 339 q 873 339 892 354 q 898 360 906 368 q 915 375 922 387 z m 952 430 l 940 430 q 922 429 897 417 q 900 396 925 391 l 936 405 z m 979 457 q 960 457 944 454 q 928 451 916 444 q 924 451 935 456 q 946 460 960 463 q 930 465 907 445 q 903 442 897 430 q 907 433 917 434 q 927 436 939 435 q 942 435 946 435 q 951 435 958 433 q 961 438 966 444 q 972 450 979 457 z m 1074 459 q 1071 454 1067 450 q 1063 447 1056 444 q 1044 436 1033 436 l 1030 436 q 1029 436 1027 438 q 1029 439 1029 440 q 1029 442 1032 445 q 1018 456 994 456 l 988 448 l 973 430 q 985 429 996 428 q 1006 426 1015 426 q 1036 426 1044 430 q 1038 424 1021 421 q 1008 418 994 423 l 970 427 q 964 420 959 414 q 954 409 951 403 l 940 388 l 948 388 q 985 391 991 406 l 993 406 q 988 397 973 390 q 966 387 959 386 q 952 384 946 384 l 939 384 q 928 372 922 363 q 915 354 909 348 q 889 327 873 327 q 865 328 856 328 q 871 328 888 343 q 867 334 855 334 l 846 336 l 858 324 q 846 330 838 337 q 837 337 831 340 q 813 354 811 375 q 811 382 811 388 q 811 394 814 400 q 819 414 826 424 q 834 433 844 444 q 870 466 889 466 q 900 466 907 460 l 906 459 q 901 463 892 463 q 873 460 852 444 q 834 429 825 414 q 813 393 813 375 q 816 348 837 340 q 834 349 835 358 q 838 381 852 397 q 868 418 897 430 q 900 433 900 439 l 913 453 q 933 469 964 469 q 972 469 977 469 q 982 469 990 468 l 991 468 q 1002 475 1010 479 q 1018 483 1027 481 q 1033 481 1036 478 q 1020 475 1020 475 q 1017 474 1013 472 q 1009 471 1005 468 q 1011 466 1017 466 q 1023 465 1030 462 q 1045 457 1054 457 q 1068 457 1074 459 z m 982 354 q 978 358 978 364 q 978 367 978 370 q 979 372 979 375 q 964 355 966 346 q 966 343 969 343 q 972 343 982 354 z m 1002 385 q 1002 388 999 388 q 996 388 993 387 q 991 385 988 379 q 981 364 981 360 q 981 355 982 354 l 987 358 l 987 360 l 987 358 q 988 360 988 360 q 988 361 990 363 q 993 372 993 375 q 993 376 991 378 q 994 372 994 370 q 999 375 1002 385 z m 1008 381 q 1008 373 997 358 q 984 345 978 340 l 966 340 q 957 340 957 348 q 957 360 973 379 q 984 393 997 393 q 1008 393 1008 381 z m 1057 384 q 1059 381 1051 367 q 1042 355 1039 352 l 1021 336 q 1011 325 1008 313 q 1009 331 1021 345 q 1027 351 1030 356 q 1033 360 1036 366 q 1038 367 1039 372 l 1039 367 q 1039 367 1038 364 q 1041 367 1047 379 q 1047 381 1048 382 q 1048 382 1048 384 q 1048 391 1041 388 q 1041 388 1029 379 q 1026 372 1020 366 q 1015 361 1009 354 q 1002 345 1000 340 q 999 339 993 327 q 993 330 992 334 q 991 337 993 340 q 996 351 1006 361 l 1015 372 q 1023 382 1023 388 q 1023 390 1022 392 q 1021 393 1021 394 q 1030 391 1030 385 q 1039 393 1050 393 q 1056 390 1057 384 z m 1116 405 l 1093 405 q 1092 402 1084 393 q 1075 384 1063 367 q 1060 367 1057 360 q 1051 352 1051 345 q 1051 340 1054 340 q 1062 340 1075 355 l 1077 357 q 1078 358 1078 359 q 1078 360 1080 361 q 1080 354 1069 345 q 1062 339 1051 339 q 1044 342 1042 348 q 1042 351 1048 363 l 1066 384 l 1083 405 l 1057 408 q 1051 409 1042 409 l 1029 409 q 1011 409 993 402 l 991 402 q 1006 417 1038 417 q 1039 417 1050 414 q 1062 412 1083 409 l 1087 408 q 1092 415 1096 420 q 1099 426 1102 430 q 1105 429 1105 423 q 1105 418 1102 415 l 1096 406 l 1108 405 l 1117 405 l 1119 405 l 1123 405 z m 1126 385 q 1126 381 1116 376 l 1114 375 q 1119 379 1119 387 l 1119 393 l 1114 393 q 1107 393 1105 387 q 1105 384 1110 361 q 1111 340 1086 340 q 1072 340 1069 349 q 1068 351 1068 354 q 1068 366 1086 369 l 1092 367 l 1089 367 q 1083 367 1080 364 q 1075 357 1075 354 q 1075 342 1087 342 q 1099 342 1099 358 q 1099 366 1098 370 q 1096 375 1096 381 q 1096 396 1110 396 q 1113 396 1114 395 q 1116 394 1119 394 q 1125 391 1125 390 q 1126 388 1126 385 z"},"J":{"x_min":0,"x_max":622,"ha":622,"o":"m 557 -62 q 531 -48 504 -36 q 476 -23 447 -14 q 400 -173 340 -316 q 280 -458 210 -565 q 140 -672 62 -735 q -16 -798 -98 -798 q -195 -798 -262 -743 q -328 -688 -355 -598 q -380 -515 -374 -436 q -367 -356 -336 -284 q -306 -213 -254 -152 q -203 -91 -139 -45 q -75 1 -2 30 q 71 58 147 65 q 233 73 319 60 q 361 207 393 356 q 425 506 442 642 q 459 777 460 890 q 461 1002 442 1074 q 437 1095 424 1107 q 412 1119 392 1121 q 377 1122 345 1110 q 313 1097 270 1065 q 246 1045 218 1014 q 191 983 168 943 q 144 903 127 856 q 110 810 106 759 q 101 708 112 656 q 124 603 157 552 l 181 516 q 186 510 188 505 q 190 500 181 499 q 169 498 146 502 q 123 506 98 521 q 72 536 47 564 q 22 593 7 641 q -10 692 -6 752 q -1 811 18 872 q 38 933 75 989 q 112 1045 158 1090 q 205 1134 262 1160 q 319 1186 381 1186 q 421 1186 451 1176 q 481 1166 501 1150 q 521 1134 534 1111 q 546 1088 552 1062 q 574 966 576 845 q 579 724 566 588 q 553 452 526 308 q 498 164 459 23 q 487 13 514 0 q 540 -12 565 -30 q 583 -42 602 -57 q 622 -72 640 -88 q 659 -105 674 -124 q 688 -142 695 -159 q 702 -179 699 -184 q 696 -189 676 -165 q 646 -130 616 -104 q 585 -79 557 -62 z m -117 -733 q -64 -732 -8 -671 q 48 -610 103 -508 q 158 -406 210 -272 q 262 -137 305 12 q 267 16 230 16 q 193 16 157 13 q 95 9 34 -21 q -27 -51 -82 -98 q -137 -146 -184 -206 q -230 -267 -260 -333 q -291 -399 -304 -466 q -316 -532 -304 -592 q -298 -620 -283 -646 q -268 -672 -244 -692 q -221 -712 -189 -724 q -157 -735 -117 -733 z"},"V":{"x_min":0,"x_max":743,"ha":743,"o":"m 1238 1503 q 1272 1505 1309 1500 q 1346 1495 1380 1474 q 1397 1464 1408 1454 q 1419 1443 1422 1436 q 1424 1429 1416 1426 q 1409 1423 1390 1427 q 1303 1447 1227 1416 q 1151 1384 1084 1318 q 1016 1252 958 1156 q 900 1061 850 951 q 801 841 760 724 q 718 607 685 496 q 652 385 626 288 q 600 191 581 122 q 562 51 552 2 q 541 -47 540 -60 q 540 -79 528 -76 q 516 -74 500 -58 q 483 -42 464 -14 q 444 13 428 43 q 412 73 402 102 q 393 130 396 151 q 397 155 400 186 q 404 217 409 266 q 414 316 419 381 q 424 446 428 517 q 431 588 432 660 q 433 733 430 800 q 428 867 420 924 q 413 981 399 1019 q 389 1045 376 1052 q 364 1058 348 1054 q 306 1045 256 1015 q 207 985 159 942 q 111 898 67 844 q 23 789 -8 731 q -40 673 -56 614 q -73 556 -66 504 q -68 494 -74 497 q -81 500 -87 511 q -96 528 -109 552 q -122 576 -134 605 q -146 634 -153 666 q -160 699 -159 733 q -158 764 -133 807 q -108 850 -66 896 q -25 942 29 986 q 83 1031 144 1064 q 205 1096 269 1112 q 333 1127 393 1117 q 434 1109 464 1075 q 493 1041 512 987 q 537 920 546 836 q 555 753 554 664 q 554 575 547 486 q 540 398 533 323 q 526 248 520 193 q 515 138 518 116 q 545 243 574 394 q 604 545 643 696 q 682 848 734 990 q 785 1131 856 1243 q 927 1355 1021 1425 q 1115 1495 1238 1503 z"},"7":{"x_min":0,"x_max":1219,"ha":1219,"o":"m 876 781 l 739 657 l 775 471 l 615 565 l 450 471 l 489 652 l 351 781 l 537 801 l 615 972 l 690 802 z m 682 576 l 639 834 l 586 834 l 541 576 l 564 562 l 583 576 l 592 634 l 631 634 l 642 576 l 663 562 z m 628 672 l 598 672 l 612 774 z m 610 21 l 631 21 l 624 39 q 622 42 622 44 q 622 46 619 49 q 619 45 616 39 z m 352 -5 l 352 3 l 363 3 l 363 -5 z m 844 -5 l 844 58 l 852 58 l 852 1 l 883 1 l 883 -5 z m 787 -5 l 787 58 l 832 58 l 832 49 l 795 49 l 795 30 l 829 30 l 829 22 l 795 22 l 795 1 l 832 1 l 832 -5 z m 565 -5 l 565 21 l 541 58 l 552 58 l 564 39 q 567 30 570 28 q 571 30 572 33 q 574 36 577 39 l 589 58 l 598 58 l 573 21 l 573 -5 z m 376 -5 l 376 58 l 400 58 q 403 58 406 56 q 408 55 409 55 q 415 54 417 49 q 420 46 420 40 q 420 36 417 34 q 415 28 411 28 q 415 27 420 22 q 423 16 423 13 q 423 10 422 8 q 421 7 421 6 q 420 0 415 0 q 414 -3 412 -3 q 411 -3 409 -5 l 400 -5 z m 205 -5 l 187 58 l 196 58 l 205 16 q 207 12 207 9 q 207 6 208 3 q 210 10 210 15 l 222 58 l 232 58 l 241 25 q 243 18 244 14 q 246 9 246 3 q 247 6 247 9 q 247 12 249 16 l 259 58 l 267 58 l 249 -5 l 241 -5 l 229 42 q 228 46 228 49 q 226 46 226 42 l 213 -5 z m 123 -5 l 105 58 l 115 58 l 123 16 q 123 9 127 3 q 129 10 129 15 l 141 58 l 150 58 l 160 25 q 162 18 162 14 q 163 9 163 3 q 166 6 166 9 q 166 12 168 16 l 177 58 l 186 58 l 168 -5 l 160 -5 l 148 42 q 147 46 147 49 q 144 46 144 42 l 130 -5 z m 384 30 l 397 30 q 403 30 405 33 q 409 33 409 34 q 411 36 411 40 q 411 45 409 46 l 408 46 q 406 46 406 47 q 406 48 405 48 q 403 49 396 49 l 384 49 z m 285 -5 l 268 58 l 277 58 l 286 16 q 288 12 288 9 q 288 6 291 3 q 291 9 292 11 q 292 13 292 15 l 304 58 l 313 58 l 324 25 q 325 18 326 14 q 327 9 327 3 q 330 6 330 9 q 330 12 331 16 l 342 58 l 349 58 l 331 -5 l 324 -5 l 312 42 q 310 46 310 49 q 307 46 307 42 l 294 -5 z m 664 28 l 682 28 q 685 28 688 29 q 690 30 693 30 q 696 30 696 34 q 697 36 697 40 q 697 45 694 48 q 693 49 684 49 l 664 49 z m 384 1 l 400 1 q 403 1 405 3 l 409 3 q 411 6 414 7 l 414 13 q 414 16 411 19 q 411 22 408 22 l 397 22 l 384 22 z m 435 -5 l 435 58 l 442 58 l 442 -5 z m 985 25 q 985 12 990 7 q 996 1 1006 1 q 1017 1 1021 7 q 1027 12 1027 27 q 1027 34 1026 39 q 1023 46 1018 48 q 1014 49 1006 49 q 997 49 993 45 q 985 39 985 25 z m 976 25 q 976 42 985 49 q 991 58 1006 58 q 1011 58 1014 56 q 1018 55 1021 54 q 1026 52 1028 49 q 1030 46 1033 42 q 1035 39 1035 27 q 1035 13 1032 9 q 1027 1 1021 -3 q 1015 -6 1006 -6 q 1002 -6 998 -6 q 994 -5 990 -3 q 987 0 984 3 q 982 6 981 9 q 979 13 978 17 q 976 21 976 25 z m 592 -5 l 616 58 l 625 58 l 651 -5 l 642 -5 l 634 13 l 609 13 l 600 -5 z m 459 -5 l 459 58 l 466 58 l 466 1 l 495 1 l 495 -5 z m 892 -5 l 892 3 l 903 3 l 903 -5 z m 748 19 l 748 27 l 774 27 l 774 3 q 768 -3 762 -5 q 759 -5 755 -6 q 751 -6 748 -6 q 739 -6 733 -3 q 729 0 726 2 q 723 4 721 9 q 720 13 718 17 q 717 21 717 25 q 717 31 718 34 q 720 37 721 42 q 724 51 732 54 q 735 55 740 56 q 744 58 748 58 q 756 58 760 55 q 766 54 768 49 q 772 45 774 40 l 766 39 q 766 40 762 45 q 762 48 756 49 l 748 49 l 739 49 q 735 48 732 45 q 732 43 727 39 q 727 36 726 33 q 726 30 726 27 q 726 16 729 13 q 735 4 736 3 q 741 1 748 1 q 754 1 759 3 q 762 6 764 6 q 765 6 766 7 l 766 19 z m 657 -5 l 657 58 l 684 58 q 688 58 691 56 q 694 55 697 55 q 702 54 703 49 q 706 46 706 40 q 706 33 702 28 q 700 27 696 26 q 693 25 688 22 q 691 22 692 22 q 693 21 694 21 q 696 18 696 16 q 697 13 700 10 l 712 -5 l 702 -5 l 693 7 q 690 10 689 12 q 688 15 687 16 q 687 19 686 19 q 684 19 682 21 l 681 21 q 679 21 679 22 q 679 22 678 22 l 675 22 l 664 22 l 664 -5 z m 505 -5 l 505 58 l 514 58 l 514 1 l 544 1 l 544 -5 z m 961 16 l 969 15 q 966 3 960 0 q 954 -6 943 -6 q 934 -6 928 -3 q 924 0 922 3 q 921 6 918 9 q 915 21 915 27 q 915 33 918 45 q 925 52 928 54 q 933 55 936 56 q 939 58 943 58 q 948 58 952 56 q 957 55 960 54 q 963 51 965 48 q 967 45 969 40 l 960 39 q 960 45 954 48 q 951 49 943 49 q 934 49 931 48 q 928 46 928 44 q 927 42 924 39 q 924 36 923 33 q 922 30 922 27 q 922 18 927 13 q 927 10 928 8 q 930 6 931 3 q 936 1 943 1 q 951 1 955 6 q 960 10 961 16 z m 1047 -5 l 1047 58 l 1059 58 l 1074 13 q 1074 10 1076 8 q 1077 6 1077 3 q 1077 4 1080 13 l 1093 58 l 1105 58 l 1105 -5 l 1098 -5 l 1098 46 l 1080 -5 l 1072 -5 l 1054 48 l 1054 -5 z m 610 21 l 631 21 l 624 39 q 622 42 622 44 q 622 46 619 49 q 619 45 616 39 z m 352 -5 l 352 3 l 363 3 l 363 -5 z m 844 -5 l 844 58 l 852 58 l 852 1 l 883 1 l 883 -5 z m 787 -5 l 787 58 l 832 58 l 832 49 l 795 49 l 795 30 l 829 30 l 829 22 l 795 22 l 795 1 l 832 1 l 832 -5 z m 565 -5 l 565 21 l 541 58 l 552 58 l 564 39 q 567 30 570 28 q 571 30 572 33 q 574 36 577 39 l 589 58 l 598 58 l 573 21 l 573 -5 z m 376 -5 l 376 58 l 400 58 q 403 58 406 56 q 408 55 409 55 q 415 54 417 49 q 420 46 420 40 q 420 36 417 34 q 415 28 411 28 q 415 27 420 22 q 423 16 423 13 q 423 10 422 8 q 421 7 421 6 q 420 0 415 0 q 414 -3 412 -3 q 411 -3 409 -5 l 400 -5 z m 205 -5 l 187 58 l 196 58 l 205 16 q 207 12 207 9 q 207 6 208 3 q 210 10 210 15 l 222 58 l 232 58 l 241 25 q 243 18 244 14 q 246 9 246 3 q 247 6 247 9 q 247 12 249 16 l 259 58 l 267 58 l 249 -5 l 241 -5 l 229 42 q 228 46 228 49 q 226 46 226 42 l 213 -5 z m 123 -5 l 105 58 l 115 58 l 123 16 q 123 9 127 3 q 129 10 129 15 l 141 58 l 150 58 l 160 25 q 162 18 162 14 q 163 9 163 3 q 166 6 166 9 q 166 12 168 16 l 177 58 l 186 58 l 168 -5 l 160 -5 l 148 42 q 147 46 147 49 q 144 46 144 42 l 130 -5 z m 384 30 l 397 30 q 403 30 405 33 q 409 33 409 34 q 411 36 411 40 q 411 45 409 46 l 408 46 q 406 46 406 47 q 406 48 405 48 q 403 49 396 49 l 384 49 z m 285 -5 l 268 58 l 277 58 l 286 16 q 288 12 288 9 q 288 6 291 3 q 291 9 292 11 q 292 13 292 15 l 304 58 l 313 58 l 324 25 q 325 18 326 14 q 327 9 327 3 q 330 6 330 9 q 330 12 331 16 l 342 58 l 349 58 l 331 -5 l 324 -5 l 312 42 q 310 46 310 49 q 307 46 307 42 l 294 -5 z m 664 28 l 682 28 q 685 28 688 29 q 690 30 693 30 q 696 30 696 34 q 697 36 697 40 q 697 45 694 48 q 693 49 684 49 l 664 49 z m 384 1 l 400 1 q 403 1 405 3 l 409 3 q 411 6 414 7 l 414 13 q 414 16 411 19 q 411 22 408 22 l 397 22 l 384 22 z m 435 -5 l 435 58 l 442 58 l 442 -5 z m 985 25 q 985 12 990 7 q 996 1 1006 1 q 1017 1 1021 7 q 1027 12 1027 27 q 1027 34 1026 39 q 1023 46 1018 48 q 1014 49 1006 49 q 997 49 993 45 q 985 39 985 25 z m 976 25 q 976 42 985 49 q 991 58 1006 58 q 1011 58 1014 56 q 1018 55 1021 54 q 1026 52 1028 49 q 1030 46 1033 42 q 1035 39 1035 27 q 1035 13 1032 9 q 1027 1 1021 -3 q 1015 -6 1006 -6 q 1002 -6 998 -6 q 994 -5 990 -3 q 987 0 984 3 q 982 6 981 9 q 979 13 978 17 q 976 21 976 25 z m 592 -5 l 616 58 l 625 58 l 651 -5 l 642 -5 l 634 13 l 609 13 l 600 -5 z m 459 -5 l 459 58 l 466 58 l 466 1 l 495 1 l 495 -5 z m 892 -5 l 892 3 l 903 3 l 903 -5 z m 748 19 l 748 27 l 774 27 l 774 3 q 768 -3 762 -5 q 759 -5 755 -6 q 751 -6 748 -6 q 739 -6 733 -3 q 729 0 726 2 q 723 4 721 9 q 720 13 718 17 q 717 21 717 25 q 717 31 718 34 q 720 37 721 42 q 724 51 732 54 q 735 55 740 56 q 744 58 748 58 q 756 58 760 55 q 766 54 768 49 q 772 45 774 40 l 766 39 q 766 40 762 45 q 762 48 756 49 l 748 49 l 739 49 q 735 48 732 45 q 732 43 727 39 q 727 36 726 33 q 726 30 726 27 q 726 16 729 13 q 735 4 736 3 q 741 1 748 1 q 754 1 759 3 q 762 6 764 6 q 765 6 766 7 l 766 19 z m 657 -5 l 657 58 l 684 58 q 688 58 691 56 q 694 55 697 55 q 702 54 703 49 q 706 46 706 40 q 706 33 702 28 q 700 27 696 26 q 693 25 688 22 q 691 22 692 22 q 693 21 694 21 q 696 18 696 16 q 697 13 700 10 l 712 -5 l 702 -5 l 693 7 q 690 10 689 12 q 688 15 687 16 q 687 19 686 19 q 684 19 682 21 l 681 21 q 679 21 679 22 q 679 22 678 22 l 675 22 l 664 22 l 664 -5 z m 505 -5 l 505 58 l 514 58 l 514 1 l 544 1 l 544 -5 z m 961 16 l 969 15 q 966 3 960 0 q 954 -6 943 -6 q 934 -6 928 -3 q 924 0 922 3 q 921 6 918 9 q 915 21 915 27 q 915 33 918 45 q 925 52 928 54 q 933 55 936 56 q 939 58 943 58 q 948 58 952 56 q 957 55 960 54 q 963 51 965 48 q 967 45 969 40 l 960 39 q 960 45 954 48 q 951 49 943 49 q 934 49 931 48 q 928 46 928 44 q 927 42 924 39 q 924 36 923 33 q 922 30 922 27 q 922 18 927 13 q 927 10 928 8 q 930 6 931 3 q 936 1 943 1 q 951 1 955 6 q 960 10 961 16 z m 1047 -5 l 1047 58 l 1059 58 l 1074 13 q 1074 10 1076 8 q 1077 6 1077 3 q 1077 4 1080 13 l 1093 58 l 1105 58 l 1105 -5 l 1098 -5 l 1098 46 l 1080 -5 l 1072 -5 l 1054 48 l 1054 -5 z m 610 21 l 631 21 l 624 39 q 622 42 622 44 q 622 46 619 49 q 619 45 616 39 z m 352 -5 l 352 3 l 363 3 l 363 -5 z m 844 -5 l 844 58 l 852 58 l 852 1 l 883 1 l 883 -5 z m 787 -5 l 787 58 l 832 58 l 832 49 l 795 49 l 795 30 l 829 30 l 829 22 l 795 22 l 795 1 l 832 1 l 832 -5 z m 565 -5 l 565 21 l 541 58 l 552 58 l 564 39 q 567 30 570 28 q 571 30 572 33 q 574 36 577 39 l 589 58 l 598 58 l 573 21 l 573 -5 z m 376 -5 l 376 58 l 400 58 q 403 58 406 56 q 408 55 409 55 q 415 54 417 49 q 420 46 420 40 q 420 36 417 34 q 415 28 411 28 q 415 27 420 22 q 423 16 423 13 q 423 10 422 8 q 421 7 421 6 q 420 0 415 0 q 414 -3 412 -3 q 411 -3 409 -5 l 400 -5 z m 205 -5 l 187 58 l 196 58 l 205 16 q 207 12 207 9 q 207 6 208 3 q 210 10 210 15 l 222 58 l 232 58 l 241 25 q 243 18 244 14 q 246 9 246 3 q 247 6 247 9 q 247 12 249 16 l 259 58 l 267 58 l 249 -5 l 241 -5 l 229 42 q 228 46 228 49 q 226 46 226 42 l 213 -5 z m 123 -5 l 105 58 l 115 58 l 123 16 q 123 9 127 3 q 129 10 129 15 l 141 58 l 150 58 l 160 25 q 162 18 162 14 q 163 9 163 3 q 166 6 166 9 q 166 12 168 16 l 177 58 l 186 58 l 168 -5 l 160 -5 l 148 42 q 147 46 147 49 q 144 46 144 42 l 130 -5 z m 384 30 l 397 30 q 403 30 405 33 q 409 33 409 34 q 411 36 411 40 q 411 45 409 46 l 408 46 q 406 46 406 47 q 406 48 405 48 q 403 49 396 49 l 384 49 z m 285 -5 l 268 58 l 277 58 l 286 16 q 288 12 288 9 q 288 6 291 3 q 291 9 292 11 q 292 13 292 15 l 304 58 l 313 58 l 324 25 q 325 18 326 14 q 327 9 327 3 q 330 6 330 9 q 330 12 331 16 l 342 58 l 349 58 l 331 -5 l 324 -5 l 312 42 q 310 46 310 49 q 307 46 307 42 l 294 -5 z m 664 28 l 682 28 q 685 28 688 29 q 690 30 693 30 q 696 30 696 34 q 697 36 697 40 q 697 45 694 48 q 693 49 684 49 l 664 49 z m 384 1 l 400 1 q 403 1 405 3 l 409 3 q 411 6 414 7 l 414 13 q 414 16 411 19 q 411 22 408 22 l 397 22 l 384 22 z m 435 -5 l 435 58 l 442 58 l 442 -5 z m 985 25 q 985 12 990 7 q 996 1 1006 1 q 1017 1 1021 7 q 1027 12 1027 27 q 1027 34 1026 39 q 1023 46 1018 48 q 1014 49 1006 49 q 997 49 993 45 q 985 39 985 25 z m 976 25 q 976 42 985 49 q 991 58 1006 58 q 1011 58 1014 56 q 1018 55 1021 54 q 1026 52 1028 49 q 1030 46 1033 42 q 1035 39 1035 27 q 1035 13 1032 9 q 1027 1 1021 -3 q 1015 -6 1006 -6 q 1002 -6 998 -6 q 994 -5 990 -3 q 987 0 984 3 q 982 6 981 9 q 979 13 978 17 q 976 21 976 25 z m 592 -5 l 616 58 l 625 58 l 651 -5 l 642 -5 l 634 13 l 609 13 l 600 -5 z m 459 -5 l 459 58 l 466 58 l 466 1 l 495 1 l 495 -5 z m 892 -5 l 892 3 l 903 3 l 903 -5 z m 748 19 l 748 27 l 774 27 l 774 3 q 768 -3 762 -5 q 759 -5 755 -6 q 751 -6 748 -6 q 739 -6 733 -3 q 729 0 726 2 q 723 4 721 9 q 720 13 718 17 q 717 21 717 25 q 717 31 718 34 q 720 37 721 42 q 724 51 732 54 q 735 55 740 56 q 744 58 748 58 q 756 58 760 55 q 766 54 768 49 q 772 45 774 40 l 766 39 q 766 40 762 45 q 762 48 756 49 l 748 49 l 739 49 q 735 48 732 45 q 732 43 727 39 q 727 36 726 33 q 726 30 726 27 q 726 16 729 13 q 735 4 736 3 q 741 1 748 1 q 754 1 759 3 q 762 6 764 6 q 765 6 766 7 l 766 19 z m 657 -5 l 657 58 l 684 58 q 688 58 691 56 q 694 55 697 55 q 702 54 703 49 q 706 46 706 40 q 706 33 702 28 q 700 27 696 26 q 693 25 688 22 q 691 22 692 22 q 693 21 694 21 q 696 18 696 16 q 697 13 700 10 l 712 -5 l 702 -5 l 693 7 q 690 10 689 12 q 688 15 687 16 q 687 19 686 19 q 684 19 682 21 l 681 21 q 679 21 679 22 q 679 22 678 22 l 675 22 l 664 22 l 664 -5 z m 505 -5 l 505 58 l 514 58 l 514 1 l 544 1 l 544 -5 z m 961 16 l 969 15 q 966 3 960 0 q 954 -6 943 -6 q 934 -6 928 -3 q 924 0 922 3 q 921 6 918 9 q 915 21 915 27 q 915 33 918 45 q 925 52 928 54 q 933 55 936 56 q 939 58 943 58 q 948 58 952 56 q 957 55 960 54 q 963 51 965 48 q 967 45 969 40 l 960 39 q 960 45 954 48 q 951 49 943 49 q 934 49 931 48 q 928 46 928 44 q 927 42 924 39 q 924 36 923 33 q 922 30 922 27 q 922 18 927 13 q 927 10 928 8 q 930 6 931 3 q 936 1 943 1 q 951 1 955 6 q 960 10 961 16 z m 1047 -5 l 1047 58 l 1059 58 l 1074 13 q 1074 10 1076 8 q 1077 6 1077 3 q 1077 4 1080 13 l 1093 58 l 1105 58 l 1105 -5 l 1098 -5 l 1098 46 l 1080 -5 l 1072 -5 l 1054 48 l 1054 -5 z m 175 111 l 187 106 q 184 93 174 84 q 162 75 148 75 q 135 75 123 81 q 111 90 109 99 q 103 109 103 124 q 103 141 109 151 q 114 162 124 166 q 135 172 148 172 q 165 172 171 165 q 181 162 186 145 l 174 144 q 168 156 163 157 q 157 163 148 163 q 136 163 130 157 q 121 151 118 144 q 117 138 117 124 q 117 111 121 105 q 124 94 130 91 q 138 85 147 85 q 159 85 166 93 q 169 96 172 100 q 174 105 175 111 z m 199 123 q 199 135 202 144 q 205 153 213 159 q 219 166 227 169 q 235 172 244 172 q 258 172 268 166 q 277 162 285 150 q 291 135 291 124 q 291 117 290 111 q 288 105 285 99 q 277 87 267 81 q 255 75 244 75 q 237 75 232 76 q 226 78 220 81 q 210 87 205 99 q 199 109 199 123 z m 213 123 q 213 105 220 94 q 231 85 244 85 q 259 85 267 97 q 277 108 277 124 q 277 130 276 134 q 274 139 273 144 q 270 154 261 157 q 256 163 244 163 q 232 163 222 153 q 213 145 213 123 z m 306 78 l 306 171 l 324 171 l 346 105 q 351 96 351 91 q 354 94 357 106 l 381 171 l 396 171 l 396 78 l 384 78 l 384 156 l 357 78 l 345 78 l 318 157 l 318 78 z m 417 78 l 417 171 l 453 171 l 466 171 q 474 171 478 166 q 480 165 486 157 q 487 154 488 151 q 489 148 489 144 q 489 135 481 124 q 474 117 453 117 l 429 117 l 429 78 z m 429 126 l 454 126 q 468 126 469 132 q 475 133 475 144 q 475 151 474 153 q 468 159 463 159 q 462 162 453 162 l 429 162 z m 505 78 l 505 171 l 517 171 l 517 87 l 564 87 l 564 78 z m 579 78 l 579 171 l 648 171 l 648 162 l 591 162 l 591 132 l 643 132 l 643 120 l 591 120 l 591 87 l 649 87 l 649 78 z m 690 78 l 690 162 l 658 162 l 658 171 l 735 171 l 735 162 l 703 162 l 703 78 z m 748 78 l 748 171 l 817 171 l 817 162 l 760 162 l 760 132 l 813 132 l 813 120 l 760 120 l 760 87 l 819 87 l 819 78 z m 870 106 l 882 108 q 882 100 885 97 q 888 91 895 88 q 898 87 909 87 q 912 87 916 87 q 919 87 922 88 q 927 88 930 94 q 931 97 931 103 q 931 108 930 111 q 928 112 926 113 q 924 114 921 117 q 919 117 904 120 q 897 123 892 124 q 888 124 885 126 q 879 129 876 136 q 873 138 872 141 q 871 144 871 147 q 871 156 877 162 q 879 165 882 166 q 885 168 889 171 q 892 172 907 172 q 918 172 924 169 q 928 166 931 164 q 934 163 936 159 q 942 154 942 145 l 930 144 q 927 156 922 157 q 918 162 907 162 q 892 162 889 157 q 885 153 885 147 q 885 142 889 139 q 889 139 907 132 q 915 130 920 128 q 925 127 928 126 q 933 124 935 122 q 937 120 940 117 q 943 112 943 103 q 943 93 940 88 q 934 82 928 79 q 924 78 920 76 q 915 75 909 75 q 903 75 897 76 q 891 78 888 79 q 880 81 873 91 q 870 97 870 106 z m 961 78 l 961 171 l 1029 171 l 1029 162 l 975 162 l 975 132 l 1027 132 l 1027 120 l 975 120 l 975 87 l 1032 87 l 1032 78 z m 1074 78 l 1074 162 l 1044 162 l 1044 171 l 1117 171 l 1117 162 l 1086 162 l 1086 78 z m 112 190 l 112 283 l 150 283 l 163 283 q 166 283 175 280 q 177 279 179 276 q 181 273 183 270 q 186 267 186 259 q 186 246 177 237 q 172 229 150 229 l 127 229 l 127 190 z m 127 241 l 150 241 q 163 241 168 244 q 174 250 174 256 q 174 259 172 262 q 171 265 169 268 q 165 273 162 273 q 160 274 150 274 l 127 274 z m 201 190 l 201 283 l 268 283 l 268 274 l 214 274 l 214 244 l 265 244 l 265 234 l 214 234 l 214 202 l 271 202 l 271 190 z m 288 190 l 288 283 l 331 283 q 345 283 351 282 q 358 279 361 274 q 364 262 364 259 q 364 249 358 243 q 352 237 337 234 q 340 231 342 231 q 343 231 345 229 q 352 222 355 216 l 372 190 l 357 190 l 343 210 q 342 214 340 217 q 337 220 336 223 q 333 225 332 227 q 331 229 330 229 q 327 231 324 231 q 322 234 316 234 l 303 234 l 303 190 z m 303 243 l 327 243 q 339 243 342 244 q 346 249 349 250 q 351 253 351 259 q 351 265 346 270 q 342 274 331 274 l 303 274 z m 381 222 l 391 222 q 391 219 392 216 q 394 213 396 210 q 397 208 400 206 q 402 204 405 204 q 414 201 420 201 q 423 201 426 201 q 429 201 430 202 q 439 205 441 208 q 441 210 442 212 q 442 214 442 216 q 442 222 441 223 q 436 226 430 229 q 429 231 425 231 q 421 231 415 234 q 402 235 396 240 q 388 246 385 249 q 384 253 384 261 q 384 264 384 268 q 385 271 388 274 q 390 280 400 283 q 403 286 417 286 q 429 286 435 283 q 444 279 447 273 q 453 264 453 259 l 441 256 q 438 267 433 270 q 427 276 417 276 q 405 276 400 270 q 396 267 396 261 q 396 255 400 253 q 402 250 417 247 q 430 241 439 241 q 442 238 445 236 q 448 234 450 231 q 454 226 454 217 q 454 210 450 204 q 447 199 444 197 q 442 195 439 192 q 427 189 420 189 q 409 189 397 192 q 393 195 390 197 q 387 199 384 204 q 382 208 382 212 q 381 216 381 222 z m 468 237 q 468 258 480 273 q 493 286 513 286 q 519 286 524 284 q 529 283 537 280 q 543 277 546 272 q 549 268 552 262 q 558 252 558 237 q 558 223 552 211 q 546 201 537 195 q 525 189 513 189 q 499 189 489 196 q 475 204 474 214 q 468 222 468 237 z m 480 237 q 480 219 489 210 q 498 201 513 201 q 528 201 537 210 q 544 220 544 237 q 544 243 544 249 q 543 255 540 259 q 535 267 531 270 q 523 276 513 276 q 505 276 500 274 q 496 271 489 267 q 480 258 480 237 z m 573 190 l 573 283 l 586 283 l 636 211 l 636 283 l 648 283 l 648 190 l 636 190 l 585 264 l 585 190 z m 658 190 l 694 283 l 708 283 l 747 190 l 732 190 l 721 220 l 682 220 l 670 190 z m 684 229 l 717 229 l 708 255 q 705 261 704 266 q 702 271 700 274 q 700 270 698 266 q 697 261 696 256 z m 754 190 l 754 283 l 768 283 l 768 202 l 814 202 l 814 190 z m 922 283 l 934 283 l 934 231 q 934 214 931 208 q 928 199 921 195 q 913 189 898 189 q 883 189 877 195 q 873 196 870 200 q 867 204 864 208 q 862 211 862 231 l 862 283 l 873 283 l 873 231 q 873 216 876 211 q 879 205 883 204 q 886 202 889 202 q 892 201 897 201 q 909 201 916 205 q 922 211 922 231 z m 951 222 l 963 222 q 963 219 964 216 q 966 213 967 210 q 969 208 971 206 q 973 204 976 204 q 985 201 990 201 q 1000 201 1005 202 q 1008 204 1012 208 q 1014 210 1014 216 q 1014 222 1012 223 q 1009 225 1008 226 q 1008 228 1005 229 q 1002 231 998 231 q 993 231 987 234 q 981 235 976 236 q 970 237 969 240 q 961 243 960 249 q 955 253 955 261 q 955 267 960 274 q 961 280 970 283 q 976 286 988 286 q 993 286 998 286 q 1003 286 1006 283 q 1015 279 1020 273 q 1021 270 1022 266 q 1024 262 1024 259 l 1012 256 q 1009 261 1008 264 q 1008 268 1005 270 q 1000 276 988 276 q 975 276 973 270 q 967 268 967 261 q 967 256 970 253 q 973 250 988 247 q 1005 241 1009 241 q 1014 238 1017 236 q 1020 234 1021 231 q 1026 228 1026 217 q 1026 208 1021 204 q 1018 199 1016 197 q 1014 195 1009 192 q 1000 189 993 189 q 985 189 980 190 q 975 190 970 192 q 967 195 964 197 q 960 199 957 204 q 954 208 952 212 q 951 216 951 222 z m 1044 190 l 1044 283 l 1111 283 l 1111 274 l 1057 274 l 1057 244 l 1107 244 l 1107 234 l 1057 234 l 1057 202 l 1113 202 l 1113 190 z m 307 388 q 307 403 285 406 q 282 406 278 407 q 273 408 267 408 l 258 397 l 234 372 q 228 364 222 358 q 217 352 210 348 q 219 345 232 343 q 235 343 240 343 q 246 343 250 345 q 273 346 285 357 q 307 375 307 388 z m 324 433 q 324 439 316 439 q 313 439 291 432 l 274 417 q 271 414 268 408 l 294 412 q 300 412 310 420 q 324 429 324 433 z m 343 460 q 343 457 339 457 q 336 457 335 458 q 334 459 331 459 q 316 456 297 436 q 300 439 304 440 q 307 442 310 444 q 321 445 330 444 q 336 444 336 436 l 336 430 q 328 417 294 409 q 321 406 321 391 q 321 373 292 354 q 282 348 270 344 q 259 340 247 339 q 228 334 217 336 q 208 336 198 340 q 189 334 181 334 l 178 334 q 169 337 163 339 l 168 339 q 180 339 187 345 l 187 346 q 177 340 165 340 q 148 340 139 349 q 124 360 124 381 q 124 387 126 392 q 127 397 130 405 q 141 427 166 444 q 174 451 182 454 q 190 456 198 457 q 214 457 220 451 q 213 456 205 456 q 196 456 186 450 q 171 444 169 441 q 154 433 139 415 q 126 394 126 379 q 126 372 128 368 q 129 363 132 358 q 138 349 148 346 q 153 345 156 344 q 159 343 162 343 q 168 343 172 344 q 177 346 183 349 q 166 361 166 382 q 169 402 190 417 l 187 412 q 184 412 181 406 q 172 397 172 387 q 172 367 195 354 q 207 361 207 363 q 210 367 213 370 q 216 373 219 376 q 222 379 222 384 q 223 388 226 393 l 226 391 q 226 384 225 379 l 243 400 q 289 453 319 462 q 306 466 298 466 q 279 465 256 453 q 229 439 229 420 q 229 414 234 409 q 235 408 235 406 q 226 412 226 421 q 226 438 246 454 q 270 472 297 469 q 306 469 324 463 l 330 463 q 337 463 342 460 z m 346 363 q 345 357 334 346 q 324 340 316 340 q 309 340 309 349 q 309 357 318 369 l 316 369 q 315 367 310 367 q 310 367 309 369 q 313 369 324 379 l 325 379 l 330 385 q 334 390 334 393 l 339 393 q 343 393 343 391 q 343 385 334 375 l 324 364 q 315 351 315 346 q 315 342 321 342 q 328 342 339 357 q 340 358 342 359 q 343 360 346 363 z m 354 405 q 348 396 339 396 q 334 396 328 400 l 333 400 q 343 400 346 411 l 346 414 l 354 411 q 355 409 354 405 z m 406 433 q 406 426 360 370 l 358 370 q 345 354 345 345 q 345 340 349 340 q 358 340 369 355 q 370 357 372 358 q 373 358 375 361 q 375 354 363 345 q 355 339 346 339 q 337 340 337 348 q 336 355 367 394 l 385 417 l 394 426 q 399 432 402 441 q 406 438 406 433 z m 432 433 q 432 427 384 370 q 369 352 369 345 q 369 340 375 340 q 381 340 394 355 l 400 361 q 399 354 387 345 q 379 339 370 339 q 361 340 361 348 q 361 357 391 394 l 409 417 l 418 426 q 426 435 427 441 q 432 438 432 433 z m 403 333 q 379 328 366 315 q 355 301 355 298 q 355 292 361 292 q 363 291 372 294 q 375 297 378 300 q 382 304 387 309 z m 447 430 q 444 409 427 393 q 427 391 426 391 q 426 391 426 390 q 421 384 416 378 q 411 373 406 366 q 403 363 403 360 q 402 363 405 369 q 396 355 396 348 q 396 343 400 343 q 402 343 408 346 q 430 364 439 397 l 439 393 l 439 388 q 442 385 442 381 q 442 378 435 366 l 423 346 l 409 328 q 414 331 426 337 l 424 336 q 421 333 416 329 q 411 325 406 318 l 394 303 l 388 295 q 379 286 369 283 q 360 283 355 289 q 346 292 352 303 q 354 304 356 307 q 357 310 360 313 l 361 315 l 351 313 q 376 331 393 333 q 394 333 396 334 q 397 334 399 334 l 400 334 l 403 334 l 412 348 q 406 342 402 341 q 397 340 394 340 q 387 340 387 348 q 387 366 418 394 l 421 396 l 436 411 q 439 417 442 422 q 445 426 447 430 z m 618 453 q 609 456 603 456 q 588 456 575 452 q 562 448 549 441 q 543 438 539 434 q 535 430 531 427 q 549 426 579 408 q 612 441 636 450 z m 649 447 q 643 445 636 443 q 630 441 622 433 q 618 430 600 412 l 589 402 l 604 393 q 607 397 613 404 q 619 411 627 420 z m 663 472 q 663 471 661 469 q 661 459 657 448 l 658 447 l 657 447 q 649 429 637 417 l 613 388 q 616 387 618 387 q 619 387 622 385 q 622 382 621 382 q 618 382 616 383 q 615 384 612 385 q 594 366 592 349 q 589 343 589 340 q 589 334 595 334 q 607 334 621 354 l 627 363 q 642 384 646 400 l 646 405 q 646 403 648 402 l 648 400 q 645 379 633 361 l 613 322 q 613 328 618 342 q 600 328 591 328 q 577 328 580 346 q 580 355 586 366 q 592 378 601 391 l 586 399 l 573 385 q 568 379 560 370 q 552 361 540 346 q 516 322 498 322 l 493 322 q 489 322 480 327 q 480 327 483 327 q 496 324 510 337 q 498 331 481 331 q 465 331 454 339 l 456 339 q 441 349 441 370 q 441 385 447 393 q 456 417 481 433 q 490 441 498 443 q 507 445 516 447 q 531 447 537 441 l 535 441 q 532 444 522 444 q 507 444 484 430 q 468 418 456 405 q 442 384 442 367 q 442 343 465 336 q 474 333 478 333 q 510 334 547 375 l 576 405 q 553 418 525 418 l 523 418 q 520 412 520 405 q 522 405 528 396 q 517 402 517 411 q 517 415 519 418 q 504 415 499 412 q 472 402 475 381 q 475 367 484 357 l 487 354 q 469 372 469 385 q 469 405 487 418 q 502 429 525 429 q 546 453 577 457 q 585 459 601 459 q 609 459 624 456 l 642 451 l 651 451 l 652 450 q 658 460 661 475 l 663 475 z m 682 375 q 682 370 681 367 q 673 360 668 354 q 663 348 658 340 l 660 340 l 661 340 q 660 339 658 339 q 657 339 657 337 q 649 337 649 340 q 649 346 663 360 q 673 373 673 376 q 675 381 669 385 q 651 360 637 354 l 631 351 l 628 352 q 634 352 648 367 q 661 379 666 387 q 666 388 665 388 q 664 388 664 390 q 664 391 675 400 q 675 402 676 402 l 678 400 q 678 399 670 388 q 682 384 682 375 z m 726 379 q 726 388 720 385 q 714 385 711 382 q 706 379 697 367 q 688 355 688 348 q 687 345 691 345 q 700 348 706 355 q 712 367 712 372 q 712 375 711 375 q 717 375 717 367 l 715 364 q 718 367 720 371 q 723 375 726 378 z m 754 393 q 748 393 741 385 q 735 378 729 369 q 723 360 715 348 q 708 333 702 324 q 696 316 694 313 q 675 289 664 289 q 655 288 651 295 q 651 303 651 303 q 651 310 657 316 q 654 315 649 315 q 664 330 682 334 q 684 334 684 335 q 685 336 688 336 l 690 334 q 661 325 655 307 q 654 304 654 300 q 654 298 655 297 q 655 295 657 295 q 669 294 685 318 l 696 333 l 702 342 q 697 340 694 340 q 682 340 682 352 q 682 366 702 384 q 711 393 718 393 q 729 393 729 381 l 730 381 l 738 390 q 745 397 751 397 q 756 397 759 393 z m 781 382 q 781 373 765 364 q 763 363 762 363 l 760 363 q 756 363 751 370 q 754 367 759 367 q 769 373 772 384 l 772 387 l 772 388 l 772 390 q 766 390 753 376 l 753 375 q 748 369 748 365 q 747 361 747 358 q 745 360 745 367 q 742 361 741 357 q 738 351 738 346 q 738 345 739 343 q 739 340 745 340 q 760 346 771 355 q 774 358 778 361 q 775 357 772 353 q 769 349 762 345 q 750 337 741 340 q 741 339 739 340 q 730 340 730 349 q 730 364 747 379 q 756 393 771 393 q 774 393 775 391 q 781 387 781 382 z m 841 433 q 841 427 793 370 q 780 354 780 345 q 780 340 784 340 q 793 340 804 355 q 805 357 806 358 q 808 358 810 361 q 810 354 798 345 q 790 339 780 339 q 772 342 772 348 q 772 360 801 394 l 819 417 l 828 426 q 837 435 837 441 q 841 438 841 433 z m 922 387 q 897 396 895 415 q 888 411 880 407 q 873 403 868 399 q 840 372 840 349 q 840 340 844 339 l 847 339 l 850 339 q 873 339 892 354 q 898 360 906 368 q 915 375 922 387 z m 952 430 l 940 430 q 922 429 897 417 q 900 396 925 391 l 936 405 z m 979 457 q 960 457 944 454 q 928 451 916 444 q 924 451 935 456 q 946 460 960 463 q 930 465 907 445 q 903 442 897 430 q 907 433 917 434 q 927 436 939 435 q 942 435 946 435 q 951 435 958 433 q 961 438 966 444 q 972 450 979 457 z m 1074 459 q 1071 454 1067 450 q 1063 447 1056 444 q 1044 436 1033 436 l 1030 436 q 1029 436 1027 438 q 1029 439 1029 440 q 1029 442 1032 445 q 1018 456 994 456 l 988 448 l 973 430 q 985 429 996 428 q 1006 426 1015 426 q 1036 426 1044 430 q 1038 424 1021 421 q 1008 418 994 423 l 970 427 q 964 420 959 414 q 954 409 951 403 l 940 388 l 948 388 q 985 391 991 406 l 993 406 q 988 397 973 390 q 966 387 959 386 q 952 384 946 384 l 939 384 q 928 372 922 363 q 915 354 909 348 q 889 327 873 327 q 865 328 856 328 q 871 328 888 343 q 867 334 855 334 l 846 336 l 858 324 q 846 330 838 337 q 837 337 831 340 q 813 354 811 375 q 811 382 811 388 q 811 394 814 400 q 819 414 826 424 q 834 433 844 444 q 870 466 889 466 q 900 466 907 460 l 906 459 q 901 463 892 463 q 873 460 852 444 q 834 429 825 414 q 813 393 813 375 q 816 348 837 340 q 834 349 835 358 q 838 381 852 397 q 868 418 897 430 q 900 433 900 439 l 913 453 q 933 469 964 469 q 972 469 977 469 q 982 469 990 468 l 991 468 q 1002 475 1010 479 q 1018 483 1027 481 q 1033 481 1036 478 q 1020 475 1020 475 q 1017 474 1013 472 q 1009 471 1005 468 q 1011 466 1017 466 q 1023 465 1030 462 q 1045 457 1054 457 q 1068 457 1074 459 z m 982 354 q 978 358 978 364 q 978 367 978 370 q 979 372 979 375 q 964 355 966 346 q 966 343 969 343 q 972 343 982 354 z m 1002 385 q 1002 388 999 388 q 996 388 993 387 q 991 385 988 379 q 981 364 981 360 q 981 355 982 354 l 987 358 l 987 360 l 987 358 q 988 360 988 360 q 988 361 990 363 q 993 372 993 375 q 993 376 991 378 q 994 372 994 370 q 999 375 1002 385 z m 1008 381 q 1008 373 997 358 q 984 345 978 340 l 966 340 q 957 340 957 348 q 957 360 973 379 q 984 393 997 393 q 1008 393 1008 381 z m 1057 384 q 1059 381 1051 367 q 1042 355 1039 352 l 1021 336 q 1011 325 1008 313 q 1009 331 1021 345 q 1027 351 1030 356 q 1033 360 1036 366 q 1038 367 1039 372 l 1039 367 q 1039 367 1038 364 q 1041 367 1047 379 q 1047 381 1048 382 q 1048 382 1048 384 q 1048 391 1041 388 q 1041 388 1029 379 q 1026 372 1020 366 q 1015 361 1009 354 q 1002 345 1000 340 q 999 339 993 327 q 993 330 992 334 q 991 337 993 340 q 996 351 1006 361 l 1015 372 q 1023 382 1023 388 q 1023 390 1022 392 q 1021 393 1021 394 q 1030 391 1030 385 q 1039 393 1050 393 q 1056 390 1057 384 z m 1116 405 l 1093 405 q 1092 402 1084 393 q 1075 384 1063 367 q 1060 367 1057 360 q 1051 352 1051 345 q 1051 340 1054 340 q 1062 340 1075 355 l 1077 357 q 1078 358 1078 359 q 1078 360 1080 361 q 1080 354 1069 345 q 1062 339 1051 339 q 1044 342 1042 348 q 1042 351 1048 363 l 1066 384 l 1083 405 l 1057 408 q 1051 409 1042 409 l 1029 409 q 1011 409 993 402 l 991 402 q 1006 417 1038 417 q 1039 417 1050 414 q 1062 412 1083 409 l 1087 408 q 1092 415 1096 420 q 1099 426 1102 430 q 1105 429 1105 423 q 1105 418 1102 415 l 1096 406 l 1108 405 l 1117 405 l 1119 405 l 1123 405 z m 1126 385 q 1126 381 1116 376 l 1114 375 q 1119 379 1119 387 l 1119 393 l 1114 393 q 1107 393 1105 387 q 1105 384 1110 361 q 1111 340 1086 340 q 1072 340 1069 349 q 1068 351 1068 354 q 1068 366 1086 369 l 1092 367 l 1089 367 q 1083 367 1080 364 q 1075 357 1075 354 q 1075 342 1087 342 q 1099 342 1099 358 q 1099 366 1098 370 q 1096 375 1096 381 q 1096 396 1110 396 q 1113 396 1114 395 q 1116 394 1119 394 q 1125 391 1125 390 q 1126 388 1126 385 z"},"S":{"x_min":0,"x_max":589,"ha":589,"o":"m -559 1058 q -562 1067 -564 1080 q -567 1093 -567 1103 q -567 1113 -564 1116 q -562 1119 -556 1110 q -522 1039 -480 1008 q -438 976 -387 965 q -333 952 -267 957 q -201 962 -130 974 q -60 987 14 1000 q 87 1013 158 1014 q 192 1049 227 1078 q 262 1108 294 1128 q 327 1149 356 1161 q 385 1173 407 1173 q 441 1174 474 1163 q 506 1152 534 1132 q 562 1113 582 1086 q 602 1059 609 1030 q 623 971 622 910 q 620 850 608 793 q 596 736 574 685 q 551 634 524 596 q 496 559 466 537 q 435 515 405 515 q 361 515 336 538 q 312 562 302 598 q 291 634 293 680 q 295 727 305 771 q 315 815 330 854 q 344 893 360 916 q 324 940 282 945 q 242 900 204 846 q 167 792 140 736 q 113 679 100 623 q 88 567 100 517 q 107 489 134 470 q 162 450 200 434 q 238 417 280 400 q 323 383 360 360 q 396 337 422 304 q 448 270 452 221 q 458 155 440 104 q 421 53 386 20 q 350 -14 302 -30 q 253 -46 198 -42 q 138 -38 101 -15 q 64 8 46 41 q 27 74 25 113 q 23 152 34 188 q 44 224 66 252 q 88 279 117 291 q 145 302 151 298 q 157 294 134 272 q 95 237 78 196 q 61 155 66 119 q 70 83 96 58 q 123 34 168 31 q 206 29 238 45 q 271 61 296 88 q 321 114 336 148 q 351 181 354 212 q 356 244 345 270 q 334 296 307 309 q 285 320 255 332 q 225 344 192 361 q 159 378 126 399 q 92 420 64 446 q 36 471 15 502 q -6 534 -14 572 q -24 617 -20 662 q -17 708 -4 753 q 9 798 32 841 q 54 884 83 924 q 35 910 -12 893 q -60 876 -108 862 q -156 848 -203 838 q -250 829 -294 832 q -335 833 -374 846 q -413 858 -446 884 q -480 911 -508 954 q -537 996 -559 1058 z m 385 858 q 375 836 365 804 q 355 772 349 737 q 343 702 340 669 q 337 636 343 612 q 349 589 363 578 q 377 568 403 580 q 422 588 443 613 q 464 638 484 674 q 503 711 520 754 q 537 798 548 844 q 558 889 562 934 q 565 979 558 1017 q 550 1059 521 1076 q 492 1092 447 1082 q 428 1078 395 1053 q 362 1028 322 988 q 347 978 370 965 q 383 955 392 947 q 402 939 409 931 q 416 922 420 910 q 425 897 422 887 q 421 883 415 882 q 409 880 405 879 q 398 877 394 870 q 389 864 385 858 z"},"Z":{"x_min":0,"x_max":1045,"ha":1045,"o":"m 136 1193 q 134 1202 132 1215 q 130 1228 130 1238 q 130 1248 133 1251 q 136 1254 143 1245 q 173 1174 214 1142 q 255 1111 303 1100 q 354 1087 416 1098 q 477 1108 544 1126 q 612 1144 682 1164 q 752 1184 820 1192 q 887 1200 948 1188 q 1008 1176 1058 1132 q 1083 1109 1097 1090 q 1111 1070 1116 1057 q 1120 1044 1116 1040 q 1111 1037 1098 1048 q 1092 1053 1086 1058 q 1080 1062 1074 1066 q 1036 1091 985 1095 q 917 1071 864 1010 q 810 950 765 867 q 720 784 680 685 q 639 586 598 486 q 558 387 514 294 q 470 200 417 127 q 486 114 552 106 q 619 99 681 103 q 705 104 737 106 q 769 108 802 118 q 836 127 867 148 q 898 170 921 211 q 935 238 942 234 q 949 229 948 203 q 945 136 916 92 q 887 49 846 23 q 806 -3 762 -14 q 718 -25 685 -25 q 597 -26 512 -2 q 427 21 347 49 q 298 4 240 -20 q 182 -44 111 -39 q 76 -36 48 -20 q 21 -3 4 21 q -12 45 -17 72 q -22 100 -12 124 q -3 147 22 162 q 46 177 89 177 q 140 177 199 168 q 258 159 322 146 q 359 205 391 283 q 423 361 454 447 q 486 533 520 622 q 554 711 596 794 q 637 877 688 948 q 740 1020 807 1071 q 754 1057 699 1038 q 644 1019 590 1003 q 537 987 486 976 q 436 965 391 967 q 350 968 312 980 q 273 993 240 1020 q 207 1046 180 1088 q 154 1131 136 1193 z m 104 12 q 154 5 194 24 q 233 42 269 77 q 218 95 174 106 q 130 118 92 118 q 60 118 46 103 q 32 88 34 68 q 37 49 55 32 q 73 16 104 12 z"},"x":{"x_min":0,"x_max":379,"ha":379,"o":"m 39 120 q 31 169 32 230 q 34 290 39 348 l 13 268 q 8 260 2 260 q -4 260 -10 265 q -16 270 -20 278 q -23 287 -19 298 q -13 321 0 350 q 12 380 24 410 q 37 441 46 470 q 54 499 54 524 q 54 525 53 532 q 56 541 74 536 q 92 530 112 516 q 131 502 146 482 q 162 461 162 441 q 159 422 153 392 q 147 363 142 325 l 206 439 q 226 474 247 502 q 268 529 289 528 q 308 528 322 515 q 337 502 341 484 q 345 472 344 452 q 344 433 340 418 q 337 402 330 394 q 324 386 315 398 q 306 408 294 404 q 283 399 272 389 q 240 357 205 302 q 170 247 131 179 q 126 140 130 109 q 133 78 146 65 q 160 52 185 61 q 210 70 249 112 q 265 129 282 152 q 298 175 314 202 q 329 230 343 260 q 357 290 369 318 q 372 329 378 331 q 385 333 391 329 q 397 325 400 316 q 403 307 400 296 q 381 239 356 183 q 332 127 301 84 q 270 40 232 16 q 193 -9 146 -3 q 133 0 108 11 q 84 22 63 55 l -6 -73 q -12 -83 -20 -83 q -27 -83 -33 -76 q -39 -70 -41 -60 q -43 -51 -38 -42 z"},"v":{"x_min":0,"x_max":334,"ha":334,"o":"m 7 510 q 4 526 23 518 q 42 511 65 492 q 88 472 106 447 q 125 422 121 406 q 116 380 108 344 q 100 308 91 270 q 82 231 74 195 q 66 159 62 130 q 58 100 58 82 q 57 65 64 65 q 85 66 110 104 q 135 143 157 202 q 179 261 197 332 q 215 403 222 470 q 228 536 220 588 q 211 641 183 664 q 171 673 170 681 q 170 689 176 695 q 182 701 192 704 q 202 707 214 706 q 243 703 269 677 q 295 651 306 616 q 316 582 310 523 q 304 464 286 395 q 269 326 242 256 q 216 185 186 127 q 156 69 124 33 q 93 -3 66 -3 q 28 -3 0 33 q -28 69 -34 117 q -43 175 -35 224 q -27 273 -16 319 q -4 365 4 412 q 12 458 7 510 z"},"O":{"x_min":0,"x_max":745,"ha":745,"o":"m 225 -75 q 177 -74 140 -54 q 104 -34 79 1 q 54 36 39 83 q 24 130 19 185 q -39 230 -68 302 q -97 374 -100 458 q -102 542 -82 632 q -63 721 -24 803 q 12 884 60 954 q 107 1023 162 1074 q 218 1124 282 1152 q 347 1179 422 1176 q 509 1173 566 1136 q 622 1100 656 1042 q 689 984 702 912 q 714 840 712 765 q 710 690 696 618 q 683 547 664 493 l 690 528 q 698 539 708 540 q 717 542 724 537 q 731 532 732 522 q 732 511 722 499 q 692 461 664 424 q 636 387 606 352 q 577 274 538 197 q 500 120 452 58 q 404 -3 347 -40 q 290 -78 225 -75 z m 321 949 q 337 950 353 952 q 369 953 388 950 q 400 948 403 942 q 406 937 403 930 q 400 924 392 917 q 385 910 379 902 q 341 864 300 803 q 259 742 222 666 q 185 591 154 508 q 122 425 103 346 q 94 308 90 274 q 85 240 83 211 q 138 174 238 178 q 315 182 384 220 q 452 259 515 318 l 544 403 q 570 484 588 567 q 605 650 611 728 q 617 807 610 876 q 603 946 581 998 q 559 1050 522 1080 q 486 1110 432 1110 q 384 1110 334 1080 q 283 1049 235 997 q 187 945 144 878 q 102 811 70 738 q 42 677 23 614 q 4 552 -4 492 q -11 433 -6 380 q -2 326 17 285 q 19 344 31 406 q 43 467 63 526 q 83 590 108 652 q 134 714 162 767 q 189 820 218 861 q 247 902 275 924 q 286 933 294 939 q 302 945 321 949 z m 252 127 q 154 120 83 149 q 89 75 120 32 q 151 -10 210 -14 q 246 -17 281 -2 q 316 14 348 44 q 381 74 411 117 q 441 160 468 212 q 421 177 369 154 q 317 131 252 127 z"},"C":{"x_min":0,"x_max":862,"ha":862,"o":"m -274 1058 q -277 1067 -280 1080 q -282 1093 -282 1103 q -282 1113 -280 1116 q -277 1119 -271 1110 q -238 1040 -194 1008 q -151 976 -102 965 q -48 952 17 958 q 82 963 153 975 q 224 987 298 1000 q 371 1013 442 1014 q 499 1084 562 1127 q 626 1170 694 1173 q 728 1174 766 1164 q 805 1153 840 1134 q 874 1114 900 1088 q 925 1061 932 1031 q 947 972 944 912 q 940 851 923 794 q 906 737 880 687 q 853 637 822 598 q 790 560 756 538 q 723 515 693 515 q 649 515 624 538 q 598 560 586 597 q 575 634 576 680 q 578 725 588 770 q 598 815 613 854 q 628 893 645 916 q 626 927 607 934 q 588 942 567 945 q 520 887 474 812 q 428 737 396 650 q 371 581 356 509 q 341 437 336 368 q 331 300 338 238 q 345 177 363 129 q 381 81 411 50 q 441 19 484 13 q 548 3 606 28 q 663 52 710 98 q 757 144 794 204 q 831 265 856 326 q 866 337 876 326 q 886 315 883 296 q 863 229 824 162 q 784 94 732 40 q 680 -13 620 -45 q 560 -77 499 -70 q 444 -65 404 -46 q 363 -27 332 2 q 302 31 281 70 q 260 108 244 153 q 213 238 211 338 q 209 438 230 542 q 250 645 289 744 q 328 844 380 927 q 331 914 282 896 q 232 879 182 864 q 133 849 84 839 q 36 829 -9 832 q -50 833 -88 846 q -127 858 -162 884 q -196 911 -224 954 q -253 996 -274 1058 z m 735 1082 q 711 1076 678 1052 q 644 1028 606 988 q 631 978 654 965 q 682 946 693 931 q 700 922 705 910 q 710 897 707 887 q 705 883 700 882 q 694 880 689 879 q 683 877 678 870 q 674 864 670 858 q 659 835 650 802 q 640 770 633 736 q 626 701 624 668 q 622 636 628 612 q 634 589 648 579 q 663 569 690 580 q 710 588 731 612 q 752 637 771 674 q 790 710 807 754 q 824 797 835 843 q 846 889 849 934 q 852 979 845 1017 q 837 1059 808 1076 q 780 1092 735 1082 z"},"W":{"x_min":0,"x_max":961,"ha":961,"o":"m 766 -18 q 719 29 703 88 q 687 146 692 208 q 692 207 696 244 q 701 282 708 341 q 715 400 724 474 q 733 549 741 620 q 700 503 664 386 q 629 269 604 172 q 578 75 562 9 q 547 -57 546 -74 q 545 -94 534 -90 q 522 -87 505 -69 q 488 -51 468 -22 q 449 6 432 38 q 416 69 406 98 q 397 127 399 148 q 400 155 404 207 q 409 259 414 339 q 419 419 422 516 q 425 614 424 708 q 422 802 413 885 q 404 968 385 1019 q 375 1045 362 1052 q 350 1058 334 1054 q 292 1045 242 1015 q 193 985 145 942 q 97 898 53 844 q 9 789 -22 731 q -54 673 -70 614 q -87 556 -80 504 q -82 494 -88 497 q -95 500 -101 511 q -110 528 -123 552 q -136 576 -148 605 q -160 634 -167 666 q -174 699 -173 733 q -172 764 -147 807 q -122 850 -80 896 q -39 942 15 986 q 69 1031 130 1064 q 191 1096 255 1112 q 319 1127 379 1117 q 420 1109 450 1075 q 479 1041 498 987 q 523 920 534 835 q 544 750 546 660 q 547 569 543 479 q 539 389 534 312 q 528 235 524 179 q 521 123 524 101 q 532 179 556 266 q 581 352 615 443 q 649 534 688 630 q 727 725 765 822 q 769 833 780 822 q 792 811 804 788 q 815 764 824 734 q 832 703 830 676 q 828 611 820 530 q 813 448 803 368 q 793 289 784 219 q 776 149 772 109 q 789 196 810 300 q 831 404 858 514 q 886 625 920 738 q 954 851 997 956 q 1040 1062 1093 1155 q 1146 1248 1210 1318 q 1274 1388 1350 1432 q 1427 1475 1517 1482 q 1550 1485 1587 1480 q 1624 1474 1659 1453 q 1675 1443 1686 1432 q 1698 1422 1700 1415 q 1703 1408 1696 1406 q 1688 1403 1669 1407 q 1573 1427 1488 1392 q 1403 1356 1328 1279 q 1254 1202 1190 1095 q 1127 988 1074 866 q 1022 745 980 619 q 939 493 910 378 q 881 264 862 172 q 844 79 839 25 q 836 4 834 -14 q 831 -31 823 -40 q 815 -48 802 -44 q 789 -40 766 -18 z"},"A":{"x_min":0,"x_max":1208,"ha":1208,"o":"m 933 516 q 951 513 970 510 q 990 506 1008 499 q 1025 586 1043 666 q 1061 746 1074 809 q 1087 872 1093 916 q 1099 959 1091 975 q 1071 861 1032 744 q 992 627 933 516 z m 1082 238 q 1068 148 1076 69 q 1085 -10 1127 -85 q 1121 -91 1108 -84 q 1094 -78 1077 -61 q 1060 -44 1042 -18 q 1024 8 1009 39 q 977 104 976 183 q 974 259 982 331 q 991 403 1002 465 q 953 478 909 473 q 852 374 780 288 q 709 201 625 136 q 541 71 444 33 q 348 -5 243 -8 q 203 -9 165 2 q 127 13 94 36 q 62 58 38 92 q 13 127 0 174 q -7 198 -4 216 q -1 235 6 235 q 10 235 11 228 q 12 220 12 216 q 19 170 40 138 q 60 105 88 85 q 117 65 152 57 q 186 49 221 55 q 309 68 386 102 q 463 135 530 184 q 597 233 654 294 q 712 355 761 422 q 739 411 705 396 q 671 381 630 372 q 589 363 546 362 q 503 361 462 378 q 422 395 387 433 q 352 471 329 538 q 326 547 324 560 q 321 573 320 583 q 319 593 322 596 q 326 599 333 590 q 366 519 408 484 q 451 450 501 445 q 538 441 576 448 q 615 455 654 466 q 694 477 736 490 q 777 502 820 510 q 891 628 937 743 q 983 858 1008 945 q 1016 975 1022 996 q 1028 1017 1032 1031 q 1037 1045 1040 1055 q 1043 1065 1047 1072 q 1055 1088 1039 1106 q 995 1122 946 1120 q 896 1118 844 1106 q 792 1093 738 1074 q 684 1056 630 1039 q 576 1022 524 1011 q 471 1000 422 1002 q 381 1004 343 1016 q 305 1028 272 1055 q 238 1082 212 1124 q 185 1166 167 1228 q 165 1238 163 1250 q 161 1262 161 1272 q 161 1282 164 1285 q 167 1288 174 1279 q 203 1209 244 1177 q 286 1145 334 1134 q 376 1123 425 1125 q 474 1127 528 1135 q 582 1143 638 1153 q 695 1163 752 1172 q 809 1180 864 1183 q 920 1186 972 1178 q 1034 1167 1080 1136 q 1126 1105 1145 1076 q 1165 1048 1183 984 q 1201 920 1195 868 q 1195 870 1189 834 q 1183 799 1173 740 q 1162 680 1146 602 q 1129 524 1121 437 q 1129 429 1140 418 q 1152 407 1159 386 q 1163 376 1162 370 q 1161 365 1152 372 l 1108 404 z"},"f":{"x_min":0,"x_max":216,"ha":216,"o":"m -152 -165 q -168 -169 -182 -166 q -197 -163 -206 -155 q -216 -147 -216 -138 q -217 -129 -206 -121 q -187 -112 -173 -106 q -159 -99 -148 -94 q -137 -88 -126 -82 q -115 -77 -103 -68 l -86 -56 q -65 70 -39 200 q -13 329 14 449 q 40 569 63 675 q 86 781 100 862 q 103 876 116 890 q 129 903 148 913 q 166 923 186 929 q 205 935 220 934 q 236 932 244 924 q 251 915 245 897 q 227 844 202 752 q 178 660 152 545 q 125 430 98 299 q 71 168 49 34 q 76 60 96 88 q 115 116 132 150 q 149 183 166 226 q 184 269 207 325 q 217 335 228 326 q 240 317 238 299 q 207 192 164 120 q 120 47 66 -8 q 88 -12 109 -28 q 130 -44 149 -68 q 168 -91 182 -119 q 197 -147 207 -174 q 221 -217 222 -265 q 222 -313 213 -362 q 204 -410 186 -454 q 168 -497 144 -530 q 121 -564 94 -584 q 66 -605 38 -605 q -14 -605 -50 -586 q -85 -567 -102 -515 q -120 -463 -119 -370 q -118 -278 -97 -131 z m 169 -190 q 148 -127 118 -98 q 87 -68 32 -64 q 10 -207 -2 -303 q -13 -399 -14 -457 q -16 -515 -6 -541 q 4 -567 27 -569 q 54 -573 78 -555 q 102 -537 121 -506 q 140 -475 154 -434 q 167 -393 174 -350 q 182 -307 180 -264 q 179 -222 169 -190 z"},"Q":{"x_min":0,"x_max":744,"ha":744,"o":"m 225 -75 q 177 -74 140 -54 q 104 -34 79 1 q 54 36 39 83 q 24 130 19 185 q -39 230 -68 302 q -97 374 -100 458 q -102 542 -82 632 q -63 721 -24 803 q 12 884 60 954 q 107 1023 162 1074 q 218 1124 282 1152 q 347 1179 422 1176 q 509 1173 566 1136 q 622 1100 656 1042 q 689 984 702 912 q 714 840 712 765 q 710 690 696 618 q 683 547 664 493 l 690 528 q 698 539 708 540 q 717 542 724 537 q 731 532 732 522 q 732 511 722 499 q 692 461 664 424 q 636 387 606 352 q 582 286 550 220 q 519 155 480 99 q 442 43 398 0 q 354 -42 304 -61 q 322 -114 344 -150 q 367 -187 392 -210 q 416 -234 443 -246 q 470 -259 495 -263 q 540 -270 592 -264 q 645 -259 702 -246 q 759 -233 818 -216 q 878 -198 936 -182 q 994 -166 1048 -154 q 1102 -143 1151 -140 q 1264 -137 1374 -186 q 1483 -234 1586 -335 q 1596 -345 1598 -353 q 1599 -361 1596 -366 q 1593 -371 1586 -370 q 1578 -369 1569 -359 q 1509 -296 1443 -264 q 1377 -231 1308 -220 q 1238 -209 1167 -216 q 1096 -222 1028 -238 q 960 -255 896 -276 q 832 -298 776 -318 q 721 -337 675 -350 q 629 -363 596 -361 q 528 -359 473 -337 q 418 -315 376 -277 q 333 -239 302 -187 q 272 -135 253 -74 q 245 -75 238 -75 q 232 -75 225 -75 z m 212 248 q 212 276 218 288 q 225 300 232 300 q 240 299 248 284 q 255 269 256 242 l 260 179 q 330 187 394 225 q 457 263 515 318 l 544 403 q 570 484 588 567 q 605 650 611 728 q 617 807 610 876 q 603 946 581 998 q 559 1050 522 1080 q 486 1110 432 1110 q 384 1110 334 1080 q 283 1049 235 997 q 187 945 144 878 q 102 811 70 738 q 42 677 23 614 q 4 552 -4 492 q -11 433 -6 380 q -2 326 17 285 q 19 344 31 406 q 43 467 63 526 q 83 590 108 652 q 134 714 162 767 q 189 820 218 861 q 247 902 275 924 q 286 933 294 939 q 302 945 321 949 q 337 950 353 952 q 369 953 388 950 q 400 948 403 942 q 406 937 403 930 q 400 924 392 917 q 385 910 379 902 q 341 864 300 803 q 259 742 222 666 q 185 591 154 508 q 122 425 103 346 q 94 308 90 274 q 85 240 83 211 q 107 196 138 187 q 170 178 213 177 q 212 195 212 212 q 212 230 212 248 z m 215 126 q 138 126 83 149 q 89 75 120 32 q 152 -12 210 -14 q 216 -14 222 -14 q 229 -14 236 -13 q 229 19 224 54 q 218 88 215 126 z m 468 212 q 423 178 374 156 q 324 135 264 129 q 273 57 286 1 q 337 26 383 80 q 429 134 468 212 z"},"w":{"x_min":0,"x_max":566,"ha":566,"o":"m -48 122 q -47 151 -42 188 q -36 224 -28 263 q -19 302 -10 342 q -1 381 4 414 q 10 448 12 474 q 14 499 9 512 q 4 523 11 526 q 18 528 30 524 q 43 520 58 510 q 74 500 88 486 q 102 472 112 454 q 121 437 121 417 q 121 406 114 376 q 108 347 98 310 q 88 272 77 231 q 66 190 60 155 q 53 120 53 96 q 53 71 62 69 q 74 65 94 88 q 114 112 136 154 q 158 195 179 252 q 200 308 214 370 q 220 393 220 418 q 220 442 218 472 q 216 484 224 484 q 233 484 247 476 q 261 468 276 454 q 292 441 305 425 q 318 409 326 394 q 334 380 332 368 q 327 341 320 308 q 312 276 304 242 q 295 208 288 176 q 281 144 277 120 q 273 95 274 80 q 274 65 281 65 q 302 66 326 104 q 351 143 374 202 q 396 261 414 332 q 431 404 438 470 q 445 536 436 589 q 428 642 401 664 q 389 673 388 681 q 388 689 394 695 q 400 701 410 704 q 420 707 431 706 q 461 702 487 676 q 513 651 523 616 q 533 582 527 523 q 521 464 504 395 q 486 326 460 256 q 434 185 404 127 q 373 69 342 33 q 310 -3 283 -3 q 246 -3 217 33 q 188 69 183 117 q 179 142 178 160 q 152 90 120 46 q 87 1 46 -3 q 21 -5 3 9 q -15 23 -26 44 q -38 65 -43 86 q -48 108 -48 122 z"},"E":{"x_min":0,"x_max":809,"ha":809,"o":"m -261 1058 q -263 1067 -265 1080 q -267 1093 -267 1103 q -267 1113 -264 1116 q -261 1119 -255 1110 q -224 1039 -182 1008 q -141 976 -93 965 q -45 953 8 960 q 61 966 117 980 q 173 993 231 1008 q 289 1023 345 1030 q 415 1096 494 1132 q 573 1169 653 1162 q 733 1156 782 1118 q 830 1080 842 1030 q 852 985 846 943 q 840 901 822 863 q 805 825 778 794 q 751 764 720 744 q 690 724 657 716 q 624 708 594 716 q 542 729 522 758 q 502 786 504 818 q 505 849 522 879 q 540 909 564 926 q 534 950 500 958 q 467 966 431 961 q 387 911 355 845 q 323 779 316 697 q 310 627 329 575 q 348 523 381 489 q 414 455 456 440 q 498 426 535 433 q 555 437 559 426 q 563 415 551 412 q 513 406 472 374 q 432 342 402 296 q 372 251 360 197 q 347 143 363 91 q 379 44 416 20 q 454 -5 498 -3 q 542 -1 580 16 q 619 34 655 72 q 691 109 726 170 q 760 230 796 318 q 802 331 808 332 q 815 334 820 329 q 826 324 828 314 q 831 304 828 292 q 801 192 762 122 q 723 51 676 6 q 630 -40 578 -62 q 527 -83 473 -85 q 434 -85 393 -76 q 352 -66 318 -43 q 283 -20 258 18 q 234 56 228 112 q 222 173 242 223 q 261 273 296 310 q 331 348 377 372 q 423 396 471 406 q 412 404 362 419 q 312 434 275 466 q 238 497 215 542 q 192 588 187 647 q 181 721 197 780 q 213 838 243 897 q 183 871 120 850 q 58 829 -5 832 q -46 833 -84 846 q -123 858 -156 884 q -190 911 -216 954 q -243 996 -261 1058 z m 747 1032 q 741 1054 722 1066 q 704 1079 679 1083 q 654 1087 625 1084 q 596 1082 570 1072 q 543 1063 522 1050 q 501 1036 492 1019 q 543 1004 587 966 q 607 949 617 932 q 623 923 625 915 q 627 910 628 906 q 628 903 628 902 q 628 901 629 898 q 629 897 628 896 q 628 889 625 883 q 622 880 616 880 q 610 880 605 881 q 598 881 592 876 q 586 871 581 866 q 557 838 554 820 q 550 803 557 793 q 564 783 578 778 q 591 773 600 772 q 632 768 662 794 q 693 820 716 860 q 738 901 748 948 q 757 994 747 1032 z"},"s":{"x_min":0,"x_max":299,"ha":299,"o":"m 320 294 q 308 261 297 230 q 286 199 272 170 q 257 140 240 112 q 222 84 198 60 q 168 29 135 12 q 102 -5 74 -8 q 44 -12 15 2 q -14 17 -38 58 q -42 66 -40 68 q -38 69 -33 69 q 21 65 46 96 q 70 127 75 176 q 80 225 72 283 q 63 341 54 390 q 42 359 32 328 q 22 296 13 268 q 8 260 2 260 q -4 260 -10 265 q -15 270 -18 280 q -21 289 -17 298 q -2 339 12 386 q 26 434 42 477 q 42 512 47 553 q 52 594 63 630 q 74 667 90 693 q 105 719 125 725 q 134 728 152 717 q 170 706 188 690 q 205 675 217 658 q 229 641 226 632 q 187 597 159 554 q 131 512 117 446 q 113 422 122 386 q 131 351 144 308 q 157 266 171 222 q 185 177 189 136 q 219 166 242 210 q 264 253 288 324 q 292 329 299 328 q 306 328 311 322 q 316 317 320 310 q 323 302 320 294 z"},"l":{"x_min":0,"x_max":298,"ha":298,"o":"m 76 255 q 74 225 72 194 q 71 162 75 136 q 79 109 88 91 q 98 73 117 71 q 141 70 165 93 q 189 116 211 152 q 233 188 252 232 q 272 277 289 318 q 294 328 300 330 q 306 333 312 329 q 317 325 320 316 q 323 308 320 296 q 307 253 285 201 q 263 149 235 104 q 207 58 174 28 q 141 -3 107 -3 q 76 -3 54 14 q 32 32 16 60 q 1 87 -7 120 q -15 152 -19 183 q -23 214 -24 241 q -24 268 -23 282 l -17 347 q -8 458 15 565 q 38 672 72 760 q 106 848 148 908 q 191 968 239 988 q 252 993 270 984 q 289 976 304 958 q 319 941 329 918 q 339 894 335 871 q 327 811 305 744 q 283 676 252 610 q 222 545 184 487 q 147 429 106 389 l 77 255 z m 294 911 q 276 905 254 866 q 232 828 208 766 q 185 705 162 625 q 139 545 120 456 q 146 490 172 538 q 197 586 220 638 q 242 689 260 739 q 278 789 288 828 q 299 868 301 891 q 303 914 294 911 z"},"8":{"x_min":0,"x_max":1219,"ha":1219,"o":"m 876 781 l 739 657 l 775 471 l 615 565 l 450 471 l 489 652 l 351 781 l 537 801 l 615 972 l 690 802 z m 682 576 l 639 834 l 586 834 l 541 576 l 564 562 l 583 576 l 592 634 l 631 634 l 642 576 l 663 562 z m 628 672 l 598 672 l 612 774 z m 610 21 l 631 21 l 624 39 q 622 42 622 44 q 622 46 619 49 q 619 45 616 39 z m 352 -5 l 352 3 l 363 3 l 363 -5 z m 844 -5 l 844 58 l 852 58 l 852 1 l 883 1 l 883 -5 z m 787 -5 l 787 58 l 832 58 l 832 49 l 795 49 l 795 30 l 829 30 l 829 22 l 795 22 l 795 1 l 832 1 l 832 -5 z m 565 -5 l 565 21 l 541 58 l 552 58 l 564 39 q 567 30 570 28 q 571 30 572 33 q 574 36 577 39 l 589 58 l 598 58 l 573 21 l 573 -5 z m 376 -5 l 376 58 l 400 58 q 403 58 406 56 q 408 55 409 55 q 415 54 417 49 q 420 46 420 40 q 420 36 417 34 q 415 28 411 28 q 415 27 420 22 q 423 16 423 13 q 423 10 422 8 q 421 7 421 6 q 420 0 415 0 q 414 -3 412 -3 q 411 -3 409 -5 l 400 -5 z m 205 -5 l 187 58 l 196 58 l 205 16 q 207 12 207 9 q 207 6 208 3 q 210 10 210 15 l 222 58 l 232 58 l 241 25 q 243 18 244 14 q 246 9 246 3 q 247 6 247 9 q 247 12 249 16 l 259 58 l 267 58 l 249 -5 l 241 -5 l 229 42 q 228 46 228 49 q 226 46 226 42 l 213 -5 z m 123 -5 l 105 58 l 115 58 l 123 16 q 123 9 127 3 q 129 10 129 15 l 141 58 l 150 58 l 160 25 q 162 18 162 14 q 163 9 163 3 q 166 6 166 9 q 166 12 168 16 l 177 58 l 186 58 l 168 -5 l 160 -5 l 148 42 q 147 46 147 49 q 144 46 144 42 l 130 -5 z m 384 30 l 397 30 q 403 30 405 33 q 409 33 409 34 q 411 36 411 40 q 411 45 409 46 l 408 46 q 406 46 406 47 q 406 48 405 48 q 403 49 396 49 l 384 49 z m 285 -5 l 268 58 l 277 58 l 286 16 q 288 12 288 9 q 288 6 291 3 q 291 9 292 11 q 292 13 292 15 l 304 58 l 313 58 l 324 25 q 325 18 326 14 q 327 9 327 3 q 330 6 330 9 q 330 12 331 16 l 342 58 l 349 58 l 331 -5 l 324 -5 l 312 42 q 310 46 310 49 q 307 46 307 42 l 294 -5 z m 664 28 l 682 28 q 685 28 688 29 q 690 30 693 30 q 696 30 696 34 q 697 36 697 40 q 697 45 694 48 q 693 49 684 49 l 664 49 z m 384 1 l 400 1 q 403 1 405 3 l 409 3 q 411 6 414 7 l 414 13 q 414 16 411 19 q 411 22 408 22 l 397 22 l 384 22 z m 435 -5 l 435 58 l 442 58 l 442 -5 z m 985 25 q 985 12 990 7 q 996 1 1006 1 q 1017 1 1021 7 q 1027 12 1027 27 q 1027 34 1026 39 q 1023 46 1018 48 q 1014 49 1006 49 q 997 49 993 45 q 985 39 985 25 z m 976 25 q 976 42 985 49 q 991 58 1006 58 q 1011 58 1014 56 q 1018 55 1021 54 q 1026 52 1028 49 q 1030 46 1033 42 q 1035 39 1035 27 q 1035 13 1032 9 q 1027 1 1021 -3 q 1015 -6 1006 -6 q 1002 -6 998 -6 q 994 -5 990 -3 q 987 0 984 3 q 982 6 981 9 q 979 13 978 17 q 976 21 976 25 z m 592 -5 l 616 58 l 625 58 l 651 -5 l 642 -5 l 634 13 l 609 13 l 600 -5 z m 459 -5 l 459 58 l 466 58 l 466 1 l 495 1 l 495 -5 z m 892 -5 l 892 3 l 903 3 l 903 -5 z m 748 19 l 748 27 l 774 27 l 774 3 q 768 -3 762 -5 q 759 -5 755 -6 q 751 -6 748 -6 q 739 -6 733 -3 q 729 0 726 2 q 723 4 721 9 q 720 13 718 17 q 717 21 717 25 q 717 31 718 34 q 720 37 721 42 q 724 51 732 54 q 735 55 740 56 q 744 58 748 58 q 756 58 760 55 q 766 54 768 49 q 772 45 774 40 l 766 39 q 766 40 762 45 q 762 48 756 49 l 748 49 l 739 49 q 735 48 732 45 q 732 43 727 39 q 727 36 726 33 q 726 30 726 27 q 726 16 729 13 q 735 4 736 3 q 741 1 748 1 q 754 1 759 3 q 762 6 764 6 q 765 6 766 7 l 766 19 z m 657 -5 l 657 58 l 684 58 q 688 58 691 56 q 694 55 697 55 q 702 54 703 49 q 706 46 706 40 q 706 33 702 28 q 700 27 696 26 q 693 25 688 22 q 691 22 692 22 q 693 21 694 21 q 696 18 696 16 q 697 13 700 10 l 712 -5 l 702 -5 l 693 7 q 690 10 689 12 q 688 15 687 16 q 687 19 686 19 q 684 19 682 21 l 681 21 q 679 21 679 22 q 679 22 678 22 l 675 22 l 664 22 l 664 -5 z m 505 -5 l 505 58 l 514 58 l 514 1 l 544 1 l 544 -5 z m 961 16 l 969 15 q 966 3 960 0 q 954 -6 943 -6 q 934 -6 928 -3 q 924 0 922 3 q 921 6 918 9 q 915 21 915 27 q 915 33 918 45 q 925 52 928 54 q 933 55 936 56 q 939 58 943 58 q 948 58 952 56 q 957 55 960 54 q 963 51 965 48 q 967 45 969 40 l 960 39 q 960 45 954 48 q 951 49 943 49 q 934 49 931 48 q 928 46 928 44 q 927 42 924 39 q 924 36 923 33 q 922 30 922 27 q 922 18 927 13 q 927 10 928 8 q 930 6 931 3 q 936 1 943 1 q 951 1 955 6 q 960 10 961 16 z m 1047 -5 l 1047 58 l 1059 58 l 1074 13 q 1074 10 1076 8 q 1077 6 1077 3 q 1077 4 1080 13 l 1093 58 l 1105 58 l 1105 -5 l 1098 -5 l 1098 46 l 1080 -5 l 1072 -5 l 1054 48 l 1054 -5 z m 610 21 l 631 21 l 624 39 q 622 42 622 44 q 622 46 619 49 q 619 45 616 39 z m 352 -5 l 352 3 l 363 3 l 363 -5 z m 844 -5 l 844 58 l 852 58 l 852 1 l 883 1 l 883 -5 z m 787 -5 l 787 58 l 832 58 l 832 49 l 795 49 l 795 30 l 829 30 l 829 22 l 795 22 l 795 1 l 832 1 l 832 -5 z m 565 -5 l 565 21 l 541 58 l 552 58 l 564 39 q 567 30 570 28 q 571 30 572 33 q 574 36 577 39 l 589 58 l 598 58 l 573 21 l 573 -5 z m 376 -5 l 376 58 l 400 58 q 403 58 406 56 q 408 55 409 55 q 415 54 417 49 q 420 46 420 40 q 420 36 417 34 q 415 28 411 28 q 415 27 420 22 q 423 16 423 13 q 423 10 422 8 q 421 7 421 6 q 420 0 415 0 q 414 -3 412 -3 q 411 -3 409 -5 l 400 -5 z m 205 -5 l 187 58 l 196 58 l 205 16 q 207 12 207 9 q 207 6 208 3 q 210 10 210 15 l 222 58 l 232 58 l 241 25 q 243 18 244 14 q 246 9 246 3 q 247 6 247 9 q 247 12 249 16 l 259 58 l 267 58 l 249 -5 l 241 -5 l 229 42 q 228 46 228 49 q 226 46 226 42 l 213 -5 z m 123 -5 l 105 58 l 115 58 l 123 16 q 123 9 127 3 q 129 10 129 15 l 141 58 l 150 58 l 160 25 q 162 18 162 14 q 163 9 163 3 q 166 6 166 9 q 166 12 168 16 l 177 58 l 186 58 l 168 -5 l 160 -5 l 148 42 q 147 46 147 49 q 144 46 144 42 l 130 -5 z m 384 30 l 397 30 q 403 30 405 33 q 409 33 409 34 q 411 36 411 40 q 411 45 409 46 l 408 46 q 406 46 406 47 q 406 48 405 48 q 403 49 396 49 l 384 49 z m 285 -5 l 268 58 l 277 58 l 286 16 q 288 12 288 9 q 288 6 291 3 q 291 9 292 11 q 292 13 292 15 l 304 58 l 313 58 l 324 25 q 325 18 326 14 q 327 9 327 3 q 330 6 330 9 q 330 12 331 16 l 342 58 l 349 58 l 331 -5 l 324 -5 l 312 42 q 310 46 310 49 q 307 46 307 42 l 294 -5 z m 664 28 l 682 28 q 685 28 688 29 q 690 30 693 30 q 696 30 696 34 q 697 36 697 40 q 697 45 694 48 q 693 49 684 49 l 664 49 z m 384 1 l 400 1 q 403 1 405 3 l 409 3 q 411 6 414 7 l 414 13 q 414 16 411 19 q 411 22 408 22 l 397 22 l 384 22 z m 435 -5 l 435 58 l 442 58 l 442 -5 z m 985 25 q 985 12 990 7 q 996 1 1006 1 q 1017 1 1021 7 q 1027 12 1027 27 q 1027 34 1026 39 q 1023 46 1018 48 q 1014 49 1006 49 q 997 49 993 45 q 985 39 985 25 z m 976 25 q 976 42 985 49 q 991 58 1006 58 q 1011 58 1014 56 q 1018 55 1021 54 q 1026 52 1028 49 q 1030 46 1033 42 q 1035 39 1035 27 q 1035 13 1032 9 q 1027 1 1021 -3 q 1015 -6 1006 -6 q 1002 -6 998 -6 q 994 -5 990 -3 q 987 0 984 3 q 982 6 981 9 q 979 13 978 17 q 976 21 976 25 z m 592 -5 l 616 58 l 625 58 l 651 -5 l 642 -5 l 634 13 l 609 13 l 600 -5 z m 459 -5 l 459 58 l 466 58 l 466 1 l 495 1 l 495 -5 z m 892 -5 l 892 3 l 903 3 l 903 -5 z m 748 19 l 748 27 l 774 27 l 774 3 q 768 -3 762 -5 q 759 -5 755 -6 q 751 -6 748 -6 q 739 -6 733 -3 q 729 0 726 2 q 723 4 721 9 q 720 13 718 17 q 717 21 717 25 q 717 31 718 34 q 720 37 721 42 q 724 51 732 54 q 735 55 740 56 q 744 58 748 58 q 756 58 760 55 q 766 54 768 49 q 772 45 774 40 l 766 39 q 766 40 762 45 q 762 48 756 49 l 748 49 l 739 49 q 735 48 732 45 q 732 43 727 39 q 727 36 726 33 q 726 30 726 27 q 726 16 729 13 q 735 4 736 3 q 741 1 748 1 q 754 1 759 3 q 762 6 764 6 q 765 6 766 7 l 766 19 z m 657 -5 l 657 58 l 684 58 q 688 58 691 56 q 694 55 697 55 q 702 54 703 49 q 706 46 706 40 q 706 33 702 28 q 700 27 696 26 q 693 25 688 22 q 691 22 692 22 q 693 21 694 21 q 696 18 696 16 q 697 13 700 10 l 712 -5 l 702 -5 l 693 7 q 690 10 689 12 q 688 15 687 16 q 687 19 686 19 q 684 19 682 21 l 681 21 q 679 21 679 22 q 679 22 678 22 l 675 22 l 664 22 l 664 -5 z m 505 -5 l 505 58 l 514 58 l 514 1 l 544 1 l 544 -5 z m 961 16 l 969 15 q 966 3 960 0 q 954 -6 943 -6 q 934 -6 928 -3 q 924 0 922 3 q 921 6 918 9 q 915 21 915 27 q 915 33 918 45 q 925 52 928 54 q 933 55 936 56 q 939 58 943 58 q 948 58 952 56 q 957 55 960 54 q 963 51 965 48 q 967 45 969 40 l 960 39 q 960 45 954 48 q 951 49 943 49 q 934 49 931 48 q 928 46 928 44 q 927 42 924 39 q 924 36 923 33 q 922 30 922 27 q 922 18 927 13 q 927 10 928 8 q 930 6 931 3 q 936 1 943 1 q 951 1 955 6 q 960 10 961 16 z m 1047 -5 l 1047 58 l 1059 58 l 1074 13 q 1074 10 1076 8 q 1077 6 1077 3 q 1077 4 1080 13 l 1093 58 l 1105 58 l 1105 -5 l 1098 -5 l 1098 46 l 1080 -5 l 1072 -5 l 1054 48 l 1054 -5 z m 610 21 l 631 21 l 624 39 q 622 42 622 44 q 622 46 619 49 q 619 45 616 39 z m 352 -5 l 352 3 l 363 3 l 363 -5 z m 844 -5 l 844 58 l 852 58 l 852 1 l 883 1 l 883 -5 z m 787 -5 l 787 58 l 832 58 l 832 49 l 795 49 l 795 30 l 829 30 l 829 22 l 795 22 l 795 1 l 832 1 l 832 -5 z m 565 -5 l 565 21 l 541 58 l 552 58 l 564 39 q 567 30 570 28 q 571 30 572 33 q 574 36 577 39 l 589 58 l 598 58 l 573 21 l 573 -5 z m 376 -5 l 376 58 l 400 58 q 403 58 406 56 q 408 55 409 55 q 415 54 417 49 q 420 46 420 40 q 420 36 417 34 q 415 28 411 28 q 415 27 420 22 q 423 16 423 13 q 423 10 422 8 q 421 7 421 6 q 420 0 415 0 q 414 -3 412 -3 q 411 -3 409 -5 l 400 -5 z m 205 -5 l 187 58 l 196 58 l 205 16 q 207 12 207 9 q 207 6 208 3 q 210 10 210 15 l 222 58 l 232 58 l 241 25 q 243 18 244 14 q 246 9 246 3 q 247 6 247 9 q 247 12 249 16 l 259 58 l 267 58 l 249 -5 l 241 -5 l 229 42 q 228 46 228 49 q 226 46 226 42 l 213 -5 z m 123 -5 l 105 58 l 115 58 l 123 16 q 123 9 127 3 q 129 10 129 15 l 141 58 l 150 58 l 160 25 q 162 18 162 14 q 163 9 163 3 q 166 6 166 9 q 166 12 168 16 l 177 58 l 186 58 l 168 -5 l 160 -5 l 148 42 q 147 46 147 49 q 144 46 144 42 l 130 -5 z m 384 30 l 397 30 q 403 30 405 33 q 409 33 409 34 q 411 36 411 40 q 411 45 409 46 l 408 46 q 406 46 406 47 q 406 48 405 48 q 403 49 396 49 l 384 49 z m 285 -5 l 268 58 l 277 58 l 286 16 q 288 12 288 9 q 288 6 291 3 q 291 9 292 11 q 292 13 292 15 l 304 58 l 313 58 l 324 25 q 325 18 326 14 q 327 9 327 3 q 330 6 330 9 q 330 12 331 16 l 342 58 l 349 58 l 331 -5 l 324 -5 l 312 42 q 310 46 310 49 q 307 46 307 42 l 294 -5 z m 664 28 l 682 28 q 685 28 688 29 q 690 30 693 30 q 696 30 696 34 q 697 36 697 40 q 697 45 694 48 q 693 49 684 49 l 664 49 z m 384 1 l 400 1 q 403 1 405 3 l 409 3 q 411 6 414 7 l 414 13 q 414 16 411 19 q 411 22 408 22 l 397 22 l 384 22 z m 435 -5 l 435 58 l 442 58 l 442 -5 z m 985 25 q 985 12 990 7 q 996 1 1006 1 q 1017 1 1021 7 q 1027 12 1027 27 q 1027 34 1026 39 q 1023 46 1018 48 q 1014 49 1006 49 q 997 49 993 45 q 985 39 985 25 z m 976 25 q 976 42 985 49 q 991 58 1006 58 q 1011 58 1014 56 q 1018 55 1021 54 q 1026 52 1028 49 q 1030 46 1033 42 q 1035 39 1035 27 q 1035 13 1032 9 q 1027 1 1021 -3 q 1015 -6 1006 -6 q 1002 -6 998 -6 q 994 -5 990 -3 q 987 0 984 3 q 982 6 981 9 q 979 13 978 17 q 976 21 976 25 z m 592 -5 l 616 58 l 625 58 l 651 -5 l 642 -5 l 634 13 l 609 13 l 600 -5 z m 459 -5 l 459 58 l 466 58 l 466 1 l 495 1 l 495 -5 z m 892 -5 l 892 3 l 903 3 l 903 -5 z m 748 19 l 748 27 l 774 27 l 774 3 q 768 -3 762 -5 q 759 -5 755 -6 q 751 -6 748 -6 q 739 -6 733 -3 q 729 0 726 2 q 723 4 721 9 q 720 13 718 17 q 717 21 717 25 q 717 31 718 34 q 720 37 721 42 q 724 51 732 54 q 735 55 740 56 q 744 58 748 58 q 756 58 760 55 q 766 54 768 49 q 772 45 774 40 l 766 39 q 766 40 762 45 q 762 48 756 49 l 748 49 l 739 49 q 735 48 732 45 q 732 43 727 39 q 727 36 726 33 q 726 30 726 27 q 726 16 729 13 q 735 4 736 3 q 741 1 748 1 q 754 1 759 3 q 762 6 764 6 q 765 6 766 7 l 766 19 z m 657 -5 l 657 58 l 684 58 q 688 58 691 56 q 694 55 697 55 q 702 54 703 49 q 706 46 706 40 q 706 33 702 28 q 700 27 696 26 q 693 25 688 22 q 691 22 692 22 q 693 21 694 21 q 696 18 696 16 q 697 13 700 10 l 712 -5 l 702 -5 l 693 7 q 690 10 689 12 q 688 15 687 16 q 687 19 686 19 q 684 19 682 21 l 681 21 q 679 21 679 22 q 679 22 678 22 l 675 22 l 664 22 l 664 -5 z m 505 -5 l 505 58 l 514 58 l 514 1 l 544 1 l 544 -5 z m 961 16 l 969 15 q 966 3 960 0 q 954 -6 943 -6 q 934 -6 928 -3 q 924 0 922 3 q 921 6 918 9 q 915 21 915 27 q 915 33 918 45 q 925 52 928 54 q 933 55 936 56 q 939 58 943 58 q 948 58 952 56 q 957 55 960 54 q 963 51 965 48 q 967 45 969 40 l 960 39 q 960 45 954 48 q 951 49 943 49 q 934 49 931 48 q 928 46 928 44 q 927 42 924 39 q 924 36 923 33 q 922 30 922 27 q 922 18 927 13 q 927 10 928 8 q 930 6 931 3 q 936 1 943 1 q 951 1 955 6 q 960 10 961 16 z m 1047 -5 l 1047 58 l 1059 58 l 1074 13 q 1074 10 1076 8 q 1077 6 1077 3 q 1077 4 1080 13 l 1093 58 l 1105 58 l 1105 -5 l 1098 -5 l 1098 46 l 1080 -5 l 1072 -5 l 1054 48 l 1054 -5 z m 175 111 l 187 106 q 184 93 174 84 q 162 75 148 75 q 135 75 123 81 q 111 90 109 99 q 103 109 103 124 q 103 141 109 151 q 114 162 124 166 q 135 172 148 172 q 165 172 171 165 q 181 162 186 145 l 174 144 q 168 156 163 157 q 157 163 148 163 q 136 163 130 157 q 121 151 118 144 q 117 138 117 124 q 117 111 121 105 q 124 94 130 91 q 138 85 147 85 q 159 85 166 93 q 169 96 172 100 q 174 105 175 111 z m 199 123 q 199 135 202 144 q 205 153 213 159 q 219 166 227 169 q 235 172 244 172 q 258 172 268 166 q 277 162 285 150 q 291 135 291 124 q 291 117 290 111 q 288 105 285 99 q 277 87 267 81 q 255 75 244 75 q 237 75 232 76 q 226 78 220 81 q 210 87 205 99 q 199 109 199 123 z m 213 123 q 213 105 220 94 q 231 85 244 85 q 259 85 267 97 q 277 108 277 124 q 277 130 276 134 q 274 139 273 144 q 270 154 261 157 q 256 163 244 163 q 232 163 222 153 q 213 145 213 123 z m 306 78 l 306 171 l 324 171 l 346 105 q 351 96 351 91 q 354 94 357 106 l 381 171 l 396 171 l 396 78 l 384 78 l 384 156 l 357 78 l 345 78 l 318 157 l 318 78 z m 417 78 l 417 171 l 453 171 l 466 171 q 474 171 478 166 q 480 165 486 157 q 487 154 488 151 q 489 148 489 144 q 489 135 481 124 q 474 117 453 117 l 429 117 l 429 78 z m 429 126 l 454 126 q 468 126 469 132 q 475 133 475 144 q 475 151 474 153 q 468 159 463 159 q 462 162 453 162 l 429 162 z m 505 78 l 505 171 l 517 171 l 517 87 l 564 87 l 564 78 z m 579 78 l 579 171 l 648 171 l 648 162 l 591 162 l 591 132 l 643 132 l 643 120 l 591 120 l 591 87 l 649 87 l 649 78 z m 690 78 l 690 162 l 658 162 l 658 171 l 735 171 l 735 162 l 703 162 l 703 78 z m 748 78 l 748 171 l 817 171 l 817 162 l 760 162 l 760 132 l 813 132 l 813 120 l 760 120 l 760 87 l 819 87 l 819 78 z m 870 106 l 882 108 q 882 100 885 97 q 888 91 895 88 q 898 87 909 87 q 912 87 916 87 q 919 87 922 88 q 927 88 930 94 q 931 97 931 103 q 931 108 930 111 q 928 112 926 113 q 924 114 921 117 q 919 117 904 120 q 897 123 892 124 q 888 124 885 126 q 879 129 876 136 q 873 138 872 141 q 871 144 871 147 q 871 156 877 162 q 879 165 882 166 q 885 168 889 171 q 892 172 907 172 q 918 172 924 169 q 928 166 931 164 q 934 163 936 159 q 942 154 942 145 l 930 144 q 927 156 922 157 q 918 162 907 162 q 892 162 889 157 q 885 153 885 147 q 885 142 889 139 q 889 139 907 132 q 915 130 920 128 q 925 127 928 126 q 933 124 935 122 q 937 120 940 117 q 943 112 943 103 q 943 93 940 88 q 934 82 928 79 q 924 78 920 76 q 915 75 909 75 q 903 75 897 76 q 891 78 888 79 q 880 81 873 91 q 870 97 870 106 z m 961 78 l 961 171 l 1029 171 l 1029 162 l 975 162 l 975 132 l 1027 132 l 1027 120 l 975 120 l 975 87 l 1032 87 l 1032 78 z m 1074 78 l 1074 162 l 1044 162 l 1044 171 l 1117 171 l 1117 162 l 1086 162 l 1086 78 z m 112 190 l 112 283 l 150 283 l 163 283 q 166 283 175 280 q 177 279 179 276 q 181 273 183 270 q 186 267 186 259 q 186 246 177 237 q 172 229 150 229 l 127 229 l 127 190 z m 127 241 l 150 241 q 163 241 168 244 q 174 250 174 256 q 174 259 172 262 q 171 265 169 268 q 165 273 162 273 q 160 274 150 274 l 127 274 z m 201 190 l 201 283 l 268 283 l 268 274 l 214 274 l 214 244 l 265 244 l 265 234 l 214 234 l 214 202 l 271 202 l 271 190 z m 288 190 l 288 283 l 331 283 q 345 283 351 282 q 358 279 361 274 q 364 262 364 259 q 364 249 358 243 q 352 237 337 234 q 340 231 342 231 q 343 231 345 229 q 352 222 355 216 l 372 190 l 357 190 l 343 210 q 342 214 340 217 q 337 220 336 223 q 333 225 332 227 q 331 229 330 229 q 327 231 324 231 q 322 234 316 234 l 303 234 l 303 190 z m 303 243 l 327 243 q 339 243 342 244 q 346 249 349 250 q 351 253 351 259 q 351 265 346 270 q 342 274 331 274 l 303 274 z m 381 222 l 391 222 q 391 219 392 216 q 394 213 396 210 q 397 208 400 206 q 402 204 405 204 q 414 201 420 201 q 423 201 426 201 q 429 201 430 202 q 439 205 441 208 q 441 210 442 212 q 442 214 442 216 q 442 222 441 223 q 436 226 430 229 q 429 231 425 231 q 421 231 415 234 q 402 235 396 240 q 388 246 385 249 q 384 253 384 261 q 384 264 384 268 q 385 271 388 274 q 390 280 400 283 q 403 286 417 286 q 429 286 435 283 q 444 279 447 273 q 453 264 453 259 l 441 256 q 438 267 433 270 q 427 276 417 276 q 405 276 400 270 q 396 267 396 261 q 396 255 400 253 q 402 250 417 247 q 430 241 439 241 q 442 238 445 236 q 448 234 450 231 q 454 226 454 217 q 454 210 450 204 q 447 199 444 197 q 442 195 439 192 q 427 189 420 189 q 409 189 397 192 q 393 195 390 197 q 387 199 384 204 q 382 208 382 212 q 381 216 381 222 z m 468 237 q 468 258 480 273 q 493 286 513 286 q 519 286 524 284 q 529 283 537 280 q 543 277 546 272 q 549 268 552 262 q 558 252 558 237 q 558 223 552 211 q 546 201 537 195 q 525 189 513 189 q 499 189 489 196 q 475 204 474 214 q 468 222 468 237 z m 480 237 q 480 219 489 210 q 498 201 513 201 q 528 201 537 210 q 544 220 544 237 q 544 243 544 249 q 543 255 540 259 q 535 267 531 270 q 523 276 513 276 q 505 276 500 274 q 496 271 489 267 q 480 258 480 237 z m 573 190 l 573 283 l 586 283 l 636 211 l 636 283 l 648 283 l 648 190 l 636 190 l 585 264 l 585 190 z m 658 190 l 694 283 l 708 283 l 747 190 l 732 190 l 721 220 l 682 220 l 670 190 z m 684 229 l 717 229 l 708 255 q 705 261 704 266 q 702 271 700 274 q 700 270 698 266 q 697 261 696 256 z m 754 190 l 754 283 l 768 283 l 768 202 l 814 202 l 814 190 z m 922 283 l 934 283 l 934 231 q 934 214 931 208 q 928 199 921 195 q 913 189 898 189 q 883 189 877 195 q 873 196 870 200 q 867 204 864 208 q 862 211 862 231 l 862 283 l 873 283 l 873 231 q 873 216 876 211 q 879 205 883 204 q 886 202 889 202 q 892 201 897 201 q 909 201 916 205 q 922 211 922 231 z m 951 222 l 963 222 q 963 219 964 216 q 966 213 967 210 q 969 208 971 206 q 973 204 976 204 q 985 201 990 201 q 1000 201 1005 202 q 1008 204 1012 208 q 1014 210 1014 216 q 1014 222 1012 223 q 1009 225 1008 226 q 1008 228 1005 229 q 1002 231 998 231 q 993 231 987 234 q 981 235 976 236 q 970 237 969 240 q 961 243 960 249 q 955 253 955 261 q 955 267 960 274 q 961 280 970 283 q 976 286 988 286 q 993 286 998 286 q 1003 286 1006 283 q 1015 279 1020 273 q 1021 270 1022 266 q 1024 262 1024 259 l 1012 256 q 1009 261 1008 264 q 1008 268 1005 270 q 1000 276 988 276 q 975 276 973 270 q 967 268 967 261 q 967 256 970 253 q 973 250 988 247 q 1005 241 1009 241 q 1014 238 1017 236 q 1020 234 1021 231 q 1026 228 1026 217 q 1026 208 1021 204 q 1018 199 1016 197 q 1014 195 1009 192 q 1000 189 993 189 q 985 189 980 190 q 975 190 970 192 q 967 195 964 197 q 960 199 957 204 q 954 208 952 212 q 951 216 951 222 z m 1044 190 l 1044 283 l 1111 283 l 1111 274 l 1057 274 l 1057 244 l 1107 244 l 1107 234 l 1057 234 l 1057 202 l 1113 202 l 1113 190 z m 307 388 q 307 403 285 406 q 282 406 278 407 q 273 408 267 408 l 258 397 l 234 372 q 228 364 222 358 q 217 352 210 348 q 219 345 232 343 q 235 343 240 343 q 246 343 250 345 q 273 346 285 357 q 307 375 307 388 z m 324 433 q 324 439 316 439 q 313 439 291 432 l 274 417 q 271 414 268 408 l 294 412 q 300 412 310 420 q 324 429 324 433 z m 343 460 q 343 457 339 457 q 336 457 335 458 q 334 459 331 459 q 316 456 297 436 q 300 439 304 440 q 307 442 310 444 q 321 445 330 444 q 336 444 336 436 l 336 430 q 328 417 294 409 q 321 406 321 391 q 321 373 292 354 q 282 348 270 344 q 259 340 247 339 q 228 334 217 336 q 208 336 198 340 q 189 334 181 334 l 178 334 q 169 337 163 339 l 168 339 q 180 339 187 345 l 187 346 q 177 340 165 340 q 148 340 139 349 q 124 360 124 381 q 124 387 126 392 q 127 397 130 405 q 141 427 166 444 q 174 451 182 454 q 190 456 198 457 q 214 457 220 451 q 213 456 205 456 q 196 456 186 450 q 171 444 169 441 q 154 433 139 415 q 126 394 126 379 q 126 372 128 368 q 129 363 132 358 q 138 349 148 346 q 153 345 156 344 q 159 343 162 343 q 168 343 172 344 q 177 346 183 349 q 166 361 166 382 q 169 402 190 417 l 187 412 q 184 412 181 406 q 172 397 172 387 q 172 367 195 354 q 207 361 207 363 q 210 367 213 370 q 216 373 219 376 q 222 379 222 384 q 223 388 226 393 l 226 391 q 226 384 225 379 l 243 400 q 289 453 319 462 q 306 466 298 466 q 279 465 256 453 q 229 439 229 420 q 229 414 234 409 q 235 408 235 406 q 226 412 226 421 q 226 438 246 454 q 270 472 297 469 q 306 469 324 463 l 330 463 q 337 463 342 460 z m 346 363 q 345 357 334 346 q 324 340 316 340 q 309 340 309 349 q 309 357 318 369 l 316 369 q 315 367 310 367 q 310 367 309 369 q 313 369 324 379 l 325 379 l 330 385 q 334 390 334 393 l 339 393 q 343 393 343 391 q 343 385 334 375 l 324 364 q 315 351 315 346 q 315 342 321 342 q 328 342 339 357 q 340 358 342 359 q 343 360 346 363 z m 354 405 q 348 396 339 396 q 334 396 328 400 l 333 400 q 343 400 346 411 l 346 414 l 354 411 q 355 409 354 405 z m 406 433 q 406 426 360 370 l 358 370 q 345 354 345 345 q 345 340 349 340 q 358 340 369 355 q 370 357 372 358 q 373 358 375 361 q 375 354 363 345 q 355 339 346 339 q 337 340 337 348 q 336 355 367 394 l 385 417 l 394 426 q 399 432 402 441 q 406 438 406 433 z m 432 433 q 432 427 384 370 q 369 352 369 345 q 369 340 375 340 q 381 340 394 355 l 400 361 q 399 354 387 345 q 379 339 370 339 q 361 340 361 348 q 361 357 391 394 l 409 417 l 418 426 q 426 435 427 441 q 432 438 432 433 z m 403 333 q 379 328 366 315 q 355 301 355 298 q 355 292 361 292 q 363 291 372 294 q 375 297 378 300 q 382 304 387 309 z m 447 430 q 444 409 427 393 q 427 391 426 391 q 426 391 426 390 q 421 384 416 378 q 411 373 406 366 q 403 363 403 360 q 402 363 405 369 q 396 355 396 348 q 396 343 400 343 q 402 343 408 346 q 430 364 439 397 l 439 393 l 439 388 q 442 385 442 381 q 442 378 435 366 l 423 346 l 409 328 q 414 331 426 337 l 424 336 q 421 333 416 329 q 411 325 406 318 l 394 303 l 388 295 q 379 286 369 283 q 360 283 355 289 q 346 292 352 303 q 354 304 356 307 q 357 310 360 313 l 361 315 l 351 313 q 376 331 393 333 q 394 333 396 334 q 397 334 399 334 l 400 334 l 403 334 l 412 348 q 406 342 402 341 q 397 340 394 340 q 387 340 387 348 q 387 366 418 394 l 421 396 l 436 411 q 439 417 442 422 q 445 426 447 430 z m 618 453 q 609 456 603 456 q 588 456 575 452 q 562 448 549 441 q 543 438 539 434 q 535 430 531 427 q 549 426 579 408 q 612 441 636 450 z m 649 447 q 643 445 636 443 q 630 441 622 433 q 618 430 600 412 l 589 402 l 604 393 q 607 397 613 404 q 619 411 627 420 z m 663 472 q 663 471 661 469 q 661 459 657 448 l 658 447 l 657 447 q 649 429 637 417 l 613 388 q 616 387 618 387 q 619 387 622 385 q 622 382 621 382 q 618 382 616 383 q 615 384 612 385 q 594 366 592 349 q 589 343 589 340 q 589 334 595 334 q 607 334 621 354 l 627 363 q 642 384 646 400 l 646 405 q 646 403 648 402 l 648 400 q 645 379 633 361 l 613 322 q 613 328 618 342 q 600 328 591 328 q 577 328 580 346 q 580 355 586 366 q 592 378 601 391 l 586 399 l 573 385 q 568 379 560 370 q 552 361 540 346 q 516 322 498 322 l 493 322 q 489 322 480 327 q 480 327 483 327 q 496 324 510 337 q 498 331 481 331 q 465 331 454 339 l 456 339 q 441 349 441 370 q 441 385 447 393 q 456 417 481 433 q 490 441 498 443 q 507 445 516 447 q 531 447 537 441 l 535 441 q 532 444 522 444 q 507 444 484 430 q 468 418 456 405 q 442 384 442 367 q 442 343 465 336 q 474 333 478 333 q 510 334 547 375 l 576 405 q 553 418 525 418 l 523 418 q 520 412 520 405 q 522 405 528 396 q 517 402 517 411 q 517 415 519 418 q 504 415 499 412 q 472 402 475 381 q 475 367 484 357 l 487 354 q 469 372 469 385 q 469 405 487 418 q 502 429 525 429 q 546 453 577 457 q 585 459 601 459 q 609 459 624 456 l 642 451 l 651 451 l 652 450 q 658 460 661 475 l 663 475 z m 682 375 q 682 370 681 367 q 673 360 668 354 q 663 348 658 340 l 660 340 l 661 340 q 660 339 658 339 q 657 339 657 337 q 649 337 649 340 q 649 346 663 360 q 673 373 673 376 q 675 381 669 385 q 651 360 637 354 l 631 351 l 628 352 q 634 352 648 367 q 661 379 666 387 q 666 388 665 388 q 664 388 664 390 q 664 391 675 400 q 675 402 676 402 l 678 400 q 678 399 670 388 q 682 384 682 375 z m 726 379 q 726 388 720 385 q 714 385 711 382 q 706 379 697 367 q 688 355 688 348 q 687 345 691 345 q 700 348 706 355 q 712 367 712 372 q 712 375 711 375 q 717 375 717 367 l 715 364 q 718 367 720 371 q 723 375 726 378 z m 754 393 q 748 393 741 385 q 735 378 729 369 q 723 360 715 348 q 708 333 702 324 q 696 316 694 313 q 675 289 664 289 q 655 288 651 295 q 651 303 651 303 q 651 310 657 316 q 654 315 649 315 q 664 330 682 334 q 684 334 684 335 q 685 336 688 336 l 690 334 q 661 325 655 307 q 654 304 654 300 q 654 298 655 297 q 655 295 657 295 q 669 294 685 318 l 696 333 l 702 342 q 697 340 694 340 q 682 340 682 352 q 682 366 702 384 q 711 393 718 393 q 729 393 729 381 l 730 381 l 738 390 q 745 397 751 397 q 756 397 759 393 z m 781 382 q 781 373 765 364 q 763 363 762 363 l 760 363 q 756 363 751 370 q 754 367 759 367 q 769 373 772 384 l 772 387 l 772 388 l 772 390 q 766 390 753 376 l 753 375 q 748 369 748 365 q 747 361 747 358 q 745 360 745 367 q 742 361 741 357 q 738 351 738 346 q 738 345 739 343 q 739 340 745 340 q 760 346 771 355 q 774 358 778 361 q 775 357 772 353 q 769 349 762 345 q 750 337 741 340 q 741 339 739 340 q 730 340 730 349 q 730 364 747 379 q 756 393 771 393 q 774 393 775 391 q 781 387 781 382 z m 841 433 q 841 427 793 370 q 780 354 780 345 q 780 340 784 340 q 793 340 804 355 q 805 357 806 358 q 808 358 810 361 q 810 354 798 345 q 790 339 780 339 q 772 342 772 348 q 772 360 801 394 l 819 417 l 828 426 q 837 435 837 441 q 841 438 841 433 z m 922 387 q 897 396 895 415 q 888 411 880 407 q 873 403 868 399 q 840 372 840 349 q 840 340 844 339 l 847 339 l 850 339 q 873 339 892 354 q 898 360 906 368 q 915 375 922 387 z m 952 430 l 940 430 q 922 429 897 417 q 900 396 925 391 l 936 405 z m 979 457 q 960 457 944 454 q 928 451 916 444 q 924 451 935 456 q 946 460 960 463 q 930 465 907 445 q 903 442 897 430 q 907 433 917 434 q 927 436 939 435 q 942 435 946 435 q 951 435 958 433 q 961 438 966 444 q 972 450 979 457 z m 1074 459 q 1071 454 1067 450 q 1063 447 1056 444 q 1044 436 1033 436 l 1030 436 q 1029 436 1027 438 q 1029 439 1029 440 q 1029 442 1032 445 q 1018 456 994 456 l 988 448 l 973 430 q 985 429 996 428 q 1006 426 1015 426 q 1036 426 1044 430 q 1038 424 1021 421 q 1008 418 994 423 l 970 427 q 964 420 959 414 q 954 409 951 403 l 940 388 l 948 388 q 985 391 991 406 l 993 406 q 988 397 973 390 q 966 387 959 386 q 952 384 946 384 l 939 384 q 928 372 922 363 q 915 354 909 348 q 889 327 873 327 q 865 328 856 328 q 871 328 888 343 q 867 334 855 334 l 846 336 l 858 324 q 846 330 838 337 q 837 337 831 340 q 813 354 811 375 q 811 382 811 388 q 811 394 814 400 q 819 414 826 424 q 834 433 844 444 q 870 466 889 466 q 900 466 907 460 l 906 459 q 901 463 892 463 q 873 460 852 444 q 834 429 825 414 q 813 393 813 375 q 816 348 837 340 q 834 349 835 358 q 838 381 852 397 q 868 418 897 430 q 900 433 900 439 l 913 453 q 933 469 964 469 q 972 469 977 469 q 982 469 990 468 l 991 468 q 1002 475 1010 479 q 1018 483 1027 481 q 1033 481 1036 478 q 1020 475 1020 475 q 1017 474 1013 472 q 1009 471 1005 468 q 1011 466 1017 466 q 1023 465 1030 462 q 1045 457 1054 457 q 1068 457 1074 459 z m 982 354 q 978 358 978 364 q 978 367 978 370 q 979 372 979 375 q 964 355 966 346 q 966 343 969 343 q 972 343 982 354 z m 1002 385 q 1002 388 999 388 q 996 388 993 387 q 991 385 988 379 q 981 364 981 360 q 981 355 982 354 l 987 358 l 987 360 l 987 358 q 988 360 988 360 q 988 361 990 363 q 993 372 993 375 q 993 376 991 378 q 994 372 994 370 q 999 375 1002 385 z m 1008 381 q 1008 373 997 358 q 984 345 978 340 l 966 340 q 957 340 957 348 q 957 360 973 379 q 984 393 997 393 q 1008 393 1008 381 z m 1057 384 q 1059 381 1051 367 q 1042 355 1039 352 l 1021 336 q 1011 325 1008 313 q 1009 331 1021 345 q 1027 351 1030 356 q 1033 360 1036 366 q 1038 367 1039 372 l 1039 367 q 1039 367 1038 364 q 1041 367 1047 379 q 1047 381 1048 382 q 1048 382 1048 384 q 1048 391 1041 388 q 1041 388 1029 379 q 1026 372 1020 366 q 1015 361 1009 354 q 1002 345 1000 340 q 999 339 993 327 q 993 330 992 334 q 991 337 993 340 q 996 351 1006 361 l 1015 372 q 1023 382 1023 388 q 1023 390 1022 392 q 1021 393 1021 394 q 1030 391 1030 385 q 1039 393 1050 393 q 1056 390 1057 384 z m 1116 405 l 1093 405 q 1092 402 1084 393 q 1075 384 1063 367 q 1060 367 1057 360 q 1051 352 1051 345 q 1051 340 1054 340 q 1062 340 1075 355 l 1077 357 q 1078 358 1078 359 q 1078 360 1080 361 q 1080 354 1069 345 q 1062 339 1051 339 q 1044 342 1042 348 q 1042 351 1048 363 l 1066 384 l 1083 405 l 1057 408 q 1051 409 1042 409 l 1029 409 q 1011 409 993 402 l 991 402 q 1006 417 1038 417 q 1039 417 1050 414 q 1062 412 1083 409 l 1087 408 q 1092 415 1096 420 q 1099 426 1102 430 q 1105 429 1105 423 q 1105 418 1102 415 l 1096 406 l 1108 405 l 1117 405 l 1119 405 l 1123 405 z m 1126 385 q 1126 381 1116 376 l 1114 375 q 1119 379 1119 387 l 1119 393 l 1114 393 q 1107 393 1105 387 q 1105 384 1110 361 q 1111 340 1086 340 q 1072 340 1069 349 q 1068 351 1068 354 q 1068 366 1086 369 l 1092 367 l 1089 367 q 1083 367 1080 364 q 1075 357 1075 354 q 1075 342 1087 342 q 1099 342 1099 358 q 1099 366 1098 370 q 1096 375 1096 381 q 1096 396 1110 396 q 1113 396 1114 395 q 1116 394 1119 394 q 1125 391 1125 390 q 1126 388 1126 385 z"},"e":{"x_min":0,"x_max":305,"ha":305,"o":"m 115 60 q 146 62 172 88 q 197 114 218 152 q 239 190 257 233 q 275 276 289 312 q 292 320 299 319 q 306 318 312 313 q 319 308 322 300 q 326 292 323 285 q 318 269 308 242 q 298 216 284 184 q 270 152 252 119 q 233 86 211 58 q 189 31 164 14 q 138 -4 110 -4 q 68 -5 39 15 q 10 35 -6 69 q -22 103 -27 147 q -32 191 -28 238 q -24 285 -12 331 q 0 377 19 416 l 20 417 q 47 471 78 496 q 108 520 137 522 q 166 524 190 504 q 214 485 228 450 q 240 422 239 390 q 238 359 229 328 q 220 296 202 267 q 185 238 162 216 q 140 195 114 182 q 87 169 59 170 q 57 146 58 125 q 60 104 66 89 q 72 74 84 66 q 96 58 115 60 z m 72 225 q 109 224 136 247 q 162 270 178 304 q 193 337 198 373 q 204 409 199 434 q 194 458 180 463 q 166 468 142 439 q 129 424 118 397 q 108 370 100 340 q 91 311 84 280 q 77 250 72 225 z"},"b":{"x_min":0,"x_max":420,"ha":420,"o":"m 132 456 q 164 508 226 508 q 238 508 252 502 q 265 495 278 484 q 290 472 299 454 q 308 437 311 413 q 323 324 303 242 q 283 160 242 100 q 287 113 320 154 q 353 195 371 237 l 408 321 q 411 329 418 329 q 424 329 430 324 q 436 320 439 312 q 442 303 441 294 q 436 268 426 246 q 417 225 406 204 q 393 170 372 145 q 352 120 325 95 q 297 69 264 56 q 231 43 198 47 q 188 36 168 22 q 148 9 126 2 q 104 -4 82 2 q 59 9 44 40 q 38 9 36 0 q 34 -8 28 -8 q 9 -8 -6 8 q -21 23 -32 44 q -42 66 -46 87 q -51 108 -49 120 q -40 179 -25 262 q -10 344 10 435 q 30 526 56 618 q 81 710 112 786 q 143 863 178 917 q 214 971 255 988 q 268 993 286 984 q 305 976 320 958 q 335 941 345 918 q 355 894 351 871 q 333 750 278 660 q 224 571 140 489 z m 188 458 q 165 458 144 420 q 123 382 107 325 q 96 283 102 236 q 107 188 138 139 q 144 127 152 120 q 167 146 181 180 q 195 214 205 253 q 215 292 219 334 q 223 377 218 420 q 216 442 206 450 q 197 458 188 458 z m 310 911 q 274 901 236 818 q 199 734 159 558 q 185 591 208 632 q 232 672 252 712 q 272 753 288 790 q 303 827 311 855 q 319 883 319 898 q 319 914 310 911 z m 89 61 q 106 61 126 83 q 89 122 75 199 l 66 151 q 60 125 61 108 q 62 91 66 80 q 70 70 76 66 q 83 61 89 61 z"},"m":{"x_min":0,"x_max":679,"ha":679,"o":"m 32 57 q 28 38 25 26 q 22 14 20 8 q 17 3 14 1 q 12 -1 9 -1 q -9 -1 -23 14 q -37 29 -46 49 q -55 69 -58 89 q -61 109 -59 120 q -52 159 -38 218 q -23 276 -11 336 q 1 396 10 448 q 18 499 14 525 q 13 536 21 536 q 29 537 42 532 q 55 526 70 514 q 86 503 100 488 q 113 474 120 458 q 128 442 127 426 q 125 420 122 406 q 120 391 115 373 q 144 438 180 481 q 215 524 262 519 q 317 512 335 442 q 340 425 339 401 q 338 377 334 347 q 350 385 367 418 q 384 450 404 474 q 423 497 445 510 q 467 523 493 520 q 547 513 566 443 q 574 413 568 368 q 562 324 550 277 q 539 230 526 187 q 512 144 508 117 q 503 92 506 80 q 510 68 518 65 q 525 62 535 70 q 545 77 553 91 q 563 108 578 136 q 594 164 612 195 q 629 226 644 258 q 659 291 669 318 q 673 328 679 330 q 685 333 690 329 q 696 325 700 316 q 703 308 700 296 q 687 253 668 202 q 648 151 624 106 q 599 61 572 30 q 544 -1 514 -3 q 472 -5 444 28 q 415 61 410 113 q 407 133 413 164 q 419 196 427 232 q 435 269 444 306 q 452 344 457 375 q 462 406 461 424 q 460 443 449 443 q 436 443 417 419 q 398 395 376 358 q 355 322 336 280 q 316 237 302 200 q 291 159 281 122 q 271 84 264 58 q 254 19 251 9 q 248 -1 242 -1 q 223 -1 209 14 q 195 29 186 49 q 177 69 174 89 q 171 109 173 120 q 185 182 200 245 q 216 308 226 374 q 231 404 230 423 q 229 442 218 442 q 205 442 186 418 q 167 393 146 356 q 124 318 104 276 q 83 233 69 196 z"},"n":{"x_min":0,"x_max":439,"ha":439,"o":"m 23 57 q 18 38 15 26 q 12 14 10 8 q 8 3 6 1 q 3 -1 0 -1 q -18 -1 -32 14 q -46 29 -55 49 q -64 69 -67 89 q -70 109 -68 120 q -61 159 -46 218 q -32 276 -19 336 q -6 396 2 448 q 10 499 6 525 q 5 536 13 536 q 21 537 34 532 q 47 526 62 514 q 78 503 91 488 q 104 474 112 458 q 119 442 118 426 q 116 417 112 396 q 107 376 100 347 q 115 383 131 416 q 147 450 166 474 q 184 497 205 510 q 226 523 252 520 q 305 515 324 443 q 332 412 326 367 q 321 322 310 276 q 299 230 286 187 q 274 144 269 117 q 263 92 266 79 q 270 66 278 64 q 285 62 295 70 q 305 77 313 91 q 323 108 338 136 q 353 164 370 196 q 386 227 402 260 q 417 292 427 318 q 431 329 437 331 q 443 333 448 329 q 454 325 458 316 q 461 308 459 296 q 446 253 427 202 q 408 151 383 106 q 358 61 330 30 q 302 -1 272 -3 q 230 -5 202 28 q 173 61 168 113 q 165 133 171 164 q 177 196 185 232 q 193 269 202 306 q 211 344 216 375 q 221 406 220 424 q 219 443 208 443 q 194 443 174 420 q 153 396 132 360 q 111 324 92 282 q 72 239 62 201 z"},"h":{"x_min":0,"x_max":440,"ha":440,"o":"m 131 489 q 121 451 113 420 q 105 389 96 351 q 112 387 129 419 q 146 451 166 474 q 185 498 206 510 q 228 523 254 520 q 308 513 327 443 q 335 412 328 368 q 322 325 310 280 q 299 234 286 192 q 272 149 267 122 q 263 97 266 85 q 269 73 276 71 q 283 69 294 76 q 304 82 312 96 q 323 113 338 140 q 354 168 371 198 q 388 229 404 260 q 419 292 429 318 q 433 329 439 331 q 445 333 450 329 q 456 325 460 316 q 463 308 461 296 q 448 253 429 202 q 410 151 385 106 q 360 61 332 30 q 304 -1 274 -3 q 233 -5 204 28 q 176 61 171 113 q 168 133 174 164 q 180 196 188 232 q 196 269 204 306 q 213 344 218 375 q 223 406 222 424 q 221 443 210 443 q 197 443 178 417 q 158 391 137 353 q 116 315 96 271 q 77 227 64 191 l 63 190 l 37 55 q 34 34 32 22 q 29 9 28 2 q 26 -4 24 -6 q 22 -8 18 -8 q 0 -8 -16 8 q -31 23 -41 44 q -51 66 -56 87 q -61 108 -59 120 q -50 179 -35 262 q -20 344 0 435 q 21 526 47 617 q 73 708 104 785 q 134 862 169 916 q 204 971 245 988 q 258 993 276 984 q 295 976 310 958 q 326 941 336 918 q 346 894 342 871 q 323 750 268 660 q 214 571 131 489 z m 300 911 q 264 901 227 818 q 190 734 150 558 q 176 591 200 632 q 223 672 243 712 q 263 753 278 790 q 294 827 302 855 q 310 883 310 898 q 309 914 300 911 z"},"z":{"x_min":0,"x_max":376,"ha":376,"o":"m -20 298 q -4 348 12 397 q 29 446 52 485 q 75 524 105 548 q 135 572 176 575 q 186 575 200 571 q 213 567 226 558 q 240 549 252 534 q 263 519 269 497 q 282 446 274 394 q 267 342 246 294 q 224 246 193 207 q 162 168 128 144 q 152 118 173 90 q 194 61 210 31 q 243 73 267 112 q 291 152 308 186 q 326 221 337 248 q 348 274 355 290 q 358 298 364 298 q 371 298 378 294 q 384 289 388 281 q 392 273 389 265 q 382 246 372 214 q 361 183 343 145 q 325 107 300 63 q 274 19 238 -27 q 262 -90 268 -155 q 273 -220 271 -294 q 270 -386 244 -454 q 218 -523 178 -568 q 139 -612 89 -634 q 39 -655 -9 -653 q -29 -651 -52 -641 q -74 -631 -95 -612 q -116 -592 -134 -564 q -152 -536 -162 -499 q -181 -434 -178 -384 q -174 -335 -150 -296 q -126 -256 -84 -220 q -42 -185 16 -147 q 57 -121 90 -93 q 124 -65 153 -35 q 133 19 103 68 q 73 116 31 148 q 27 152 29 160 q 31 169 35 178 q 39 188 44 196 q 49 204 53 205 q 87 226 110 263 q 134 300 148 341 q 161 382 165 420 q 169 458 162 481 q 156 499 143 498 q 130 498 114 484 q 99 471 84 446 q 69 421 61 393 q 56 386 49 370 q 42 355 35 336 q 28 317 22 299 q 15 281 11 269 q -3 256 -15 268 q -27 279 -20 298 z m 190 -247 q 191 -216 186 -178 q 180 -140 172 -103 q 143 -133 109 -160 q 75 -186 35 -216 q -14 -251 -51 -280 q -88 -309 -109 -341 q -130 -373 -134 -412 q -139 -451 -125 -506 q -121 -520 -112 -538 q -103 -556 -90 -572 q -77 -588 -59 -599 q -41 -610 -20 -611 q -1 -612 32 -604 q 66 -597 100 -560 q 133 -524 160 -450 q 186 -377 190 -247 z"},"B":{"x_min":0,"x_max":900,"ha":900,"o":"m -43 567 q -48 658 -29 736 q -10 815 25 880 q 60 944 109 994 q 158 1044 215 1078 q 272 1113 332 1131 q 393 1149 452 1150 q 486 1152 527 1148 q 568 1144 611 1134 q 654 1123 696 1106 q 737 1088 772 1062 q 808 1035 836 998 q 863 962 877 915 q 895 855 889 800 q 883 745 862 695 q 841 645 807 602 q 773 558 734 520 q 695 482 654 451 q 614 420 579 396 q 616 402 654 396 q 692 389 722 366 q 751 344 768 306 q 784 268 777 209 q 769 139 736 78 q 703 18 652 -25 q 601 -68 538 -90 q 474 -112 405 -105 q 360 -101 316 -85 q 273 -69 236 -41 q 198 -13 170 26 q 141 65 127 114 q 115 156 114 193 q 113 230 123 255 q 133 277 140 275 q 146 273 147 238 q 150 169 174 117 q 199 65 237 30 q 275 -5 320 -22 q 365 -40 409 -39 q 477 -38 524 -12 q 570 14 597 54 q 624 95 634 144 q 645 192 640 239 q 637 276 619 300 q 601 325 579 338 q 557 352 536 358 q 514 363 504 361 l 502 361 l 501 361 q 490 359 486 366 q 482 372 488 378 q 509 400 540 436 q 571 472 603 516 q 635 560 666 610 q 697 660 718 712 q 739 763 748 813 q 757 863 745 907 q 730 965 696 1000 q 663 1036 622 1056 q 581 1075 538 1081 q 496 1087 463 1085 q 402 1082 346 1050 q 291 1018 244 964 q 196 911 159 842 q 122 772 99 694 q 76 616 68 534 q 60 451 71 372 q 71 360 54 374 q 37 387 17 416 q -3 445 -22 485 q -41 525 -43 567 z m 463 114 q 457 108 443 114 q 429 120 412 136 q 396 152 380 178 q 365 203 355 235 q 349 251 352 294 q 356 338 365 396 q 374 455 387 522 q 400 589 412 652 q 423 714 433 766 q 443 819 445 849 q 447 871 447 887 q 447 903 444 913 q 439 927 448 928 q 458 928 473 920 q 488 911 507 896 q 526 880 542 860 q 558 841 566 820 q 575 798 571 780 q 556 712 538 644 q 521 575 505 508 q 489 442 476 381 q 463 320 456 268 q 449 216 450 176 q 451 136 463 114 z"},"K":{"x_min":0,"x_max":389,"ha":389,"o":"m 91 308 q 136 432 188 554 q 239 676 300 789 q 361 902 432 1001 q 503 1100 586 1176 q 670 1251 768 1298 q 866 1345 980 1356 q 1014 1358 1050 1354 q 1087 1349 1122 1327 q 1138 1317 1149 1307 q 1160 1297 1163 1290 q 1166 1283 1158 1280 q 1151 1277 1132 1280 q 1055 1296 979 1281 q 903 1266 830 1227 q 757 1188 688 1129 q 618 1070 555 996 q 492 923 434 839 q 377 755 328 668 q 280 581 240 494 q 200 406 171 324 q 205 212 240 127 q 276 42 313 -20 q 350 -81 388 -122 q 425 -163 462 -187 q 480 -199 485 -206 q 490 -212 486 -216 q 483 -220 473 -222 q 463 -224 450 -225 q 401 -231 360 -204 q 319 -178 291 -133 q 235 -42 193 66 q 171 121 156 166 q 140 212 134 243 l 130 235 q 109 194 100 162 q 90 130 90 120 q 87 108 85 107 q 78 64 84 14 q 90 -35 120 -85 q 114 -91 102 -84 q 89 -77 72 -60 q 56 -43 38 -18 q 19 8 2 39 q -32 104 -37 184 q -42 265 -28 352 q -15 439 8 529 q 32 619 54 702 q 76 786 90 860 q 103 933 96 988 q 87 1043 72 1084 q 68 1096 77 1094 q 86 1092 102 1080 q 118 1069 138 1050 q 158 1030 176 1007 q 193 984 206 960 q 218 935 219 913 q 221 863 212 806 q 203 750 188 690 q 174 629 155 566 q 136 503 118 440 q 101 378 86 318 q 71 259 64 205 z"},"R":{"x_min":0,"x_max":756,"ha":756,"o":"m 567 -133 q 515 -47 476 46 q 436 138 415 239 q 402 237 386 234 q 370 231 351 231 q 341 177 332 128 q 324 79 320 40 q 317 0 318 -30 q 320 -59 328 -74 q 322 -81 308 -75 q 294 -69 278 -52 q 261 -36 246 -11 q 230 14 220 47 q 214 64 220 120 q 227 177 240 255 q 217 265 197 280 q 177 294 161 312 q 149 326 155 334 q 161 343 173 331 q 206 299 246 287 q 261 365 278 452 q 296 538 312 616 q 327 695 338 758 q 349 820 352 849 q 354 871 354 886 q 354 902 350 913 q 346 927 355 928 q 364 929 380 920 q 395 911 414 895 q 433 879 448 860 q 464 840 473 819 q 482 798 478 780 q 466 728 451 667 q 436 606 420 540 q 405 474 390 406 q 374 339 360 276 q 393 279 422 295 q 427 312 434 325 q 440 338 446 344 q 453 350 458 346 q 464 343 466 326 l 472 331 q 519 376 554 444 q 588 512 608 586 q 629 660 634 730 q 640 801 630 850 q 613 933 582 982 q 552 1030 516 1053 q 479 1076 441 1082 q 403 1087 370 1085 q 309 1082 253 1050 q 197 1018 150 964 q 102 911 65 842 q 28 772 5 694 q -18 616 -26 534 q -33 451 -21 372 q -21 360 -38 374 q -55 387 -76 416 q -96 445 -115 485 q -134 525 -136 567 q -141 658 -122 736 q -103 815 -68 880 q -33 944 16 994 q 64 1044 121 1078 q 178 1113 238 1131 q 299 1149 358 1150 q 393 1150 433 1148 q 473 1147 514 1138 q 554 1128 594 1110 q 633 1091 666 1058 q 699 1026 724 977 q 750 928 762 859 q 776 785 764 696 q 753 608 718 524 q 684 439 625 368 q 566 298 482 259 q 491 194 520 122 q 549 49 587 -15 q 625 -79 665 -126 q 705 -173 738 -187 q 755 -199 760 -206 q 766 -213 762 -217 q 759 -221 749 -222 q 739 -224 726 -225 q 677 -231 636 -204 q 595 -178 567 -133 z"},"T":{"x_min":0,"x_max":500,"ha":500,"o":"m 6 498 q 8 490 10 484 q 13 477 13 473 q 13 469 10 469 q 7 469 -2 476 q -22 489 -45 506 q -68 524 -90 548 q -111 571 -127 602 q -143 632 -149 671 q -165 773 -144 855 q -123 937 -79 999 q -35 1061 24 1102 q 83 1144 146 1166 q 191 1182 238 1188 q 286 1193 318 1193 q 403 1195 498 1185 q 592 1175 682 1166 q 773 1156 853 1152 q 933 1149 988 1163 q 1015 1171 1041 1183 q 1067 1195 1088 1214 q 1108 1234 1119 1261 q 1130 1288 1128 1326 q 1131 1335 1137 1332 q 1143 1329 1148 1319 q 1154 1309 1160 1296 q 1165 1282 1166 1273 q 1179 1208 1166 1162 q 1153 1117 1124 1087 q 1094 1057 1050 1042 q 1007 1027 959 1022 q 901 1017 836 1024 q 772 1032 704 1045 q 635 1058 564 1074 q 494 1089 425 1100 q 441 1084 459 1062 q 477 1041 491 1018 q 505 994 514 971 q 522 948 521 928 q 512 849 482 763 q 451 677 413 588 q 375 500 337 412 q 299 324 274 238 q 250 151 246 70 q 241 -12 271 -85 q 264 -91 252 -84 q 239 -78 224 -61 q 210 -44 196 -18 q 181 8 171 39 q 155 87 158 145 q 160 203 174 266 q 188 330 212 398 q 235 465 262 533 q 288 601 315 667 q 342 733 364 794 q 385 854 398 908 q 411 961 410 1004 q 409 1009 408 1020 q 406 1032 404 1046 q 403 1061 401 1076 q 399 1091 398 1102 q 326 1111 260 1110 q 194 1110 138 1085 q 69 1056 30 998 q -10 939 -24 860 q -39 781 -30 688 q -22 595 6 498 z"},"P":{"x_min":0,"x_max":758,"ha":758,"o":"m -136 567 q -141 658 -122 736 q -103 815 -68 880 q -33 944 16 994 q 64 1044 121 1078 q 178 1113 238 1131 q 299 1149 358 1150 q 393 1150 433 1148 q 473 1147 514 1138 q 555 1128 594 1110 q 633 1091 666 1058 q 700 1026 725 977 q 750 928 762 859 q 772 801 768 732 q 764 664 744 595 q 725 526 690 462 q 656 398 607 347 q 558 296 494 265 q 430 234 351 231 q 341 177 332 128 q 324 79 320 40 q 317 0 318 -30 q 320 -59 328 -74 q 322 -81 308 -75 q 294 -69 278 -52 q 261 -36 246 -11 q 230 14 220 47 q 214 64 220 120 q 227 177 240 255 q 217 265 197 280 q 177 294 161 312 q 149 326 155 334 q 161 343 173 331 q 206 299 246 287 q 261 365 278 452 q 296 538 312 616 q 327 695 338 758 q 349 820 352 849 q 354 871 354 886 q 354 902 350 913 q 346 927 355 928 q 364 929 380 920 q 395 911 414 895 q 433 879 448 860 q 464 840 473 819 q 482 798 478 780 q 466 728 451 667 q 436 606 420 540 q 405 474 390 406 q 374 339 360 276 q 411 282 453 316 q 495 350 528 400 q 561 450 584 511 q 607 572 620 634 q 633 695 636 752 q 638 809 630 850 q 613 933 582 980 q 552 1028 516 1052 q 479 1076 441 1082 q 403 1087 370 1085 q 309 1082 253 1050 q 197 1018 150 964 q 102 911 65 842 q 28 772 5 694 q -18 616 -26 534 q -33 451 -21 372 q -21 360 -38 374 q -55 387 -76 416 q -96 445 -115 485 q -134 525 -136 567 z"},"t":{"x_min":0,"x_max":275,"ha":275,"o":"m -37 188 q -36 217 -24 280 q -11 342 6 420 q 23 499 42 585 q 61 671 76 745 q 50 738 24 733 q -2 728 -27 720 q -37 716 -42 718 q -48 720 -46 727 q -43 734 -31 746 q -19 757 5 772 q 25 785 46 796 q 67 806 90 816 q 98 862 102 892 q 105 922 101 931 q 95 945 110 944 q 124 944 144 932 q 165 920 185 900 q 205 879 211 851 q 241 858 276 860 q 311 863 352 866 q 368 866 392 864 q 415 863 440 856 q 465 850 489 839 q 513 828 531 809 q 548 790 558 772 q 567 754 570 740 q 574 727 572 720 q 570 712 562 718 q 534 738 494 752 q 455 766 414 773 q 374 780 338 782 q 302 783 282 779 q 273 776 252 774 q 230 771 201 767 q 194 728 182 671 q 170 614 156 550 q 143 486 128 420 q 114 354 102 296 q 89 239 80 197 q 71 155 67 139 q 61 114 64 99 q 66 84 73 76 q 80 69 91 68 q 102 66 113 69 q 126 73 146 97 q 165 121 186 158 q 207 194 228 236 q 249 278 265 318 q 269 328 275 330 q 281 333 286 329 q 292 325 296 316 q 299 308 296 296 q 283 253 262 202 q 242 152 217 108 q 192 64 163 34 q 134 3 104 0 q 62 -4 34 18 q 6 39 -10 71 q -27 103 -32 136 q -38 169 -37 188 z"},"M":{"x_min":0,"x_max":987,"ha":987,"o":"m 872 225 q 857 155 846 100 q 836 44 827 6 l 826 6 q 824 -27 828 -55 q 832 -83 843 -96 q 848 -103 846 -108 q 845 -112 839 -114 q 833 -117 824 -116 q 814 -114 802 -108 q 775 -94 757 -65 q 739 -40 730 1 q 726 22 727 78 q 728 135 740 226 q 756 348 782 453 q 807 558 829 635 q 851 712 864 758 q 876 805 867 811 q 850 822 826 803 q 801 784 772 744 q 743 705 712 648 q 681 591 650 528 q 619 465 590 399 q 562 333 539 273 l 540 273 l 539 270 q 529 251 522 230 q 516 209 510 191 q 509 185 507 178 q 505 170 504 162 l 501 117 l 500 117 q 497 83 501 55 q 505 27 517 14 q 521 8 520 4 q 519 -1 513 -4 q 507 -7 498 -6 q 488 -4 476 3 q 449 17 426 46 q 404 75 399 126 q 394 187 411 315 q 421 381 434 447 q 448 513 463 574 q 478 634 493 687 q 508 740 518 779 q 528 818 532 842 q 535 867 529 871 q 510 883 480 849 q 449 815 413 752 q 377 690 338 608 q 299 525 263 440 q 227 355 197 274 q 167 194 148 136 l 139 86 q 134 58 131 28 q 128 -1 127 -26 q 126 -52 128 -70 q 130 -87 136 -91 q 140 -94 139 -98 q 138 -103 132 -106 q 125 -109 116 -110 q 108 -111 98 -107 q 63 -92 40 -44 q 18 4 21 70 q 23 122 38 194 q 52 265 73 348 q 94 432 120 522 q 146 611 172 700 q 197 788 218 871 q 240 954 253 1024 q 258 1048 260 1072 q 262 1095 260 1114 q 258 1134 254 1147 q 249 1160 240 1163 q 233 1167 219 1168 q 205 1169 186 1165 q 168 1161 146 1151 q 125 1141 105 1124 q 69 1095 32 1054 q -5 1014 -36 962 q -67 909 -88 843 q -110 777 -115 697 q -116 682 -116 672 q -115 662 -115 658 q -114 655 -114 650 q -114 646 -114 644 q -115 641 -118 642 q -120 642 -125 650 q -135 667 -150 697 q -165 727 -174 764 q -184 801 -184 844 q -184 887 -166 932 q -143 991 -108 1042 q -72 1092 -28 1131 q 17 1170 68 1194 q 118 1217 173 1221 q 205 1223 234 1216 q 264 1208 288 1193 q 311 1178 328 1159 q 345 1140 353 1121 q 370 1083 366 1021 q 363 959 348 880 q 332 801 307 710 q 282 619 254 525 q 330 715 394 816 q 457 916 512 946 q 539 961 563 953 q 587 945 604 922 q 622 900 631 868 q 640 836 637 802 q 630 720 607 630 q 584 539 557 437 q 597 546 639 628 q 681 710 722 766 q 763 823 801 855 q 839 887 870 897 q 893 905 914 896 q 935 888 951 868 q 967 848 976 818 q 985 788 982 754 q 977 705 967 650 q 957 595 942 532 q 927 469 910 393 q 892 317 872 225 z"},"g":{"x_min":0,"x_max":423,"ha":423,"o":"m 202 -95 q 172 -202 151 -294 q 130 -387 104 -455 q 78 -523 40 -558 q 2 -594 -60 -586 q -94 -582 -123 -564 q -152 -546 -174 -518 q -195 -491 -210 -457 q -224 -423 -228 -385 q -238 -298 -214 -247 q -190 -196 -142 -162 q -94 -129 -28 -100 q 38 -72 114 -29 l 128 48 q 115 27 100 15 q 86 3 68 1 q 37 0 12 24 q -13 47 -26 90 q -39 134 -37 194 q -35 255 -14 329 q -2 368 14 403 q 29 438 51 464 q 73 490 100 504 q 127 519 161 516 q 188 515 204 486 l 201 512 q 197 526 216 524 q 235 521 258 506 q 282 491 300 468 q 319 445 313 417 q 305 376 296 329 q 286 282 276 234 q 267 185 257 136 q 247 88 237 45 q 267 70 290 98 q 314 126 335 159 q 356 192 375 233 q 394 274 415 325 q 425 335 436 326 q 448 317 446 299 q 426 233 402 182 q 377 130 348 90 q 319 49 286 18 q 253 -14 217 -42 z m -72 -553 q -49 -553 -32 -546 q -16 -540 -3 -522 q 10 -504 22 -474 q 33 -443 44 -394 q 56 -345 70 -275 q 83 -205 101 -111 q 45 -144 -8 -163 q -61 -182 -104 -205 q -146 -228 -172 -264 q -198 -300 -198 -368 q -198 -395 -188 -426 q -177 -458 -160 -484 q -143 -511 -120 -530 q -97 -549 -72 -553 z m 63 56 q 78 57 91 74 q 104 92 116 120 q 128 148 140 183 q 153 218 166 257 q 173 291 180 326 q 188 360 195 391 q 196 403 197 418 q 198 432 197 444 q 196 456 192 464 q 187 472 177 472 q 166 472 152 456 q 138 441 122 416 q 107 390 92 358 q 77 325 66 292 q 52 251 46 208 q 39 166 40 132 q 40 97 46 76 q 52 55 63 56 z"},"j":{"x_min":0,"x_max":223,"ha":223,"o":"m -85 -29 q -68 68 -50 154 q -32 239 -18 308 q -4 378 2 430 q 8 482 1 512 q -2 526 16 524 q 35 521 58 506 q 82 491 100 468 q 119 445 113 417 q 104 376 95 329 q 86 282 76 234 q 67 185 57 136 q 47 88 37 45 q 67 70 90 98 q 114 126 135 159 q 156 192 175 233 q 194 274 215 325 q 225 335 236 326 q 248 317 246 299 q 226 233 202 182 q 177 130 148 90 q 119 49 86 18 q 53 -14 17 -42 l 2 -95 q -27 -202 -48 -294 q -69 -387 -95 -455 q -121 -523 -159 -558 q -197 -594 -260 -586 q -294 -582 -322 -564 q -351 -546 -372 -518 q -394 -491 -408 -457 q -423 -423 -428 -385 q -437 -303 -413 -254 q -389 -204 -342 -168 q -294 -133 -228 -102 q -161 -72 -85 -29 z m 61 550 q 47 560 44 568 q 41 576 43 593 q 45 611 48 637 q 52 663 58 688 q 63 714 71 736 q 79 757 90 764 q 98 771 116 765 q 135 759 154 748 q 173 736 187 721 q 201 706 201 694 q 162 656 143 595 q 131 559 113 544 q 95 530 61 550 z m -272 -553 q -249 -553 -232 -546 q -216 -540 -202 -522 q -189 -504 -178 -474 q -166 -443 -154 -394 q -143 -345 -130 -275 q -116 -205 -98 -111 q -154 -144 -206 -168 q -259 -191 -300 -216 q -342 -242 -368 -276 q -395 -311 -398 -368 q -399 -395 -390 -426 q -380 -456 -362 -484 q -345 -511 -322 -530 q -298 -549 -272 -553 z"},"i":{"x_min":0,"x_max":205,"ha":205,"o":"m -54 122 q -53 165 -41 224 q -29 283 -16 341 q -3 399 4 446 q 11 494 3 512 q -3 528 14 526 q 30 524 52 510 q 75 497 95 472 q 115 447 115 417 q 115 406 108 377 q 100 348 90 311 q 81 274 70 233 q 59 192 52 158 q 46 123 45 100 q 44 77 54 74 q 67 70 85 94 q 103 117 122 154 q 141 190 160 234 q 179 279 196 318 q 200 328 206 330 q 212 333 218 329 q 223 325 226 316 q 230 308 227 296 q 219 268 208 236 q 196 203 182 170 q 168 136 152 106 q 136 75 118 52 q 100 29 80 14 q 61 -1 41 -3 q 15 -5 -3 9 q -21 23 -32 44 q -44 65 -49 86 q -54 108 -54 122 z m 61 550 q 47 560 44 568 q 41 576 43 593 q 45 611 48 637 q 52 663 58 688 q 63 714 71 736 q 79 757 90 764 q 98 771 116 765 q 135 759 154 748 q 173 736 187 721 q 201 706 201 694 q 162 656 143 595 q 131 559 113 544 q 95 530 61 550 z"},"y":{"x_min":0,"x_max":438,"ha":438,"o":"m 254 45 q 284 70 308 98 q 331 126 352 159 q 373 192 392 233 q 411 274 432 325 q 442 335 454 326 q 465 317 463 299 q 443 233 418 182 q 394 130 365 90 q 336 49 303 18 q 270 -14 234 -42 l 219 -95 q 189 -202 168 -294 q 147 -387 121 -455 q 95 -523 57 -558 q 19 -594 -43 -586 q -77 -582 -106 -564 q -135 -546 -156 -518 q -178 -491 -192 -457 q -207 -423 -211 -385 q -221 -298 -197 -247 q -173 -196 -125 -162 q -77 -129 -12 -100 q 54 -72 130 -29 q 138 19 146 64 q 155 110 164 153 q 151 122 136 94 q 122 66 106 46 q 91 25 74 12 q 58 -1 40 -3 q 15 -5 -2 8 q -20 22 -32 43 q -43 64 -48 86 q -54 108 -54 122 q -53 149 -46 186 q -40 222 -32 262 q -24 302 -16 341 q -8 380 -2 414 q 3 448 5 474 q 7 499 2 512 q -3 528 13 526 q 29 524 52 510 q 74 495 94 471 q 114 447 115 417 q 115 406 108 376 q 102 347 92 308 q 82 270 72 228 q 61 187 54 152 q 48 117 47 93 q 46 69 56 66 q 67 62 87 86 q 107 109 129 150 q 151 190 172 242 q 193 294 204 348 q 207 363 210 377 q 212 391 213 404 q 218 439 220 466 q 222 494 217 512 q 213 526 232 524 q 251 521 274 506 q 298 491 316 468 q 335 445 329 417 q 320 376 311 329 q 302 282 292 234 q 283 185 273 136 q 263 88 254 45 z m -55 -553 q -32 -553 -16 -546 q 0 -540 14 -522 q 27 -504 38 -474 q 50 -443 62 -394 q 73 -345 86 -275 q 100 -205 118 -111 q 62 -144 9 -163 q -44 -182 -86 -205 q -129 -228 -155 -264 q -181 -300 -181 -368 q -181 -395 -170 -426 q -160 -458 -143 -484 q -126 -511 -103 -530 q -80 -549 -55 -553 z"},"p":{"x_min":0,"x_max":409,"ha":409,"o":"m 78 0 q 63 0 46 16 q 30 32 20 62 q 11 27 -2 -32 q -14 -90 -27 -152 q -40 -213 -52 -266 q -63 -319 -69 -342 q -78 -382 -82 -392 q -86 -403 -93 -403 q -113 -403 -122 -386 q -132 -368 -136 -345 q -139 -322 -138 -300 q -137 -278 -135 -268 q -129 -242 -115 -174 q -101 -107 -82 -19 q -64 69 -44 166 q -25 263 -10 348 q 5 433 14 494 q 22 555 20 572 q 17 588 36 582 q 54 577 76 561 q 98 545 116 521 q 135 497 132 473 l 132 472 q 162 508 215 508 q 227 508 240 502 q 254 495 266 484 q 279 472 288 454 q 297 437 300 413 q 312 324 292 242 q 272 160 231 100 q 276 113 309 154 q 342 195 360 237 l 397 321 q 400 329 406 329 q 413 329 419 324 q 425 320 428 312 q 431 303 430 294 q 425 268 416 246 q 406 225 395 204 q 382 170 362 145 q 341 120 314 95 q 286 69 253 56 q 220 42 187 45 q 161 23 134 11 q 107 -1 78 0 z m 177 458 q 158 458 140 430 q 122 402 105 359 l 104 350 q 99 325 96 300 q 92 274 93 248 q 94 221 102 194 q 109 166 127 139 q 133 127 141 120 q 156 146 170 180 q 184 214 194 253 q 204 292 208 334 q 212 377 207 420 q 205 442 196 450 q 186 458 177 458 z m 78 61 q 95 61 115 83 q 96 104 82 135 q 68 166 61 212 l 44 151 q 41 125 44 108 q 46 91 52 80 q 58 70 65 66 q 72 61 78 61 z"},"X":{"x_min":0,"x_max":1016,"ha":1016,"o":"m 149 -140 q 117 -142 84 -123 q 50 -104 31 -73 q 25 -68 23 -62 q 21 -55 22 -50 q 24 -46 30 -44 q 35 -42 45 -47 q 80 -64 128 -42 q 175 -20 228 28 q 282 77 339 144 q 396 212 450 284 q 505 357 554 430 q 603 502 640 560 q 637 627 634 691 q 631 755 627 819 q 623 864 619 904 q 615 944 611 978 q 602 1048 589 1090 q 576 1132 557 1132 q 510 1131 466 1103 q 421 1075 382 1030 q 342 984 310 924 q 278 864 257 800 q 236 736 228 670 q 221 604 232 547 q 229 537 222 541 q 216 545 210 555 q 201 572 186 601 q 170 630 156 664 q 142 698 132 734 q 121 771 123 803 q 124 833 141 876 q 158 920 188 966 q 218 1013 260 1058 q 301 1102 350 1134 q 399 1167 456 1184 q 512 1200 571 1189 q 612 1183 640 1148 q 667 1113 686 1057 q 695 1030 702 998 q 709 967 715 931 q 720 896 726 842 q 731 789 737 715 l 737 714 q 790 796 846 879 q 902 962 960 1038 q 1017 1115 1076 1182 q 1135 1249 1194 1298 q 1252 1347 1310 1374 q 1367 1400 1421 1397 q 1471 1395 1514 1371 q 1557 1347 1588 1317 q 1602 1303 1613 1287 q 1624 1271 1626 1261 q 1629 1251 1622 1247 q 1616 1243 1597 1253 q 1525 1288 1460 1293 q 1408 1299 1350 1273 q 1293 1247 1232 1198 q 1172 1148 1110 1080 q 1048 1011 986 932 q 924 853 864 767 q 803 681 747 598 l 763 434 q 768 386 780 328 q 791 269 810 208 q 828 148 853 91 q 878 34 909 -12 q 940 -57 977 -86 q 1014 -114 1056 -117 q 1054 -125 1038 -131 q 1023 -137 999 -137 q 975 -137 946 -130 q 917 -122 888 -103 q 859 -85 832 -51 q 804 -17 779 27 q 754 71 732 123 q 710 175 694 230 q 678 282 668 332 q 657 383 650 434 q 617 374 580 308 q 544 243 505 180 q 466 117 424 59 q 381 1 336 -42 q 291 -86 244 -112 q 197 -139 149 -140 z"},"Y":{"x_min":0,"x_max":700,"ha":700,"o":"m -85 575 q -84 572 -84 568 q -84 563 -84 560 q -85 558 -88 558 q -90 559 -95 567 q -105 584 -122 615 q -140 646 -152 685 q -165 724 -168 769 q -171 814 -153 858 q -129 916 -91 967 q -53 1018 -6 1055 q 40 1092 94 1114 q 148 1136 203 1137 q 257 1139 292 1130 q 327 1121 349 1104 q 371 1088 384 1068 q 397 1048 405 1028 q 422 991 418 937 q 413 883 394 817 q 376 751 350 676 q 324 601 297 522 q 270 442 247 360 q 224 279 214 200 q 204 120 214 80 q 224 39 261 39 q 293 39 322 66 q 352 92 379 136 q 406 179 430 235 q 454 291 476 349 q 497 407 515 462 q 533 516 547 559 q 575 681 599 780 q 623 880 646 954 q 649 965 668 948 q 686 932 706 908 q 727 883 742 858 q 758 832 754 824 q 721 750 692 646 q 663 542 635 420 q 607 298 577 164 q 547 30 512 -103 q 568 -113 623 -133 q 678 -153 733 -189 q 754 -202 777 -218 q 800 -234 820 -256 q 841 -277 856 -303 q 870 -329 872 -361 q 838 -309 798 -276 q 759 -243 724 -221 q 667 -186 612 -168 q 557 -150 501 -143 q 472 -255 438 -362 q 404 -468 365 -563 q 326 -658 280 -737 q 235 -816 181 -873 q 127 -930 64 -961 q 0 -992 -73 -991 q -92 -991 -122 -986 q -153 -980 -185 -962 q -217 -945 -247 -910 q -277 -874 -295 -811 q -326 -705 -315 -612 q -304 -519 -263 -442 q -222 -364 -156 -303 q -90 -242 -12 -198 q 67 -153 153 -127 q 239 -101 323 -95 q 337 -94 352 -93 q 368 -92 384 -92 q 401 -26 419 36 q 437 99 453 165 q 432 122 410 85 q 388 48 364 22 q 339 -4 312 -18 q 284 -31 253 -29 q 215 -25 186 -2 q 156 22 135 57 q 114 92 104 134 q 95 177 96 218 q 99 296 121 380 q 143 464 172 554 q 202 643 232 740 q 263 837 283 941 q 288 965 290 988 q 292 1011 290 1030 q 289 1049 284 1062 q 279 1076 270 1080 q 263 1084 249 1084 q 235 1085 216 1082 q 198 1078 176 1068 q 155 1058 135 1041 q 99 1011 62 971 q 24 931 -6 878 q -37 825 -58 760 q -80 694 -85 614 q -86 599 -86 588 q -85 578 -85 575 z m -92 -927 q -21 -927 42 -864 q 105 -800 163 -691 q 221 -582 272 -440 q 324 -298 371 -140 q 360 -140 350 -141 q 341 -142 331 -143 q 271 -147 200 -177 q 128 -207 58 -255 q -12 -303 -76 -366 q -141 -430 -185 -503 q -229 -576 -248 -654 q -268 -731 -250 -806 q -240 -849 -218 -873 q -197 -897 -173 -908 q -149 -920 -126 -924 q -104 -927 -92 -927 z"},"c":{"x_min":0,"x_max":315,"ha":315,"o":"m 236 318 q 227 303 213 295 q 199 287 186 285 q 174 283 166 288 q 158 292 161 303 q 188 343 198 386 q 207 428 204 455 q 201 482 186 486 q 172 490 150 454 q 134 428 119 387 q 104 346 92 300 q 80 255 73 210 q 66 164 68 128 q 70 92 83 70 q 96 48 122 51 q 152 53 178 80 q 204 108 226 146 q 248 185 266 228 q 285 272 299 308 q 302 316 309 316 q 316 316 322 312 q 328 307 332 300 q 335 292 333 285 q 328 268 318 240 q 307 212 293 180 q 279 148 260 116 q 242 83 220 57 q 198 31 172 14 q 147 -3 119 -4 q 73 -5 42 17 q 12 39 -4 76 q -20 113 -24 161 q -29 209 -22 259 q -16 309 0 358 q 15 407 38 446 q 61 484 92 508 q 122 532 156 533 q 192 534 214 510 q 236 487 246 453 q 256 419 253 382 q 250 344 236 318 z"},"6":{"x_min":0,"x_max":1219,"ha":1219,"o":"m 876 781 l 739 657 l 775 471 l 615 565 l 450 471 l 489 652 l 351 781 l 537 801 l 615 972 l 690 802 z m 682 576 l 639 834 l 586 834 l 541 576 l 564 562 l 583 576 l 592 634 l 631 634 l 642 576 l 663 562 z m 628 672 l 598 672 l 612 774 z m 610 21 l 631 21 l 624 39 q 622 42 622 44 q 622 46 619 49 q 619 45 616 39 z m 352 -5 l 352 3 l 363 3 l 363 -5 z m 844 -5 l 844 58 l 852 58 l 852 1 l 883 1 l 883 -5 z m 787 -5 l 787 58 l 832 58 l 832 49 l 795 49 l 795 30 l 829 30 l 829 22 l 795 22 l 795 1 l 832 1 l 832 -5 z m 565 -5 l 565 21 l 541 58 l 552 58 l 564 39 q 567 30 570 28 q 571 30 572 33 q 574 36 577 39 l 589 58 l 598 58 l 573 21 l 573 -5 z m 376 -5 l 376 58 l 400 58 q 403 58 406 56 q 408 55 409 55 q 415 54 417 49 q 420 46 420 40 q 420 36 417 34 q 415 28 411 28 q 415 27 420 22 q 423 16 423 13 q 423 10 422 8 q 421 7 421 6 q 420 0 415 0 q 414 -3 412 -3 q 411 -3 409 -5 l 400 -5 z m 205 -5 l 187 58 l 196 58 l 205 16 q 207 12 207 9 q 207 6 208 3 q 210 10 210 15 l 222 58 l 232 58 l 241 25 q 243 18 244 14 q 246 9 246 3 q 247 6 247 9 q 247 12 249 16 l 259 58 l 267 58 l 249 -5 l 241 -5 l 229 42 q 228 46 228 49 q 226 46 226 42 l 213 -5 z m 123 -5 l 105 58 l 115 58 l 123 16 q 123 9 127 3 q 129 10 129 15 l 141 58 l 150 58 l 160 25 q 162 18 162 14 q 163 9 163 3 q 166 6 166 9 q 166 12 168 16 l 177 58 l 186 58 l 168 -5 l 160 -5 l 148 42 q 147 46 147 49 q 144 46 144 42 l 130 -5 z m 384 30 l 397 30 q 403 30 405 33 q 409 33 409 34 q 411 36 411 40 q 411 45 409 46 l 408 46 q 406 46 406 47 q 406 48 405 48 q 403 49 396 49 l 384 49 z m 285 -5 l 268 58 l 277 58 l 286 16 q 288 12 288 9 q 288 6 291 3 q 291 9 292 11 q 292 13 292 15 l 304 58 l 313 58 l 324 25 q 325 18 326 14 q 327 9 327 3 q 330 6 330 9 q 330 12 331 16 l 342 58 l 349 58 l 331 -5 l 324 -5 l 312 42 q 310 46 310 49 q 307 46 307 42 l 294 -5 z m 664 28 l 682 28 q 685 28 688 29 q 690 30 693 30 q 696 30 696 34 q 697 36 697 40 q 697 45 694 48 q 693 49 684 49 l 664 49 z m 384 1 l 400 1 q 403 1 405 3 l 409 3 q 411 6 414 7 l 414 13 q 414 16 411 19 q 411 22 408 22 l 397 22 l 384 22 z m 435 -5 l 435 58 l 442 58 l 442 -5 z m 985 25 q 985 12 990 7 q 996 1 1006 1 q 1017 1 1021 7 q 1027 12 1027 27 q 1027 34 1026 39 q 1023 46 1018 48 q 1014 49 1006 49 q 997 49 993 45 q 985 39 985 25 z m 976 25 q 976 42 985 49 q 991 58 1006 58 q 1011 58 1014 56 q 1018 55 1021 54 q 1026 52 1028 49 q 1030 46 1033 42 q 1035 39 1035 27 q 1035 13 1032 9 q 1027 1 1021 -3 q 1015 -6 1006 -6 q 1002 -6 998 -6 q 994 -5 990 -3 q 987 0 984 3 q 982 6 981 9 q 979 13 978 17 q 976 21 976 25 z m 592 -5 l 616 58 l 625 58 l 651 -5 l 642 -5 l 634 13 l 609 13 l 600 -5 z m 459 -5 l 459 58 l 466 58 l 466 1 l 495 1 l 495 -5 z m 892 -5 l 892 3 l 903 3 l 903 -5 z m 748 19 l 748 27 l 774 27 l 774 3 q 768 -3 762 -5 q 759 -5 755 -6 q 751 -6 748 -6 q 739 -6 733 -3 q 729 0 726 2 q 723 4 721 9 q 720 13 718 17 q 717 21 717 25 q 717 31 718 34 q 720 37 721 42 q 724 51 732 54 q 735 55 740 56 q 744 58 748 58 q 756 58 760 55 q 766 54 768 49 q 772 45 774 40 l 766 39 q 766 40 762 45 q 762 48 756 49 l 748 49 l 739 49 q 735 48 732 45 q 732 43 727 39 q 727 36 726 33 q 726 30 726 27 q 726 16 729 13 q 735 4 736 3 q 741 1 748 1 q 754 1 759 3 q 762 6 764 6 q 765 6 766 7 l 766 19 z m 657 -5 l 657 58 l 684 58 q 688 58 691 56 q 694 55 697 55 q 702 54 703 49 q 706 46 706 40 q 706 33 702 28 q 700 27 696 26 q 693 25 688 22 q 691 22 692 22 q 693 21 694 21 q 696 18 696 16 q 697 13 700 10 l 712 -5 l 702 -5 l 693 7 q 690 10 689 12 q 688 15 687 16 q 687 19 686 19 q 684 19 682 21 l 681 21 q 679 21 679 22 q 679 22 678 22 l 675 22 l 664 22 l 664 -5 z m 505 -5 l 505 58 l 514 58 l 514 1 l 544 1 l 544 -5 z m 961 16 l 969 15 q 966 3 960 0 q 954 -6 943 -6 q 934 -6 928 -3 q 924 0 922 3 q 921 6 918 9 q 915 21 915 27 q 915 33 918 45 q 925 52 928 54 q 933 55 936 56 q 939 58 943 58 q 948 58 952 56 q 957 55 960 54 q 963 51 965 48 q 967 45 969 40 l 960 39 q 960 45 954 48 q 951 49 943 49 q 934 49 931 48 q 928 46 928 44 q 927 42 924 39 q 924 36 923 33 q 922 30 922 27 q 922 18 927 13 q 927 10 928 8 q 930 6 931 3 q 936 1 943 1 q 951 1 955 6 q 960 10 961 16 z m 1047 -5 l 1047 58 l 1059 58 l 1074 13 q 1074 10 1076 8 q 1077 6 1077 3 q 1077 4 1080 13 l 1093 58 l 1105 58 l 1105 -5 l 1098 -5 l 1098 46 l 1080 -5 l 1072 -5 l 1054 48 l 1054 -5 z m 610 21 l 631 21 l 624 39 q 622 42 622 44 q 622 46 619 49 q 619 45 616 39 z m 352 -5 l 352 3 l 363 3 l 363 -5 z m 844 -5 l 844 58 l 852 58 l 852 1 l 883 1 l 883 -5 z m 787 -5 l 787 58 l 832 58 l 832 49 l 795 49 l 795 30 l 829 30 l 829 22 l 795 22 l 795 1 l 832 1 l 832 -5 z m 565 -5 l 565 21 l 541 58 l 552 58 l 564 39 q 567 30 570 28 q 571 30 572 33 q 574 36 577 39 l 589 58 l 598 58 l 573 21 l 573 -5 z m 376 -5 l 376 58 l 400 58 q 403 58 406 56 q 408 55 409 55 q 415 54 417 49 q 420 46 420 40 q 420 36 417 34 q 415 28 411 28 q 415 27 420 22 q 423 16 423 13 q 423 10 422 8 q 421 7 421 6 q 420 0 415 0 q 414 -3 412 -3 q 411 -3 409 -5 l 400 -5 z m 205 -5 l 187 58 l 196 58 l 205 16 q 207 12 207 9 q 207 6 208 3 q 210 10 210 15 l 222 58 l 232 58 l 241 25 q 243 18 244 14 q 246 9 246 3 q 247 6 247 9 q 247 12 249 16 l 259 58 l 267 58 l 249 -5 l 241 -5 l 229 42 q 228 46 228 49 q 226 46 226 42 l 213 -5 z m 123 -5 l 105 58 l 115 58 l 123 16 q 123 9 127 3 q 129 10 129 15 l 141 58 l 150 58 l 160 25 q 162 18 162 14 q 163 9 163 3 q 166 6 166 9 q 166 12 168 16 l 177 58 l 186 58 l 168 -5 l 160 -5 l 148 42 q 147 46 147 49 q 144 46 144 42 l 130 -5 z m 384 30 l 397 30 q 403 30 405 33 q 409 33 409 34 q 411 36 411 40 q 411 45 409 46 l 408 46 q 406 46 406 47 q 406 48 405 48 q 403 49 396 49 l 384 49 z m 285 -5 l 268 58 l 277 58 l 286 16 q 288 12 288 9 q 288 6 291 3 q 291 9 292 11 q 292 13 292 15 l 304 58 l 313 58 l 324 25 q 325 18 326 14 q 327 9 327 3 q 330 6 330 9 q 330 12 331 16 l 342 58 l 349 58 l 331 -5 l 324 -5 l 312 42 q 310 46 310 49 q 307 46 307 42 l 294 -5 z m 664 28 l 682 28 q 685 28 688 29 q 690 30 693 30 q 696 30 696 34 q 697 36 697 40 q 697 45 694 48 q 693 49 684 49 l 664 49 z m 384 1 l 400 1 q 403 1 405 3 l 409 3 q 411 6 414 7 l 414 13 q 414 16 411 19 q 411 22 408 22 l 397 22 l 384 22 z m 435 -5 l 435 58 l 442 58 l 442 -5 z m 985 25 q 985 12 990 7 q 996 1 1006 1 q 1017 1 1021 7 q 1027 12 1027 27 q 1027 34 1026 39 q 1023 46 1018 48 q 1014 49 1006 49 q 997 49 993 45 q 985 39 985 25 z m 976 25 q 976 42 985 49 q 991 58 1006 58 q 1011 58 1014 56 q 1018 55 1021 54 q 1026 52 1028 49 q 1030 46 1033 42 q 1035 39 1035 27 q 1035 13 1032 9 q 1027 1 1021 -3 q 1015 -6 1006 -6 q 1002 -6 998 -6 q 994 -5 990 -3 q 987 0 984 3 q 982 6 981 9 q 979 13 978 17 q 976 21 976 25 z m 592 -5 l 616 58 l 625 58 l 651 -5 l 642 -5 l 634 13 l 609 13 l 600 -5 z m 459 -5 l 459 58 l 466 58 l 466 1 l 495 1 l 495 -5 z m 892 -5 l 892 3 l 903 3 l 903 -5 z m 748 19 l 748 27 l 774 27 l 774 3 q 768 -3 762 -5 q 759 -5 755 -6 q 751 -6 748 -6 q 739 -6 733 -3 q 729 0 726 2 q 723 4 721 9 q 720 13 718 17 q 717 21 717 25 q 717 31 718 34 q 720 37 721 42 q 724 51 732 54 q 735 55 740 56 q 744 58 748 58 q 756 58 760 55 q 766 54 768 49 q 772 45 774 40 l 766 39 q 766 40 762 45 q 762 48 756 49 l 748 49 l 739 49 q 735 48 732 45 q 732 43 727 39 q 727 36 726 33 q 726 30 726 27 q 726 16 729 13 q 735 4 736 3 q 741 1 748 1 q 754 1 759 3 q 762 6 764 6 q 765 6 766 7 l 766 19 z m 657 -5 l 657 58 l 684 58 q 688 58 691 56 q 694 55 697 55 q 702 54 703 49 q 706 46 706 40 q 706 33 702 28 q 700 27 696 26 q 693 25 688 22 q 691 22 692 22 q 693 21 694 21 q 696 18 696 16 q 697 13 700 10 l 712 -5 l 702 -5 l 693 7 q 690 10 689 12 q 688 15 687 16 q 687 19 686 19 q 684 19 682 21 l 681 21 q 679 21 679 22 q 679 22 678 22 l 675 22 l 664 22 l 664 -5 z m 505 -5 l 505 58 l 514 58 l 514 1 l 544 1 l 544 -5 z m 961 16 l 969 15 q 966 3 960 0 q 954 -6 943 -6 q 934 -6 928 -3 q 924 0 922 3 q 921 6 918 9 q 915 21 915 27 q 915 33 918 45 q 925 52 928 54 q 933 55 936 56 q 939 58 943 58 q 948 58 952 56 q 957 55 960 54 q 963 51 965 48 q 967 45 969 40 l 960 39 q 960 45 954 48 q 951 49 943 49 q 934 49 931 48 q 928 46 928 44 q 927 42 924 39 q 924 36 923 33 q 922 30 922 27 q 922 18 927 13 q 927 10 928 8 q 930 6 931 3 q 936 1 943 1 q 951 1 955 6 q 960 10 961 16 z m 1047 -5 l 1047 58 l 1059 58 l 1074 13 q 1074 10 1076 8 q 1077 6 1077 3 q 1077 4 1080 13 l 1093 58 l 1105 58 l 1105 -5 l 1098 -5 l 1098 46 l 1080 -5 l 1072 -5 l 1054 48 l 1054 -5 z m 610 21 l 631 21 l 624 39 q 622 42 622 44 q 622 46 619 49 q 619 45 616 39 z m 352 -5 l 352 3 l 363 3 l 363 -5 z m 844 -5 l 844 58 l 852 58 l 852 1 l 883 1 l 883 -5 z m 787 -5 l 787 58 l 832 58 l 832 49 l 795 49 l 795 30 l 829 30 l 829 22 l 795 22 l 795 1 l 832 1 l 832 -5 z m 565 -5 l 565 21 l 541 58 l 552 58 l 564 39 q 567 30 570 28 q 571 30 572 33 q 574 36 577 39 l 589 58 l 598 58 l 573 21 l 573 -5 z m 376 -5 l 376 58 l 400 58 q 403 58 406 56 q 408 55 409 55 q 415 54 417 49 q 420 46 420 40 q 420 36 417 34 q 415 28 411 28 q 415 27 420 22 q 423 16 423 13 q 423 10 422 8 q 421 7 421 6 q 420 0 415 0 q 414 -3 412 -3 q 411 -3 409 -5 l 400 -5 z m 205 -5 l 187 58 l 196 58 l 205 16 q 207 12 207 9 q 207 6 208 3 q 210 10 210 15 l 222 58 l 232 58 l 241 25 q 243 18 244 14 q 246 9 246 3 q 247 6 247 9 q 247 12 249 16 l 259 58 l 267 58 l 249 -5 l 241 -5 l 229 42 q 228 46 228 49 q 226 46 226 42 l 213 -5 z m 123 -5 l 105 58 l 115 58 l 123 16 q 123 9 127 3 q 129 10 129 15 l 141 58 l 150 58 l 160 25 q 162 18 162 14 q 163 9 163 3 q 166 6 166 9 q 166 12 168 16 l 177 58 l 186 58 l 168 -5 l 160 -5 l 148 42 q 147 46 147 49 q 144 46 144 42 l 130 -5 z m 384 30 l 397 30 q 403 30 405 33 q 409 33 409 34 q 411 36 411 40 q 411 45 409 46 l 408 46 q 406 46 406 47 q 406 48 405 48 q 403 49 396 49 l 384 49 z m 285 -5 l 268 58 l 277 58 l 286 16 q 288 12 288 9 q 288 6 291 3 q 291 9 292 11 q 292 13 292 15 l 304 58 l 313 58 l 324 25 q 325 18 326 14 q 327 9 327 3 q 330 6 330 9 q 330 12 331 16 l 342 58 l 349 58 l 331 -5 l 324 -5 l 312 42 q 310 46 310 49 q 307 46 307 42 l 294 -5 z m 664 28 l 682 28 q 685 28 688 29 q 690 30 693 30 q 696 30 696 34 q 697 36 697 40 q 697 45 694 48 q 693 49 684 49 l 664 49 z m 384 1 l 400 1 q 403 1 405 3 l 409 3 q 411 6 414 7 l 414 13 q 414 16 411 19 q 411 22 408 22 l 397 22 l 384 22 z m 435 -5 l 435 58 l 442 58 l 442 -5 z m 985 25 q 985 12 990 7 q 996 1 1006 1 q 1017 1 1021 7 q 1027 12 1027 27 q 1027 34 1026 39 q 1023 46 1018 48 q 1014 49 1006 49 q 997 49 993 45 q 985 39 985 25 z m 976 25 q 976 42 985 49 q 991 58 1006 58 q 1011 58 1014 56 q 1018 55 1021 54 q 1026 52 1028 49 q 1030 46 1033 42 q 1035 39 1035 27 q 1035 13 1032 9 q 1027 1 1021 -3 q 1015 -6 1006 -6 q 1002 -6 998 -6 q 994 -5 990 -3 q 987 0 984 3 q 982 6 981 9 q 979 13 978 17 q 976 21 976 25 z m 592 -5 l 616 58 l 625 58 l 651 -5 l 642 -5 l 634 13 l 609 13 l 600 -5 z m 459 -5 l 459 58 l 466 58 l 466 1 l 495 1 l 495 -5 z m 892 -5 l 892 3 l 903 3 l 903 -5 z m 748 19 l 748 27 l 774 27 l 774 3 q 768 -3 762 -5 q 759 -5 755 -6 q 751 -6 748 -6 q 739 -6 733 -3 q 729 0 726 2 q 723 4 721 9 q 720 13 718 17 q 717 21 717 25 q 717 31 718 34 q 720 37 721 42 q 724 51 732 54 q 735 55 740 56 q 744 58 748 58 q 756 58 760 55 q 766 54 768 49 q 772 45 774 40 l 766 39 q 766 40 762 45 q 762 48 756 49 l 748 49 l 739 49 q 735 48 732 45 q 732 43 727 39 q 727 36 726 33 q 726 30 726 27 q 726 16 729 13 q 735 4 736 3 q 741 1 748 1 q 754 1 759 3 q 762 6 764 6 q 765 6 766 7 l 766 19 z m 657 -5 l 657 58 l 684 58 q 688 58 691 56 q 694 55 697 55 q 702 54 703 49 q 706 46 706 40 q 706 33 702 28 q 700 27 696 26 q 693 25 688 22 q 691 22 692 22 q 693 21 694 21 q 696 18 696 16 q 697 13 700 10 l 712 -5 l 702 -5 l 693 7 q 690 10 689 12 q 688 15 687 16 q 687 19 686 19 q 684 19 682 21 l 681 21 q 679 21 679 22 q 679 22 678 22 l 675 22 l 664 22 l 664 -5 z m 505 -5 l 505 58 l 514 58 l 514 1 l 544 1 l 544 -5 z m 961 16 l 969 15 q 966 3 960 0 q 954 -6 943 -6 q 934 -6 928 -3 q 924 0 922 3 q 921 6 918 9 q 915 21 915 27 q 915 33 918 45 q 925 52 928 54 q 933 55 936 56 q 939 58 943 58 q 948 58 952 56 q 957 55 960 54 q 963 51 965 48 q 967 45 969 40 l 960 39 q 960 45 954 48 q 951 49 943 49 q 934 49 931 48 q 928 46 928 44 q 927 42 924 39 q 924 36 923 33 q 922 30 922 27 q 922 18 927 13 q 927 10 928 8 q 930 6 931 3 q 936 1 943 1 q 951 1 955 6 q 960 10 961 16 z m 1047 -5 l 1047 58 l 1059 58 l 1074 13 q 1074 10 1076 8 q 1077 6 1077 3 q 1077 4 1080 13 l 1093 58 l 1105 58 l 1105 -5 l 1098 -5 l 1098 46 l 1080 -5 l 1072 -5 l 1054 48 l 1054 -5 z m 175 111 l 187 106 q 184 93 174 84 q 162 75 148 75 q 135 75 123 81 q 111 90 109 99 q 103 109 103 124 q 103 141 109 151 q 114 162 124 166 q 135 172 148 172 q 165 172 171 165 q 181 162 186 145 l 174 144 q 168 156 163 157 q 157 163 148 163 q 136 163 130 157 q 121 151 118 144 q 117 138 117 124 q 117 111 121 105 q 124 94 130 91 q 138 85 147 85 q 159 85 166 93 q 169 96 172 100 q 174 105 175 111 z m 199 123 q 199 135 202 144 q 205 153 213 159 q 219 166 227 169 q 235 172 244 172 q 258 172 268 166 q 277 162 285 150 q 291 135 291 124 q 291 117 290 111 q 288 105 285 99 q 277 87 267 81 q 255 75 244 75 q 237 75 232 76 q 226 78 220 81 q 210 87 205 99 q 199 109 199 123 z m 213 123 q 213 105 220 94 q 231 85 244 85 q 259 85 267 97 q 277 108 277 124 q 277 130 276 134 q 274 139 273 144 q 270 154 261 157 q 256 163 244 163 q 232 163 222 153 q 213 145 213 123 z m 306 78 l 306 171 l 324 171 l 346 105 q 351 96 351 91 q 354 94 357 106 l 381 171 l 396 171 l 396 78 l 384 78 l 384 156 l 357 78 l 345 78 l 318 157 l 318 78 z m 417 78 l 417 171 l 453 171 l 466 171 q 474 171 478 166 q 480 165 486 157 q 487 154 488 151 q 489 148 489 144 q 489 135 481 124 q 474 117 453 117 l 429 117 l 429 78 z m 429 126 l 454 126 q 468 126 469 132 q 475 133 475 144 q 475 151 474 153 q 468 159 463 159 q 462 162 453 162 l 429 162 z m 505 78 l 505 171 l 517 171 l 517 87 l 564 87 l 564 78 z m 579 78 l 579 171 l 648 171 l 648 162 l 591 162 l 591 132 l 643 132 l 643 120 l 591 120 l 591 87 l 649 87 l 649 78 z m 690 78 l 690 162 l 658 162 l 658 171 l 735 171 l 735 162 l 703 162 l 703 78 z m 748 78 l 748 171 l 817 171 l 817 162 l 760 162 l 760 132 l 813 132 l 813 120 l 760 120 l 760 87 l 819 87 l 819 78 z m 870 106 l 882 108 q 882 100 885 97 q 888 91 895 88 q 898 87 909 87 q 912 87 916 87 q 919 87 922 88 q 927 88 930 94 q 931 97 931 103 q 931 108 930 111 q 928 112 926 113 q 924 114 921 117 q 919 117 904 120 q 897 123 892 124 q 888 124 885 126 q 879 129 876 136 q 873 138 872 141 q 871 144 871 147 q 871 156 877 162 q 879 165 882 166 q 885 168 889 171 q 892 172 907 172 q 918 172 924 169 q 928 166 931 164 q 934 163 936 159 q 942 154 942 145 l 930 144 q 927 156 922 157 q 918 162 907 162 q 892 162 889 157 q 885 153 885 147 q 885 142 889 139 q 889 139 907 132 q 915 130 920 128 q 925 127 928 126 q 933 124 935 122 q 937 120 940 117 q 943 112 943 103 q 943 93 940 88 q 934 82 928 79 q 924 78 920 76 q 915 75 909 75 q 903 75 897 76 q 891 78 888 79 q 880 81 873 91 q 870 97 870 106 z m 961 78 l 961 171 l 1029 171 l 1029 162 l 975 162 l 975 132 l 1027 132 l 1027 120 l 975 120 l 975 87 l 1032 87 l 1032 78 z m 1074 78 l 1074 162 l 1044 162 l 1044 171 l 1117 171 l 1117 162 l 1086 162 l 1086 78 z m 112 190 l 112 283 l 150 283 l 163 283 q 166 283 175 280 q 177 279 179 276 q 181 273 183 270 q 186 267 186 259 q 186 246 177 237 q 172 229 150 229 l 127 229 l 127 190 z m 127 241 l 150 241 q 163 241 168 244 q 174 250 174 256 q 174 259 172 262 q 171 265 169 268 q 165 273 162 273 q 160 274 150 274 l 127 274 z m 201 190 l 201 283 l 268 283 l 268 274 l 214 274 l 214 244 l 265 244 l 265 234 l 214 234 l 214 202 l 271 202 l 271 190 z m 288 190 l 288 283 l 331 283 q 345 283 351 282 q 358 279 361 274 q 364 262 364 259 q 364 249 358 243 q 352 237 337 234 q 340 231 342 231 q 343 231 345 229 q 352 222 355 216 l 372 190 l 357 190 l 343 210 q 342 214 340 217 q 337 220 336 223 q 333 225 332 227 q 331 229 330 229 q 327 231 324 231 q 322 234 316 234 l 303 234 l 303 190 z m 303 243 l 327 243 q 339 243 342 244 q 346 249 349 250 q 351 253 351 259 q 351 265 346 270 q 342 274 331 274 l 303 274 z m 381 222 l 391 222 q 391 219 392 216 q 394 213 396 210 q 397 208 400 206 q 402 204 405 204 q 414 201 420 201 q 423 201 426 201 q 429 201 430 202 q 439 205 441 208 q 441 210 442 212 q 442 214 442 216 q 442 222 441 223 q 436 226 430 229 q 429 231 425 231 q 421 231 415 234 q 402 235 396 240 q 388 246 385 249 q 384 253 384 261 q 384 264 384 268 q 385 271 388 274 q 390 280 400 283 q 403 286 417 286 q 429 286 435 283 q 444 279 447 273 q 453 264 453 259 l 441 256 q 438 267 433 270 q 427 276 417 276 q 405 276 400 270 q 396 267 396 261 q 396 255 400 253 q 402 250 417 247 q 430 241 439 241 q 442 238 445 236 q 448 234 450 231 q 454 226 454 217 q 454 210 450 204 q 447 199 444 197 q 442 195 439 192 q 427 189 420 189 q 409 189 397 192 q 393 195 390 197 q 387 199 384 204 q 382 208 382 212 q 381 216 381 222 z m 468 237 q 468 258 480 273 q 493 286 513 286 q 519 286 524 284 q 529 283 537 280 q 543 277 546 272 q 549 268 552 262 q 558 252 558 237 q 558 223 552 211 q 546 201 537 195 q 525 189 513 189 q 499 189 489 196 q 475 204 474 214 q 468 222 468 237 z m 480 237 q 480 219 489 210 q 498 201 513 201 q 528 201 537 210 q 544 220 544 237 q 544 243 544 249 q 543 255 540 259 q 535 267 531 270 q 523 276 513 276 q 505 276 500 274 q 496 271 489 267 q 480 258 480 237 z m 573 190 l 573 283 l 586 283 l 636 211 l 636 283 l 648 283 l 648 190 l 636 190 l 585 264 l 585 190 z m 658 190 l 694 283 l 708 283 l 747 190 l 732 190 l 721 220 l 682 220 l 670 190 z m 684 229 l 717 229 l 708 255 q 705 261 704 266 q 702 271 700 274 q 700 270 698 266 q 697 261 696 256 z m 754 190 l 754 283 l 768 283 l 768 202 l 814 202 l 814 190 z m 922 283 l 934 283 l 934 231 q 934 214 931 208 q 928 199 921 195 q 913 189 898 189 q 883 189 877 195 q 873 196 870 200 q 867 204 864 208 q 862 211 862 231 l 862 283 l 873 283 l 873 231 q 873 216 876 211 q 879 205 883 204 q 886 202 889 202 q 892 201 897 201 q 909 201 916 205 q 922 211 922 231 z m 951 222 l 963 222 q 963 219 964 216 q 966 213 967 210 q 969 208 971 206 q 973 204 976 204 q 985 201 990 201 q 1000 201 1005 202 q 1008 204 1012 208 q 1014 210 1014 216 q 1014 222 1012 223 q 1009 225 1008 226 q 1008 228 1005 229 q 1002 231 998 231 q 993 231 987 234 q 981 235 976 236 q 970 237 969 240 q 961 243 960 249 q 955 253 955 261 q 955 267 960 274 q 961 280 970 283 q 976 286 988 286 q 993 286 998 286 q 1003 286 1006 283 q 1015 279 1020 273 q 1021 270 1022 266 q 1024 262 1024 259 l 1012 256 q 1009 261 1008 264 q 1008 268 1005 270 q 1000 276 988 276 q 975 276 973 270 q 967 268 967 261 q 967 256 970 253 q 973 250 988 247 q 1005 241 1009 241 q 1014 238 1017 236 q 1020 234 1021 231 q 1026 228 1026 217 q 1026 208 1021 204 q 1018 199 1016 197 q 1014 195 1009 192 q 1000 189 993 189 q 985 189 980 190 q 975 190 970 192 q 967 195 964 197 q 960 199 957 204 q 954 208 952 212 q 951 216 951 222 z m 1044 190 l 1044 283 l 1111 283 l 1111 274 l 1057 274 l 1057 244 l 1107 244 l 1107 234 l 1057 234 l 1057 202 l 1113 202 l 1113 190 z m 307 388 q 307 403 285 406 q 282 406 278 407 q 273 408 267 408 l 258 397 l 234 372 q 228 364 222 358 q 217 352 210 348 q 219 345 232 343 q 235 343 240 343 q 246 343 250 345 q 273 346 285 357 q 307 375 307 388 z m 324 433 q 324 439 316 439 q 313 439 291 432 l 274 417 q 271 414 268 408 l 294 412 q 300 412 310 420 q 324 429 324 433 z m 343 460 q 343 457 339 457 q 336 457 335 458 q 334 459 331 459 q 316 456 297 436 q 300 439 304 440 q 307 442 310 444 q 321 445 330 444 q 336 444 336 436 l 336 430 q 328 417 294 409 q 321 406 321 391 q 321 373 292 354 q 282 348 270 344 q 259 340 247 339 q 228 334 217 336 q 208 336 198 340 q 189 334 181 334 l 178 334 q 169 337 163 339 l 168 339 q 180 339 187 345 l 187 346 q 177 340 165 340 q 148 340 139 349 q 124 360 124 381 q 124 387 126 392 q 127 397 130 405 q 141 427 166 444 q 174 451 182 454 q 190 456 198 457 q 214 457 220 451 q 213 456 205 456 q 196 456 186 450 q 171 444 169 441 q 154 433 139 415 q 126 394 126 379 q 126 372 128 368 q 129 363 132 358 q 138 349 148 346 q 153 345 156 344 q 159 343 162 343 q 168 343 172 344 q 177 346 183 349 q 166 361 166 382 q 169 402 190 417 l 187 412 q 184 412 181 406 q 172 397 172 387 q 172 367 195 354 q 207 361 207 363 q 210 367 213 370 q 216 373 219 376 q 222 379 222 384 q 223 388 226 393 l 226 391 q 226 384 225 379 l 243 400 q 289 453 319 462 q 306 466 298 466 q 279 465 256 453 q 229 439 229 420 q 229 414 234 409 q 235 408 235 406 q 226 412 226 421 q 226 438 246 454 q 270 472 297 469 q 306 469 324 463 l 330 463 q 337 463 342 460 z m 346 363 q 345 357 334 346 q 324 340 316 340 q 309 340 309 349 q 309 357 318 369 l 316 369 q 315 367 310 367 q 310 367 309 369 q 313 369 324 379 l 325 379 l 330 385 q 334 390 334 393 l 339 393 q 343 393 343 391 q 343 385 334 375 l 324 364 q 315 351 315 346 q 315 342 321 342 q 328 342 339 357 q 340 358 342 359 q 343 360 346 363 z m 354 405 q 348 396 339 396 q 334 396 328 400 l 333 400 q 343 400 346 411 l 346 414 l 354 411 q 355 409 354 405 z m 406 433 q 406 426 360 370 l 358 370 q 345 354 345 345 q 345 340 349 340 q 358 340 369 355 q 370 357 372 358 q 373 358 375 361 q 375 354 363 345 q 355 339 346 339 q 337 340 337 348 q 336 355 367 394 l 385 417 l 394 426 q 399 432 402 441 q 406 438 406 433 z m 432 433 q 432 427 384 370 q 369 352 369 345 q 369 340 375 340 q 381 340 394 355 l 400 361 q 399 354 387 345 q 379 339 370 339 q 361 340 361 348 q 361 357 391 394 l 409 417 l 418 426 q 426 435 427 441 q 432 438 432 433 z m 403 333 q 379 328 366 315 q 355 301 355 298 q 355 292 361 292 q 363 291 372 294 q 375 297 378 300 q 382 304 387 309 z m 447 430 q 444 409 427 393 q 427 391 426 391 q 426 391 426 390 q 421 384 416 378 q 411 373 406 366 q 403 363 403 360 q 402 363 405 369 q 396 355 396 348 q 396 343 400 343 q 402 343 408 346 q 430 364 439 397 l 439 393 l 439 388 q 442 385 442 381 q 442 378 435 366 l 423 346 l 409 328 q 414 331 426 337 l 424 336 q 421 333 416 329 q 411 325 406 318 l 394 303 l 388 295 q 379 286 369 283 q 360 283 355 289 q 346 292 352 303 q 354 304 356 307 q 357 310 360 313 l 361 315 l 351 313 q 376 331 393 333 q 394 333 396 334 q 397 334 399 334 l 400 334 l 403 334 l 412 348 q 406 342 402 341 q 397 340 394 340 q 387 340 387 348 q 387 366 418 394 l 421 396 l 436 411 q 439 417 442 422 q 445 426 447 430 z m 618 453 q 609 456 603 456 q 588 456 575 452 q 562 448 549 441 q 543 438 539 434 q 535 430 531 427 q 549 426 579 408 q 612 441 636 450 z m 649 447 q 643 445 636 443 q 630 441 622 433 q 618 430 600 412 l 589 402 l 604 393 q 607 397 613 404 q 619 411 627 420 z m 663 472 q 663 471 661 469 q 661 459 657 448 l 658 447 l 657 447 q 649 429 637 417 l 613 388 q 616 387 618 387 q 619 387 622 385 q 622 382 621 382 q 618 382 616 383 q 615 384 612 385 q 594 366 592 349 q 589 343 589 340 q 589 334 595 334 q 607 334 621 354 l 627 363 q 642 384 646 400 l 646 405 q 646 403 648 402 l 648 400 q 645 379 633 361 l 613 322 q 613 328 618 342 q 600 328 591 328 q 577 328 580 346 q 580 355 586 366 q 592 378 601 391 l 586 399 l 573 385 q 568 379 560 370 q 552 361 540 346 q 516 322 498 322 l 493 322 q 489 322 480 327 q 480 327 483 327 q 496 324 510 337 q 498 331 481 331 q 465 331 454 339 l 456 339 q 441 349 441 370 q 441 385 447 393 q 456 417 481 433 q 490 441 498 443 q 507 445 516 447 q 531 447 537 441 l 535 441 q 532 444 522 444 q 507 444 484 430 q 468 418 456 405 q 442 384 442 367 q 442 343 465 336 q 474 333 478 333 q 510 334 547 375 l 576 405 q 553 418 525 418 l 523 418 q 520 412 520 405 q 522 405 528 396 q 517 402 517 411 q 517 415 519 418 q 504 415 499 412 q 472 402 475 381 q 475 367 484 357 l 487 354 q 469 372 469 385 q 469 405 487 418 q 502 429 525 429 q 546 453 577 457 q 585 459 601 459 q 609 459 624 456 l 642 451 l 651 451 l 652 450 q 658 460 661 475 l 663 475 z m 682 375 q 682 370 681 367 q 673 360 668 354 q 663 348 658 340 l 660 340 l 661 340 q 660 339 658 339 q 657 339 657 337 q 649 337 649 340 q 649 346 663 360 q 673 373 673 376 q 675 381 669 385 q 651 360 637 354 l 631 351 l 628 352 q 634 352 648 367 q 661 379 666 387 q 666 388 665 388 q 664 388 664 390 q 664 391 675 400 q 675 402 676 402 l 678 400 q 678 399 670 388 q 682 384 682 375 z m 726 379 q 726 388 720 385 q 714 385 711 382 q 706 379 697 367 q 688 355 688 348 q 687 345 691 345 q 700 348 706 355 q 712 367 712 372 q 712 375 711 375 q 717 375 717 367 l 715 364 q 718 367 720 371 q 723 375 726 378 z m 754 393 q 748 393 741 385 q 735 378 729 369 q 723 360 715 348 q 708 333 702 324 q 696 316 694 313 q 675 289 664 289 q 655 288 651 295 q 651 303 651 303 q 651 310 657 316 q 654 315 649 315 q 664 330 682 334 q 684 334 684 335 q 685 336 688 336 l 690 334 q 661 325 655 307 q 654 304 654 300 q 654 298 655 297 q 655 295 657 295 q 669 294 685 318 l 696 333 l 702 342 q 697 340 694 340 q 682 340 682 352 q 682 366 702 384 q 711 393 718 393 q 729 393 729 381 l 730 381 l 738 390 q 745 397 751 397 q 756 397 759 393 z m 781 382 q 781 373 765 364 q 763 363 762 363 l 760 363 q 756 363 751 370 q 754 367 759 367 q 769 373 772 384 l 772 387 l 772 388 l 772 390 q 766 390 753 376 l 753 375 q 748 369 748 365 q 747 361 747 358 q 745 360 745 367 q 742 361 741 357 q 738 351 738 346 q 738 345 739 343 q 739 340 745 340 q 760 346 771 355 q 774 358 778 361 q 775 357 772 353 q 769 349 762 345 q 750 337 741 340 q 741 339 739 340 q 730 340 730 349 q 730 364 747 379 q 756 393 771 393 q 774 393 775 391 q 781 387 781 382 z m 841 433 q 841 427 793 370 q 780 354 780 345 q 780 340 784 340 q 793 340 804 355 q 805 357 806 358 q 808 358 810 361 q 810 354 798 345 q 790 339 780 339 q 772 342 772 348 q 772 360 801 394 l 819 417 l 828 426 q 837 435 837 441 q 841 438 841 433 z m 922 387 q 897 396 895 415 q 888 411 880 407 q 873 403 868 399 q 840 372 840 349 q 840 340 844 339 l 847 339 l 850 339 q 873 339 892 354 q 898 360 906 368 q 915 375 922 387 z m 952 430 l 940 430 q 922 429 897 417 q 900 396 925 391 l 936 405 z m 979 457 q 960 457 944 454 q 928 451 916 444 q 924 451 935 456 q 946 460 960 463 q 930 465 907 445 q 903 442 897 430 q 907 433 917 434 q 927 436 939 435 q 942 435 946 435 q 951 435 958 433 q 961 438 966 444 q 972 450 979 457 z m 1074 459 q 1071 454 1067 450 q 1063 447 1056 444 q 1044 436 1033 436 l 1030 436 q 1029 436 1027 438 q 1029 439 1029 440 q 1029 442 1032 445 q 1018 456 994 456 l 988 448 l 973 430 q 985 429 996 428 q 1006 426 1015 426 q 1036 426 1044 430 q 1038 424 1021 421 q 1008 418 994 423 l 970 427 q 964 420 959 414 q 954 409 951 403 l 940 388 l 948 388 q 985 391 991 406 l 993 406 q 988 397 973 390 q 966 387 959 386 q 952 384 946 384 l 939 384 q 928 372 922 363 q 915 354 909 348 q 889 327 873 327 q 865 328 856 328 q 871 328 888 343 q 867 334 855 334 l 846 336 l 858 324 q 846 330 838 337 q 837 337 831 340 q 813 354 811 375 q 811 382 811 388 q 811 394 814 400 q 819 414 826 424 q 834 433 844 444 q 870 466 889 466 q 900 466 907 460 l 906 459 q 901 463 892 463 q 873 460 852 444 q 834 429 825 414 q 813 393 813 375 q 816 348 837 340 q 834 349 835 358 q 838 381 852 397 q 868 418 897 430 q 900 433 900 439 l 913 453 q 933 469 964 469 q 972 469 977 469 q 982 469 990 468 l 991 468 q 1002 475 1010 479 q 1018 483 1027 481 q 1033 481 1036 478 q 1020 475 1020 475 q 1017 474 1013 472 q 1009 471 1005 468 q 1011 466 1017 466 q 1023 465 1030 462 q 1045 457 1054 457 q 1068 457 1074 459 z m 982 354 q 978 358 978 364 q 978 367 978 370 q 979 372 979 375 q 964 355 966 346 q 966 343 969 343 q 972 343 982 354 z m 1002 385 q 1002 388 999 388 q 996 388 993 387 q 991 385 988 379 q 981 364 981 360 q 981 355 982 354 l 987 358 l 987 360 l 987 358 q 988 360 988 360 q 988 361 990 363 q 993 372 993 375 q 993 376 991 378 q 994 372 994 370 q 999 375 1002 385 z m 1008 381 q 1008 373 997 358 q 984 345 978 340 l 966 340 q 957 340 957 348 q 957 360 973 379 q 984 393 997 393 q 1008 393 1008 381 z m 1057 384 q 1059 381 1051 367 q 1042 355 1039 352 l 1021 336 q 1011 325 1008 313 q 1009 331 1021 345 q 1027 351 1030 356 q 1033 360 1036 366 q 1038 367 1039 372 l 1039 367 q 1039 367 1038 364 q 1041 367 1047 379 q 1047 381 1048 382 q 1048 382 1048 384 q 1048 391 1041 388 q 1041 388 1029 379 q 1026 372 1020 366 q 1015 361 1009 354 q 1002 345 1000 340 q 999 339 993 327 q 993 330 992 334 q 991 337 993 340 q 996 351 1006 361 l 1015 372 q 1023 382 1023 388 q 1023 390 1022 392 q 1021 393 1021 394 q 1030 391 1030 385 q 1039 393 1050 393 q 1056 390 1057 384 z m 1116 405 l 1093 405 q 1092 402 1084 393 q 1075 384 1063 367 q 1060 367 1057 360 q 1051 352 1051 345 q 1051 340 1054 340 q 1062 340 1075 355 l 1077 357 q 1078 358 1078 359 q 1078 360 1080 361 q 1080 354 1069 345 q 1062 339 1051 339 q 1044 342 1042 348 q 1042 351 1048 363 l 1066 384 l 1083 405 l 1057 408 q 1051 409 1042 409 l 1029 409 q 1011 409 993 402 l 991 402 q 1006 417 1038 417 q 1039 417 1050 414 q 1062 412 1083 409 l 1087 408 q 1092 415 1096 420 q 1099 426 1102 430 q 1105 429 1105 423 q 1105 418 1102 415 l 1096 406 l 1108 405 l 1117 405 l 1119 405 l 1123 405 z m 1126 385 q 1126 381 1116 376 l 1114 375 q 1119 379 1119 387 l 1119 393 l 1114 393 q 1107 393 1105 387 q 1105 384 1110 361 q 1111 340 1086 340 q 1072 340 1069 349 q 1068 351 1068 354 q 1068 366 1086 369 l 1092 367 l 1089 367 q 1083 367 1080 364 q 1075 357 1075 354 q 1075 342 1087 342 q 1099 342 1099 358 q 1099 366 1098 370 q 1096 375 1096 381 q 1096 396 1110 396 q 1113 396 1114 395 q 1116 394 1119 394 q 1125 391 1125 390 q 1126 388 1126 385 z"},"r":{"x_min":0,"x_max":317,"ha":317,"o":"m 69 161 q 73 181 79 216 q 85 250 90 286 q 95 322 96 352 q 98 383 92 395 q 86 404 80 412 q 74 420 68 429 l 13 268 q 8 260 2 260 q -4 260 -10 265 q -16 270 -19 278 q -22 287 -19 298 q -9 333 2 370 q 14 406 28 443 q 32 458 29 476 q 26 493 24 517 l 24 528 q 21 563 28 602 q 36 642 50 676 q 64 711 81 736 q 98 760 114 767 q 124 771 142 761 q 160 751 178 736 q 196 720 208 703 q 220 686 218 676 q 174 653 142 600 q 111 546 108 472 q 107 459 113 446 q 119 434 130 419 q 140 404 154 386 q 167 369 182 346 q 191 331 189 305 q 187 279 180 248 q 174 218 166 186 q 158 155 153 130 q 148 105 151 90 q 154 75 169 78 q 176 79 192 102 q 209 125 229 160 q 249 195 270 237 q 290 279 306 318 q 310 329 316 331 q 322 333 328 329 q 333 325 336 316 q 340 308 338 296 q 325 251 304 200 q 284 149 260 106 q 237 62 212 32 q 187 3 166 -1 q 140 -5 120 10 q 99 25 86 50 q 73 74 68 104 q 64 135 69 161 z"}}}
